AcariSans-ExtraLightItalic.ufo
<glyph name="exclam" format="2">
  <advance width="640"/>
  <unicode hex="0021"/>
  <outline>
    <contour>
      <point x="329" y="364" type="line"/>
      <point x="249" y="364" type="line"/>
      <point x="470" y="1436" type="line"/>
      <point x="606" y="1436" type="line"/>
    </contour>
    <contour>
      <point x="287" y="0" type="line"/>
      <point x="126" y="0" type="line"/>
      <point x="163" y="160" type="line"/>
      <point x="324" y="160" type="line"/>
    </contour>
  </outline>
</glyph>
<glyph name="quotedbl" format="2">
  <advance width="900"/>
  <unicode hex="0022"/>
  <outline>
    <contour>
      <point x="438" y="1037" type="line"/>
      <point x="338" y="1037" type="line"/>
      <point x="425" y="1413" type="line"/>
      <point x="525" y="1413" type="line"/>
    </contour>
    <contour>
      <point x="810" y="1037" type="line"/>
      <point x="708" y="1037" type="line"/>
      <point x="796" y="1413" type="line"/>
      <point x="897" y="1413" type="line"/>
    </contour>
  </outline>
</glyph>
<glyph name="percent" format="2">
  <advance width="1611"/>
  <unicode hex="0025"/>
  <outline>
    <contour>
      <point x="480" y="823" type="qcurve" smooth="yes"/>
      <point x="388" y="823"/>
      <point x="342" y="883" type="qcurve"/>
      <point x="298" y="937"/>
      <point x="298" y="1033" type="qcurve" smooth="yes"/>
      <point x="298" y="1116"/>
      <point x="331" y="1205" type="qcurve" smooth="yes"/>
      <point x="367" y="1305"/>
      <point x="430" y="1366" type="qcurve" smooth="yes"/>
      <point x="502" y="1436"/>
      <point x="595" y="1436" type="qcurve" smooth="yes"/>
      <point x="681" y="1436"/>
      <point x="775" y="1317"/>
      <point x="775" y="1219" type="qcurve" smooth="yes"/>
      <point x="775" y="1147"/>
      <point x="729" y="1005"/>
      <point x="650" y="892"/>
      <point x="542" y="823"/>
    </contour>
    <contour>
      <point x="368" y="11" type="line"/>
      <point x="271" y="11" type="line"/>
      <point x="1325" y="1388" type="line"/>
      <point x="1423" y="1388" type="line"/>
    </contour>
    <contour>
      <point x="472" y="887" type="qcurve" smooth="yes"/>
      <point x="513" y="887"/>
      <point x="548" y="908" type="qcurve" smooth="yes"/>
      <point x="614" y="949"/>
      <point x="702" y="1142"/>
      <point x="702" y="1232" type="qcurve" smooth="yes"/>
      <point x="702" y="1292"/>
      <point x="652" y="1369"/>
      <point x="599" y="1369" type="qcurve" smooth="yes"/>
      <point x="546" y="1369"/>
      <point x="503" y="1336" type="qcurve" smooth="yes"/>
      <point x="416" y="1270"/>
      <point x="382" y="1142" type="qcurve" smooth="yes"/>
      <point x="366" y="1082"/>
      <point x="366" y="1028" type="qcurve" smooth="yes"/>
      <point x="366" y="887"/>
    </contour>
    <contour>
      <point x="1123" y="8" type="qcurve" smooth="yes"/>
      <point x="1029" y="8"/>
      <point x="983" y="68" type="qcurve"/>
      <point x="939" y="123"/>
      <point x="939" y="219" type="qcurve" smooth="yes"/>
      <point x="939" y="291"/>
      <point x="968" y="376" type="qcurve" smooth="yes"/>
      <point x="1003" y="479"/>
      <point x="1063" y="539" type="qcurve" smooth="yes"/>
      <point x="1136" y="614"/>
      <point x="1234" y="614" type="qcurve" smooth="yes"/>
      <point x="1322" y="614"/>
      <point x="1416" y="494"/>
      <point x="1416" y="398" type="qcurve" smooth="yes"/>
      <point x="1416" y="327"/>
      <point x="1372" y="187"/>
      <point x="1293" y="77"/>
      <point x="1186" y="8"/>
    </contour>
    <contour>
      <point x="1114" y="73" type="qcurve" smooth="yes"/>
      <point x="1192" y="73"/>
      <point x="1257" y="153" type="qcurve" smooth="yes"/>
      <point x="1313" y="224"/>
      <point x="1334" y="321" type="qcurve" smooth="yes"/>
      <point x="1345" y="373"/>
      <point x="1345" y="413" type="qcurve" smooth="yes"/>
      <point x="1345" y="471"/>
      <point x="1294" y="547"/>
      <point x="1241" y="547" type="qcurve" smooth="yes"/>
      <point x="1168" y="547"/>
      <point x="1110" y="485" type="qcurve" smooth="yes"/>
      <point x="1061" y="432"/>
      <point x="1033" y="349" type="qcurve" smooth="yes"/>
      <point x="1008" y="275"/>
      <point x="1008" y="216" type="qcurve" smooth="yes"/>
      <point x="1008" y="73"/>
    </contour>
  </outline>
</glyph>
<glyph name="quotesingle" format="2">
  <advance width="615"/>
  <unicode hex="0027"/>
  <outline>
    <contour>
      <point x="488" y="1065" type="line"/>
      <point x="389" y="1065" type="line"/>
      <point x="476" y="1442" type="line"/>
      <point x="576" y="1442" type="line"/>
    </contour>
  </outline>
</glyph>
<glyph name="parenleft" format="2">
  <advance width="567"/>
  <unicode hex="0028"/>
  <outline>
    <contour>
      <point x="347" y="4" type="qcurve"/>
      <point x="274" y="10" type="line"/>
      <point x="224" y="84"/>
      <point x="172" y="330"/>
      <point x="172" y="467" type="qcurve" smooth="yes"/>
      <point x="172" y="632"/>
      <point x="212" y="774" type="qcurve" smooth="yes"/>
      <point x="248" y="903"/>
      <point x="340" y="1079" type="qcurve"/>
      <point x="442" y="1268"/>
      <point x="589" y="1408" type="qcurve"/>
      <point x="679" y="1402" type="line"/>
      <point x="481" y="1198"/>
      <point x="252" y="683"/>
      <point x="252" y="438" type="qcurve" smooth="yes"/>
      <point x="252" y="175"/>
    </contour>
  </outline>
</glyph>
<glyph name="parenright" format="2">
  <advance width="569"/>
  <unicode hex="0029"/>
  <outline>
    <contour>
      <point x="75" y="3" type="qcurve"/>
      <point x="-12" y="10" type="line"/>
      <point x="120" y="145"/>
      <point x="234" y="349" type="qcurve" smooth="yes"/>
      <point x="345" y="548"/>
      <point x="383" y="715" type="qcurve"/>
      <point x="410" y="825"/>
      <point x="410" y="954" type="qcurve" smooth="yes"/>
      <point x="410" y="1074"/>
      <point x="359" y="1321"/>
      <point x="316" y="1408" type="qcurve"/>
      <point x="389" y="1401" type="line"/>
      <point x="498" y="1224"/>
      <point x="498" y="962" type="qcurve" smooth="yes"/>
      <point x="498" y="783"/>
      <point x="445" y="613" type="qcurve" smooth="yes"/>
      <point x="385" y="418"/>
      <point x="244" y="203" type="qcurve"/>
      <point x="160" y="78"/>
    </contour>
  </outline>
</glyph>
<glyph name="asterisk" format="2">
  <advance width="871"/>
  <unicode hex="002A"/>
  <outline>
    <contour>
      <point x="393" y="861" type="line"/>
      <point x="339" y="911" type="line"/>
      <point x="568" y="1127" type="line"/>
      <point x="318" y="1172" type="line"/>
      <point x="360" y="1256" type="line"/>
      <point x="578" y="1147" type="line"/>
      <point x="609" y="1413" type="line"/>
      <point x="681" y="1413" type="line"/>
      <point x="589" y="1147" type="line"/>
      <point x="854" y="1256" type="line"/>
      <point x="860" y="1173" type="line"/>
      <point x="587" y="1127" type="line"/>
      <point x="720" y="912" type="line"/>
      <point x="651" y="862" type="line"/>
      <point x="577" y="1106" type="line"/>
    </contour>
  </outline>
</glyph>
<glyph name="plus" format="2">
  <advance width="1289"/>
  <unicode hex="002B"/>
  <outline>
    <contour>
      <point x="684" y="107" type="line"/>
      <point x="605" y="107" type="line"/>
      <point x="605" y="587" type="line"/>
      <point x="146" y="587" type="line"/>
      <point x="146" y="666" type="line"/>
      <point x="605" y="666" type="line"/>
      <point x="605" y="1142" type="line"/>
      <point x="684" y="1142" type="line"/>
      <point x="684" y="666" type="line"/>
      <point x="1143" y="666" type="line"/>
      <point x="1143" y="587" type="line"/>
      <point x="684" y="587" type="line"/>
    </contour>
  </outline>
</glyph>
<glyph name="period" format="2">
  <advance width="681"/>
  <unicode hex="002E"/>
  <outline>
    <contour>
      <point x="313" y="0" type="line"/>
      <point x="139" y="0" type="line"/>
      <point x="177" y="160" type="line"/>
      <point x="351" y="160" type="line"/>
    </contour>
  </outline>
</glyph>
<glyph name="slash" format="2">
  <advance width="941"/>
  <unicode hex="002F"/>
  <outline>
    <contour>
      <point x="-54" y="-432" type="line"/>
      <point x="-176" y="-432" type="line"/>
      <point x="1020" y="1517" type="line"/>
      <point x="1136" y="1517" type="line"/>
    </contour>
  </outline>
</glyph>
<glyph name="one" format="2">
  <advance width="1205"/>
  <unicode hex="0031"/>
  <outline>
    <contour>
      <point x="571" y="0" type="line"/>
      <point x="457" y="0" type="line"/>
      <point x="714" y="1114" type="line"/>
      <point x="332" y="1114" type="line"/>
      <point x="353" y="1205" type="line"/>
      <point x="561" y="1205" type="line" smooth="yes"/>
      <point x="644" y="1205"/>
      <point x="772" y="1306"/>
      <point x="793" y="1394" type="qcurve"/>
      <point x="797" y="1413" type="line"/>
      <point x="897" y="1413" type="line"/>
    </contour>
  </outline>
</glyph>
<glyph name="five" format="2">
  <advance width="1206"/>
  <unicode hex="0035"/>
  <outline>
    <contour>
      <point x="431" y="-20" type="qcurve" smooth="yes"/>
      <point x="312" y="-20"/>
      <point x="154" y="78"/>
      <point x="75" y="244"/>
      <point x="75" y="348" type="qcurve" smooth="yes"/>
      <point x="75" y="350"/>
      <point x="75" y="353" type="qcurve"/>
      <point x="101" y="363"/>
      <point x="129" y="373" type="qcurve" smooth="yes"/>
      <point x="157" y="382"/>
      <point x="183" y="392" type="qcurve"/>
      <point x="182" y="379"/>
      <point x="182" y="366" type="qcurve" smooth="yes"/>
      <point x="182" y="300"/>
      <point x="229" y="165"/>
      <point x="338" y="79"/>
      <point x="448" y="79" type="qcurve" smooth="yes"/>
      <point x="559" y="79"/>
      <point x="745" y="187"/>
      <point x="859" y="352"/>
      <point x="883" y="453" type="qcurve" smooth="yes"/>
      <point x="895" y="506"/>
      <point x="895" y="555" type="qcurve" smooth="yes"/>
      <point x="895" y="593"/>
      <point x="871" y="713"/>
      <point x="740" y="807"/>
      <point x="635" y="807" type="qcurve" smooth="yes"/>
      <point x="531" y="807"/>
      <point x="351" y="724"/>
      <point x="289" y="651" type="qcurve"/>
      <point x="211" y="716" type="line"/>
      <point x="488" y="1413" type="line"/>
      <point x="1148" y="1413" type="line"/>
      <point x="1127" y="1319" type="line"/>
      <point x="553" y="1319" type="line"/>
      <point x="337" y="770" type="line"/>
      <point x="480" y="901"/>
      <point x="670" y="901" type="qcurve" smooth="yes"/>
      <point x="802" y="901"/>
      <point x="963" y="777"/>
      <point x="1005" y="625"/>
      <point x="1005" y="569" type="qcurve" smooth="yes"/>
      <point x="1005" y="514"/>
      <point x="991" y="453" type="qcurve" smooth="yes"/>
      <point x="961" y="324"/>
      <point x="798" y="110"/>
      <point x="565" y="-20"/>
    </contour>
  </outline>
</glyph>
<glyph name="six" format="2">
  <advance width="1206"/>
  <unicode hex="0036"/>
  <outline>
    <contour>
      <point x="783" y="1414" type="line"/>
      <point x="896" y="1414" type="line"/>
      <point x="457" y="860" type="line"/>
      <point x="543" y="881"/>
      <point x="630" y="881" type="qcurve" smooth="yes"/>
      <point x="784" y="881"/>
      <point x="941" y="767"/>
      <point x="991" y="615"/>
      <point x="991" y="555" type="qcurve" smooth="yes"/>
      <point x="991" y="501"/>
      <point x="977" y="442" type="qcurve" smooth="yes"/>
      <point x="950" y="323"/>
      <point x="789" y="111"/>
      <point x="556" y="-20"/>
      <point x="420" y="-20" type="qcurve" smooth="yes"/>
      <point x="301" y="-20"/>
      <point x="129" y="102"/>
      <point x="71" y="265"/>
      <point x="71" y="331" type="qcurve" smooth="yes"/>
      <point x="71" y="384"/>
      <point x="84" y="441" type="qcurve" smooth="yes"/>
      <point x="114" y="573"/>
      <point x="203" y="683" type="qcurve"/>
    </contour>
    <contour>
      <point x="608" y="782" type="qcurve" smooth="yes"/>
      <point x="516" y="782"/>
      <point x="344" y="706"/>
      <point x="215" y="542"/>
      <point x="192" y="440" type="qcurve" smooth="yes"/>
      <point x="182" y="396"/>
      <point x="182" y="356" type="qcurve" smooth="yes"/>
      <point x="182" y="307"/>
      <point x="222" y="180"/>
      <point x="351" y="78"/>
      <point x="445" y="78" type="qcurve" smooth="yes"/>
      <point x="542" y="78"/>
      <point x="720" y="180"/>
      <point x="848" y="345"/>
      <point x="870" y="440" type="qcurve" smooth="yes"/>
      <point x="880" y="484"/>
      <point x="880" y="526" type="qcurve" smooth="yes"/>
      <point x="880" y="574"/>
      <point x="841" y="701"/>
      <point x="707" y="782"/>
    </contour>
  </outline>
</glyph>
<glyph name="nine" format="2">
  <advance width="1206"/>
  <unicode hex="0039"/>
  <outline>
    <contour>
      <point x="396" y="0" type="line"/>
      <point x="283" y="0" type="line"/>
      <point x="722" y="554" type="line"/>
      <point x="636" y="533"/>
      <point x="549" y="533" type="qcurve" smooth="yes"/>
      <point x="395" y="533"/>
      <point x="238" y="647"/>
      <point x="188" y="799"/>
      <point x="188" y="859" type="qcurve" smooth="yes"/>
      <point x="188" y="913"/>
      <point x="202" y="972" type="qcurve" smooth="yes"/>
      <point x="229" y="1091"/>
      <point x="390" y="1303"/>
      <point x="623" y="1434"/>
      <point x="759" y="1434" type="qcurve" smooth="yes"/>
      <point x="878" y="1434"/>
      <point x="1050" y="1312"/>
      <point x="1108" y="1149"/>
      <point x="1108" y="1083" type="qcurve" smooth="yes"/>
      <point x="1108" y="1030"/>
      <point x="1095" y="973" type="qcurve" smooth="yes"/>
      <point x="1065" y="841"/>
      <point x="976" y="731" type="qcurve"/>
    </contour>
    <contour>
      <point x="571" y="632" type="qcurve" smooth="yes"/>
      <point x="663" y="632"/>
      <point x="835" y="708"/>
      <point x="964" y="872"/>
      <point x="987" y="974" type="qcurve" smooth="yes"/>
      <point x="997" y="1018"/>
      <point x="997" y="1058" type="qcurve" smooth="yes"/>
      <point x="997" y="1107"/>
      <point x="957" y="1234"/>
      <point x="828" y="1336"/>
      <point x="734" y="1336" type="qcurve" smooth="yes"/>
      <point x="637" y="1336"/>
      <point x="459" y="1234"/>
      <point x="331" y="1069"/>
      <point x="309" y="974" type="qcurve" smooth="yes"/>
      <point x="299" y="930"/>
      <point x="299" y="888" type="qcurve" smooth="yes"/>
      <point x="299" y="840"/>
      <point x="338" y="713"/>
      <point x="472" y="632"/>
    </contour>
  </outline>
</glyph>
<glyph name="colon" format="2">
  <advance width="682"/>
  <unicode hex="003A"/>
  <outline>
    <contour>
      <point x="489" y="792" type="line"/>
      <point x="327" y="792" type="line"/>
      <point x="364" y="952" type="line"/>
      <point x="526" y="952" type="line"/>
    </contour>
    <contour>
      <point x="307" y="0" type="line"/>
      <point x="146" y="0" type="line"/>
      <point x="183" y="160" type="line"/>
      <point x="344" y="160" type="line"/>
    </contour>
  </outline>
</glyph>
<glyph name="semicolon" format="2">
  <advance width="659"/>
  <unicode hex="003B"/>
  <outline>
    <contour>
      <point x="531" y="792" type="line"/>
      <point x="369" y="792" type="line"/>
      <point x="407" y="952" type="line"/>
      <point x="568" y="952" type="line"/>
    </contour>
    <contour>
      <point x="112" y="-226" type="line"/>
      <point x="51" y="-226" type="line"/>
      <point x="264" y="259" type="line"/>
      <point x="417" y="259" type="line"/>
    </contour>
  </outline>
</glyph>
<glyph name="less" format="2">
  <advance width="1223"/>
  <unicode hex="003C"/>
  <outline>
    <contour>
      <point x="1001" y="179" type="line"/>
      <point x="142" y="674" type="line"/>
      <point x="1001" y="1169" type="line"/>
      <point x="1053" y="1081" type="line"/>
      <point x="321" y="674" type="line"/>
      <point x="1053" y="266" type="line"/>
    </contour>
  </outline>
</glyph>
<glyph name="B" format="2">
  <advance width="1245"/>
  <unicode hex="0042"/>
  <outline>
    <contour>
      <point x="549" y="0" type="qcurve" smooth="yes"/>
      <point x="119" y="0" type="line"/>
      <point x="199" y="353"/>
      <point x="281" y="706" type="qcurve" smooth="yes"/>
      <point x="363" y="1059"/>
      <point x="444" y="1413" type="qcurve"/>
      <point x="789" y="1413" type="line" smooth="yes"/>
      <point x="954" y="1413"/>
      <point x="1059" y="1350" type="qcurve" smooth="yes"/>
      <point x="1175" y="1281"/>
      <point x="1175" y="1150" type="qcurve" smooth="yes"/>
      <point x="1175" y="884"/>
      <point x="893" y="738" type="qcurve"/>
      <point x="991" y="690"/>
      <point x="1035" y="629" type="qcurve" smooth="yes"/>
      <point x="1084" y="561"/>
      <point x="1084" y="465" type="qcurve" smooth="yes"/>
      <point x="1084" y="226"/>
      <point x="922" y="105" type="qcurve" smooth="yes"/>
      <point x="781" y="0"/>
    </contour>
    <contour>
      <point x="630" y="767" type="line" smooth="yes"/>
      <point x="772" y="767"/>
      <point x="877" y="836" type="qcurve" smooth="yes"/>
      <point x="1000" y="916"/>
      <point x="1033" y="1065" type="qcurve" smooth="yes"/>
      <point x="1043" y="1110"/>
      <point x="1043" y="1143" type="qcurve" smooth="yes"/>
      <point x="1043" y="1235"/>
      <point x="972" y="1275" type="qcurve" smooth="yes"/>
      <point x="909" y="1311"/>
      <point x="776" y="1311" type="qcurve" smooth="yes"/>
      <point x="530" y="1311" type="line"/>
      <point x="405" y="767" type="line"/>
    </contour>
    <contour>
      <point x="569" y="103" type="line" smooth="yes"/>
      <point x="718" y="103"/>
      <point x="817" y="161" type="qcurve"/>
      <point x="929" y="229"/>
      <point x="962" y="373" type="qcurve"/>
      <point x="974" y="432"/>
      <point x="974" y="471" type="qcurve" smooth="yes"/>
      <point x="974" y="576"/>
      <point x="900" y="623" type="qcurve" smooth="yes"/>
      <point x="838" y="662"/>
      <point x="715" y="662" type="qcurve" smooth="yes"/>
      <point x="382" y="662" type="line"/>
      <point x="252" y="103" type="line"/>
    </contour>
  </outline>
</glyph>
<glyph name="C" format="2">
  <advance width="1421"/>
  <unicode hex="0043"/>
  <outline>
    <contour>
      <point x="606" y="-20" type="qcurve" smooth="yes"/>
      <point x="308" y="-20"/>
      <point x="189" y="187" type="qcurve" smooth="yes"/>
      <point x="120" y="308"/>
      <point x="120" y="479" type="qcurve" smooth="yes"/>
      <point x="120" y="583"/>
      <point x="146" y="707" type="qcurve" smooth="yes"/>
      <point x="212" y="1018"/>
      <point x="397" y="1213" type="qcurve" smooth="yes"/>
      <point x="609" y="1436"/>
      <point x="914" y="1436" type="qcurve" smooth="yes"/>
      <point x="1114" y="1436"/>
      <point x="1351" y="1244"/>
      <point x="1391" y="1075" type="qcurve"/>
      <point x="1288" y="1027" type="line"/>
      <point x="1257" y="1182"/>
      <point x="1051" y="1324"/>
      <point x="888" y="1324" type="qcurve" smooth="yes"/>
      <point x="642" y="1324"/>
      <point x="483" y="1151" type="qcurve" smooth="yes"/>
      <point x="328" y="984"/>
      <point x="271" y="717" type="qcurve" smooth="yes"/>
      <point x="244" y="590"/>
      <point x="242" y="471"/>
      <point x="242" y="466" type="qcurve" smooth="yes"/>
      <point x="242" y="359"/>
      <point x="323" y="197"/>
      <point x="402" y="151" type="qcurve" smooth="yes"/>
      <point x="487" y="101"/>
      <point x="630" y="101" type="qcurve" smooth="yes"/>
      <point x="966" y="101"/>
      <point x="1144" y="391" type="qcurve"/>
      <point x="1237" y="342" type="line"/>
      <point x="1121" y="168"/>
      <point x="794" y="-20"/>
    </contour>
  </outline>
</glyph>
<glyph name="D" format="2">
  <advance width="1419"/>
  <unicode hex="0044"/>
  <outline>
    <contour>
      <point x="459" y="0" type="qcurve" smooth="yes"/>
      <point x="119" y="0" type="line"/>
      <point x="199" y="353"/>
      <point x="281" y="706" type="qcurve" smooth="yes"/>
      <point x="363" y="1059"/>
      <point x="444" y="1413" type="qcurve"/>
      <point x="777" y="1413" type="line" smooth="yes"/>
      <point x="1053" y="1413"/>
      <point x="1347" y="1158"/>
      <point x="1347" y="918" type="qcurve" smooth="yes"/>
      <point x="1347" y="763"/>
      <point x="1235" y="423"/>
      <point x="1144" y="305" type="qcurve" smooth="yes"/>
      <point x="907" y="0"/>
    </contour>
    <contour>
      <point x="450" y="104" type="line" smooth="yes"/>
      <point x="716" y="104"/>
      <point x="919" y="254" type="qcurve" smooth="yes"/>
      <point x="1144" y="420"/>
      <point x="1211" y="718" type="qcurve" smooth="yes"/>
      <point x="1234" y="821"/>
      <point x="1234" y="906" type="qcurve" smooth="yes"/>
      <point x="1234" y="1104"/>
      <point x="994" y="1314"/>
      <point x="760" y="1314" type="qcurve" smooth="yes"/>
      <point x="538" y="1314" type="line"/>
      <point x="257" y="104" type="line"/>
    </contour>
  </outline>
</glyph>
<glyph name="E" format="2">
  <advance width="1252"/>
  <unicode hex="0045"/>
  <outline>
    <contour>
      <point x="1022" y="0" type="line"/>
      <point x="119" y="0" type="line"/>
      <point x="444" y="1413" type="line"/>
      <point x="1347" y="1413" type="line"/>
      <point x="1326" y="1321" type="line"/>
      <point x="538" y="1321" type="line"/>
      <point x="408" y="751" type="line"/>
      <point x="1074" y="751" type="line"/>
      <point x="1053" y="664" type="line"/>
      <point x="385" y="664" type="line"/>
      <point x="255" y="101" type="line"/>
      <point x="1044" y="101" type="line"/>
    </contour>
  </outline>
</glyph>
<glyph name="G" format="2">
  <advance width="1506"/>
  <unicode hex="0047"/>
  <outline>
    <contour>
      <point x="651" y="-20" type="qcurve" smooth="yes"/>
      <point x="410" y="-20"/>
      <point x="283" y="119" type="qcurve"/>
      <point x="166" y="245"/>
      <point x="166" y="475" type="qcurve" smooth="yes"/>
      <point x="166" y="618"/>
      <point x="215" y="784" type="qcurve" smooth="yes"/>
      <point x="330" y="1172"/>
      <point x="610" y="1340" type="qcurve" smooth="yes"/>
      <point x="772" y="1436"/>
      <point x="965" y="1436" type="qcurve" smooth="yes"/>
      <point x="1162" y="1436"/>
      <point x="1405" y="1247"/>
      <point x="1445" y="1070" type="qcurve"/>
      <point x="1332" y="1032" type="line"/>
      <point x="1255" y="1322"/>
      <point x="956" y="1322" type="qcurve" smooth="yes"/>
      <point x="705" y="1322"/>
      <point x="529" y="1140" type="qcurve" smooth="yes"/>
      <point x="371" y="977"/>
      <point x="306" y="707" type="qcurve" smooth="yes"/>
      <point x="279" y="594"/>
      <point x="279" y="489" type="qcurve" smooth="yes"/>
      <point x="279" y="301"/>
      <point x="370" y="200" type="qcurve"/>
      <point x="466" y="91"/>
      <point x="654" y="91" type="qcurve" smooth="yes"/>
      <point x="751" y="91"/>
      <point x="943" y="158"/>
      <point x="1107" y="288"/>
      <point x="1230" y="481"/>
      <point x="1259" y="611" type="qcurve"/>
      <point x="1172" y="609"/>
      <point x="1091" y="609" type="qcurve"/>
      <point x="1010" y="608"/>
      <point x="931" y="606" type="qcurve"/>
      <point x="935" y="625"/>
      <point x="941" y="648" type="qcurve" smooth="yes"/>
      <point x="947" y="670"/>
      <point x="952" y="691" type="qcurve"/>
      <point x="1382" y="691" type="line"/>
      <point x="1222" y="0" type="line"/>
      <point x="1123" y="0" type="line"/>
      <point x="1202" y="296" type="line"/>
      <point x="1120" y="152"/>
      <point x="979" y="69" type="qcurve" smooth="yes"/>
      <point x="828" y="-20"/>
    </contour>
  </outline>
</glyph>
<glyph name="K" format="2">
  <advance width="1443"/>
  <unicode hex="004B"/>
  <outline>
    <contour>
      <point x="1183" y="0" type="line"/>
      <point x="1048" y="0" type="line"/>
      <point x="724" y="776" type="line"/>
      <point x="272" y="398" type="line"/>
      <point x="180" y="0" type="line"/>
      <point x="65" y="0" type="line"/>
      <point x="391" y="1413" type="line"/>
      <point x="506" y="1413" type="line"/>
      <point x="307" y="549" type="line"/>
      <point x="1323" y="1413" type="line"/>
      <point x="1474" y="1413" type="line"/>
      <point x="828" y="866" type="line"/>
    </contour>
  </outline>
</glyph>
<glyph name="P" format="2">
  <advance width="1157"/>
  <unicode hex="0050"/>
  <outline>
    <contour>
      <point x="234" y="0" type="line"/>
      <point x="119" y="0" type="line"/>
      <point x="200" y="353"/>
      <point x="282" y="706" type="qcurve" smooth="yes"/>
      <point x="363" y="1059"/>
      <point x="444" y="1413" type="qcurve"/>
      <point x="815" y="1413" type="line" smooth="yes"/>
      <point x="982" y="1413"/>
      <point x="1175" y="1262"/>
      <point x="1175" y="1128" type="qcurve" smooth="yes"/>
      <point x="1175" y="1009"/>
      <point x="1119" y="905" type="qcurve" smooth="yes"/>
      <point x="987" y="662"/>
      <point x="653" y="662" type="qcurve" smooth="yes"/>
      <point x="385" y="662" type="line"/>
    </contour>
    <contour>
      <point x="667" y="758" type="line" smooth="yes"/>
      <point x="819" y="758"/>
      <point x="919" y="831" type="qcurve" smooth="yes"/>
      <point x="1025" y="908"/>
      <point x="1054" y="1046" type="qcurve" smooth="yes"/>
      <point x="1062" y="1083"/>
      <point x="1062" y="1119" type="qcurve" smooth="yes"/>
      <point x="1062" y="1215"/>
      <point x="930" y="1317"/>
      <point x="805" y="1317" type="qcurve" smooth="yes"/>
      <point x="538" y="1317" type="line"/>
      <point x="408" y="758" type="line"/>
    </contour>
  </outline>
</glyph>
<glyph name="R" format="2">
  <advance width="1216"/>
  <unicode hex="0052"/>
  <outline>
    <contour>
      <point x="985" y="-2" type="line"/>
      <point x="862" y="-2" type="line"/>
      <point x="657" y="646" type="line"/>
      <point x="381" y="646" type="line"/>
      <point x="230" y="-2" type="line"/>
      <point x="115" y="-2" type="line"/>
      <point x="443" y="1411" type="line"/>
      <point x="819" y="1411" type="line" smooth="yes"/>
      <point x="974" y="1411"/>
      <point x="1169" y="1252"/>
      <point x="1169" y="1114" type="qcurve" smooth="yes"/>
      <point x="1169" y="940"/>
      <point x="1051" y="812" type="qcurve" smooth="yes"/>
      <point x="938" y="689"/>
      <point x="766" y="663" type="qcurve"/>
    </contour>
    <contour>
      <point x="407" y="756" type="line"/>
      <point x="695" y="756"/>
      <point x="759" y="758"/>
      <point x="892" y="813"/>
      <point x="996" y="902"/>
      <point x="1061" y="1030"/>
      <point x="1061" y="1111" type="qcurve" smooth="yes"/>
      <point x="1061" y="1206"/>
      <point x="925" y="1311"/>
      <point x="808" y="1311" type="qcurve" smooth="yes"/>
      <point x="536" y="1311" type="line"/>
    </contour>
  </outline>
</glyph>
<glyph name="S" format="2">
  <advance width="1114"/>
  <unicode hex="0053"/>
  <outline>
    <contour>
      <point x="476" y="-16" type="qcurve" smooth="yes"/>
      <point x="302" y="-16"/>
      <point x="190" y="78" type="qcurve" smooth="yes"/>
      <point x="71" y="178"/>
      <point x="71" y="347" type="qcurve"/>
      <point x="179" y="371" type="line"/>
      <point x="179" y="246"/>
      <point x="328" y="94"/>
      <point x="476" y="94" type="qcurve" smooth="yes"/>
      <point x="642" y="94"/>
      <point x="852" y="267"/>
      <point x="852" y="405" type="qcurve" smooth="yes"/>
      <point x="852" y="497"/>
      <point x="790" y="562" type="qcurve"/>
      <point x="750" y="607"/>
      <point x="646" y="662" type="qcurve" smooth="yes"/>
      <point x="509" y="733"/>
      <point x="453" y="770" type="qcurve"/>
      <point x="328" y="857"/>
      <point x="328" y="1011" type="qcurve" smooth="yes"/>
      <point x="328" y="1083"/>
      <point x="355" y="1151" type="qcurve" smooth="yes"/>
      <point x="410" y="1291"/>
      <point x="544" y="1370" type="qcurve"/>
      <point x="650" y="1434"/>
      <point x="783" y="1434" type="qcurve" smooth="yes"/>
      <point x="897" y="1434"/>
      <point x="1063" y="1323"/>
      <point x="1100" y="1223" type="qcurve"/>
      <point x="1004" y="1177" type="line"/>
      <point x="973" y="1252"/>
      <point x="859" y="1327"/>
      <point x="777" y="1327" type="qcurve" smooth="yes"/>
      <point x="714" y="1327"/>
      <point x="593" y="1281"/>
      <point x="498" y="1210"/>
      <point x="444" y="1100"/>
      <point x="444" y="1035" type="qcurve" smooth="yes"/>
      <point x="444" y="984"/>
      <point x="460" y="947" type="qcurve" smooth="yes"/>
      <point x="488" y="881"/>
      <point x="569" y="834" type="qcurve" smooth="yes"/>
      <point x="589" y="822"/>
      <point x="744" y="743" type="qcurve" smooth="yes"/>
      <point x="793" y="718"/>
      <point x="842" y="684" type="qcurve"/>
      <point x="967" y="592"/>
      <point x="967" y="433" type="qcurve" smooth="yes"/>
      <point x="967" y="342"/>
      <point x="891" y="179"/>
      <point x="759" y="56"/>
      <point x="580" y="-16"/>
    </contour>
  </outline>
</glyph>
<glyph name="W" format="2">
  <advance width="1969"/>
  <unicode hex="0057"/>
  <outline>
    <contour>
      <point x="1322" y="0" type="line"/>
      <point x="1171" y="0" type="line"/>
      <point x="1102" y="1219" type="line"/>
      <point x="472" y="0" type="line"/>
      <point x="321" y="0" type="line"/>
      <point x="261" y="1413" type="line"/>
      <point x="376" y="1413" type="line"/>
      <point x="430" y="119" type="line"/>
      <point x="1100" y="1413" type="line"/>
      <point x="1195" y="1413" type="line"/>
      <point x="1269" y="119" type="line"/>
      <point x="1919" y="1413" type="line"/>
      <point x="2035" y="1413" type="line"/>
    </contour>
  </outline>
</glyph>
<glyph name="X" format="2">
  <advance width="1245"/>
  <unicode hex="0058"/>
  <outline>
    <contour>
      <point x="1024" y="0" type="line"/>
      <point x="898" y="0" type="line"/>
      <point x="649" y="597" type="line"/>
      <point x="126" y="0" type="line"/>
      <point x="-12" y="0" type="line"/>
      <point x="617" y="707" type="line"/>
      <point x="319" y="1413" type="line"/>
      <point x="451" y="1413" type="line"/>
      <point x="691" y="806" type="line"/>
      <point x="1218" y="1413" type="line"/>
      <point x="1351" y="1413" type="line"/>
      <point x="726" y="708" type="line"/>
    </contour>
  </outline>
</glyph>
<glyph name="Y" format="2">
  <advance width="1322"/>
  <unicode hex="0059"/>
  <outline>
    <contour>
      <point x="602" y="0" type="line"/>
      <point x="494" y="0" type="line"/>
      <point x="622" y="553" type="line"/>
      <point x="299" y="1413" type="line"/>
      <point x="426" y="1413" type="line"/>
      <point x="700" y="677" type="line"/>
      <point x="1318" y="1413" type="line"/>
      <point x="1449" y="1413" type="line"/>
      <point x="731" y="554" type="line"/>
    </contour>
  </outline>
</glyph>
<glyph name="Z" format="2">
  <advance width="1294"/>
  <unicode hex="005A"/>
  <outline>
    <contour>
      <point x="1060" y="0" type="line"/>
      <point x="-5" y="0" type="line"/>
      <point x="14" y="99" type="line"/>
      <point x="1231" y="1321" type="line"/>
      <point x="343" y="1321" type="line"/>
      <point x="365" y="1413" type="line"/>
      <point x="1385" y="1413" type="line"/>
      <point x="1364" y="1308" type="line"/>
      <point x="154" y="105" type="line"/>
      <point x="1085" y="105" type="line"/>
    </contour>
  </outline>
</glyph>
<glyph name="bracketleft" format="2">
  <advance width="644"/>
  <unicode hex="005B"/>
  <outline>
    <contour>
      <point x="422" y="-65" type="line"/>
      <point x="93" y="-65" type="line"/>
      <point x="448" y="1476" type="line"/>
      <point x="777" y="1476" type="line"/>
      <point x="765" y="1419" type="line"/>
      <point x="529" y="1419" type="line"/>
      <point x="200" y="-6" type="line"/>
      <point x="436" y="-6" type="line"/>
    </contour>
  </outline>
</glyph>
<glyph name="asciicircum" format="2">
  <advance width="988"/>
  <unicode hex="005E"/>
  <outline>
    <contour>
      <point x="911" y="857" type="line"/>
      <point x="795" y="857" type="line"/>
      <point x="660" y="1208" type="line"/>
      <point x="362" y="857" type="line"/>
      <point x="241" y="857" type="line"/>
      <point x="697" y="1397" type="line"/>
    </contour>
  </outline>
</glyph>
<glyph name="underscore" format="2">
  <advance width="1246"/>
  <unicode hex="005F"/>
  <outline>
    <contour>
      <point x="862" y="-85" type="line"/>
      <point x="114" y="-85" type="line"/>
      <point x="133" y="-6" type="line"/>
      <point x="881" y="-6" type="line"/>
    </contour>
  </outline>
</glyph>
<glyph name="c" format="2">
  <advance width="965"/>
  <unicode hex="0063"/>
  <outline>
    <contour>
      <point x="414" y="-20" type="qcurve" smooth="yes"/>
      <point x="279" y="-20"/>
      <point x="124" y="120"/>
      <point x="91" y="289"/>
      <point x="91" y="345" type="qcurve" smooth="yes"/>
      <point x="91" y="417"/>
      <point x="108" y="497" type="qcurve" smooth="yes"/>
      <point x="138" y="641"/>
      <point x="303" y="900"/>
      <point x="441" y="972" type="qcurve"/>
      <point x="525" y="1014"/>
      <point x="628" y="1014" type="qcurve" smooth="yes"/>
      <point x="761" y="1014"/>
      <point x="920" y="877"/>
      <point x="946" y="769" type="qcurve"/>
      <point x="837" y="722" type="line"/>
      <point x="829" y="799"/>
      <point x="701" y="913"/>
      <point x="607" y="913" type="qcurve" smooth="yes"/>
      <point x="452" y="913"/>
      <point x="350" y="788" type="qcurve" smooth="yes"/>
      <point x="253" y="670"/>
      <point x="217" y="497" type="qcurve" smooth="yes"/>
      <point x="201" y="419"/>
      <point x="201" y="352" type="qcurve" smooth="yes"/>
      <point x="201" y="272"/>
      <point x="224" y="208" type="qcurve" smooth="yes"/>
      <point x="272" y="80"/>
      <point x="433" y="80" type="qcurve" smooth="yes"/>
      <point x="532" y="80"/>
      <point x="705" y="197"/>
      <point x="743" y="272" type="qcurve"/>
      <point x="822" y="230" type="line"/>
      <point x="750" y="107"/>
      <point x="537" y="-20"/>
    </contour>
  </outline>
</glyph>
<glyph name="e" format="2">
  <advance width="1029"/>
  <unicode hex="0065"/>
  <outline>
    <contour>
      <point x="428" y="-12" type="qcurve" smooth="yes"/>
      <point x="225" y="-12"/>
      <point x="140" y="133" type="qcurve" smooth="yes"/>
      <point x="90" y="218"/>
      <point x="90" y="337" type="qcurve" smooth="yes"/>
      <point x="90" y="409"/>
      <point x="108" y="493" type="qcurve" smooth="yes"/>
      <point x="153" y="707"/>
      <point x="287" y="852" type="qcurve" smooth="yes"/>
      <point x="435" y="1010"/>
      <point x="629" y="1010" type="qcurve" smooth="yes"/>
      <point x="852" y="1010"/>
      <point x="926" y="866" type="qcurve" smooth="yes"/>
      <point x="960" y="800"/>
      <point x="960" y="714" type="qcurve" smooth="yes"/>
      <point x="960" y="660"/>
      <point x="947" y="599" type="qcurve" smooth="yes"/>
      <point x="920" y="473"/>
      <point x="918" y="470" type="qcurve" smooth="yes"/>
      <point x="914" y="466"/>
      <point x="914" y="464" type="qcurve"/>
      <point x="216" y="464" type="line"/>
      <point x="210" y="439" type="line" smooth="yes"/>
      <point x="198" y="384"/>
      <point x="198" y="336" type="qcurve" smooth="yes"/>
      <point x="198" y="253"/>
      <point x="233" y="191" type="qcurve" smooth="yes"/>
      <point x="297" y="80"/>
      <point x="446" y="80" type="qcurve" smooth="yes"/>
      <point x="550" y="80"/>
      <point x="620" y="103" type="qcurve" smooth="yes"/>
      <point x="698" y="129"/>
      <point x="764" y="184" type="qcurve"/>
      <point x="824" y="131" type="line"/>
      <point x="723" y="52"/>
      <point x="638" y="22" type="qcurve"/>
      <point x="547" y="-12"/>
    </contour>
    <contour>
      <point x="834" y="562" type="line"/>
      <point x="841" y="581" type="line"/>
      <point x="864" y="650"/>
      <point x="864" y="707" type="qcurve" smooth="yes"/>
      <point x="864" y="767"/>
      <point x="838" y="813" type="qcurve"/>
      <point x="779" y="912"/>
      <point x="608" y="912" type="qcurve" smooth="yes"/>
      <point x="471" y="912"/>
      <point x="367" y="809" type="qcurve" smooth="yes"/>
      <point x="272" y="715"/>
      <point x="236" y="562" type="qcurve"/>
    </contour>
  </outline>
</glyph>
<glyph name="f" format="2">
  <advance width="677"/>
  <unicode hex="0066"/>
  <outline>
    <contour>
      <point x="163" y="0" type="line"/>
      <point x="57" y="0" type="line"/>
      <point x="268" y="914" type="line"/>
      <point x="85" y="914" type="line"/>
      <point x="104" y="995" type="line"/>
      <point x="286" y="995" type="line"/>
      <point x="330" y="1183" type="line" smooth="yes"/>
      <point x="357" y="1302"/>
      <point x="525" y="1434"/>
      <point x="637" y="1434" type="qcurve" smooth="yes"/>
      <point x="716" y="1434"/>
      <point x="782" y="1398" type="qcurve"/>
      <point x="744" y="1308" type="line"/>
      <point x="680" y="1341"/>
      <point x="621" y="1341" type="qcurve" smooth="yes"/>
      <point x="553" y="1341"/>
      <point x="456" y="1269"/>
      <point x="436" y="1181" type="qcurve" smooth="yes"/>
      <point x="394" y="997" type="line"/>
      <point x="700" y="997" type="line"/>
      <point x="680" y="914" type="line"/>
      <point x="379" y="914" type="line"/>
    </contour>
  </outline>
</glyph>
<glyph name="g" format="2">
  <advance width="1126"/>
  <unicode hex="0067"/>
  <outline>
    <contour>
      <point x="331" y="-433" type="qcurve" smooth="yes"/>
      <point x="210" y="-433"/>
      <point x="33" y="-334"/>
      <point x="-3" y="-240" type="qcurve"/>
      <point x="43" y="-215"/>
      <point x="88" y="-189" type="qcurve"/>
      <point x="146" y="-343"/>
      <point x="330" y="-343" type="qcurve" smooth="yes"/>
      <point x="473" y="-343"/>
      <point x="579" y="-245" type="qcurve" smooth="yes"/>
      <point x="681" y="-151"/>
      <point x="719" y="1" type="qcurve"/>
      <point x="727" y="37"/>
      <point x="736" y="72" type="qcurve" smooth="yes"/>
      <point x="745" y="106"/>
      <point x="757" y="153" type="qcurve"/>
      <point x="599" y="-23"/>
      <point x="404" y="-23" type="qcurve" smooth="yes"/>
      <point x="254" y="-23"/>
      <point x="97" y="165"/>
      <point x="97" y="327" type="qcurve" smooth="yes"/>
      <point x="97" y="492"/>
      <point x="163" y="650" type="qcurve" smooth="yes"/>
      <point x="231" y="812"/>
      <point x="347" y="911" type="qcurve" smooth="yes"/>
      <point x="473" y="1018"/>
      <point x="624" y="1018" type="qcurve" smooth="yes"/>
      <point x="829" y="1018"/>
      <point x="909" y="834" type="qcurve"/>
      <point x="948" y="997" type="line"/>
      <point x="1055" y="997" type="line"/>
      <point x="820" y="-8" type="line"/>
      <point x="774" y="-208"/>
      <point x="521" y="-433"/>
    </contour>
    <contour>
      <point x="426" y="65" type="qcurve" smooth="yes"/>
      <point x="572" y="65"/>
      <point x="796" y="304"/>
      <point x="844" y="508" type="qcurve"/>
      <point x="865" y="604"/>
      <point x="865" y="669" type="qcurve" smooth="yes"/>
      <point x="865" y="788"/>
      <point x="813" y="856" type="qcurve"/>
      <point x="756" y="927"/>
      <point x="647" y="927" type="qcurve" smooth="yes"/>
      <point x="488" y="927"/>
      <point x="372" y="795" type="qcurve" smooth="yes"/>
      <point x="266" y="673"/>
      <point x="225" y="487" type="qcurve"/>
      <point x="204" y="404"/>
      <point x="204" y="326" type="qcurve" smooth="yes"/>
      <point x="204" y="204"/>
      <point x="258" y="138" type="qcurve" smooth="yes"/>
      <point x="316" y="65"/>
    </contour>
  </outline>
</glyph>
<glyph name="h" format="2">
  <advance width="1117"/>
  <unicode hex="0068"/>
  <outline>
    <contour>
      <point x="838" y="0" type="line"/>
      <point x="731" y="0" type="line"/>
      <point x="766" y="149"/>
      <point x="837" y="453"/>
      <point x="871" y="606" type="qcurve"/>
      <point x="887" y="683"/>
      <point x="887" y="736" type="qcurve" smooth="yes"/>
      <point x="887" y="915"/>
      <point x="721" y="915" type="qcurve" smooth="yes"/>
      <point x="582" y="915"/>
      <point x="456" y="802" type="qcurve" smooth="yes"/>
      <point x="333" y="692"/>
      <point x="298" y="541" type="qcurve" smooth="yes"/>
      <point x="267" y="405"/>
      <point x="235" y="270" type="qcurve" smooth="yes"/>
      <point x="203" y="134"/>
      <point x="172" y="0" type="qcurve"/>
      <point x="71" y="0" type="line"/>
      <point x="397" y="1413" type="line"/>
      <point x="498" y="1413" type="line"/>
      <point x="357" y="809" type="line"/>
      <point x="431" y="907"/>
      <point x="637" y="1014"/>
      <point x="740" y="1014" type="qcurve" smooth="yes"/>
      <point x="868" y="1014"/>
      <point x="934" y="941" type="qcurve" smooth="yes"/>
      <point x="996" y="873"/>
      <point x="996" y="750" type="qcurve" smooth="yes"/>
      <point x="996" y="683"/>
      <point x="980" y="617" type="qcurve"/>
    </contour>
  </outline>
</glyph>
<glyph name="i" format="2">
  <advance width="477"/>
  <unicode hex="0069"/>
  <outline>
    <contour>
      <point x="476" y="1239" type="line"/>
      <point x="343" y="1239" type="line"/>
      <point x="384" y="1413" type="line"/>
      <point x="516" y="1413" type="line"/>
    </contour>
    <contour>
      <point x="178" y="0" type="line"/>
      <point x="69" y="0" type="line"/>
      <point x="299" y="997" type="line"/>
      <point x="408" y="997" type="line"/>
    </contour>
  </outline>
</glyph>
<glyph name="j" format="2">
  <advance width="476"/>
  <unicode hex="006A"/>
  <outline>
    <contour>
      <point x="479" y="1253" type="line"/>
      <point x="344" y="1253" type="line"/>
      <point x="383" y="1420" type="line"/>
      <point x="518" y="1420" type="line"/>
    </contour>
    <contour>
      <point x="-163" y="-440" type="qcurve" smooth="yes"/>
      <point x="-189" y="-440"/>
      <point x="-268" y="-422"/>
      <point x="-294" y="-411" type="qcurve"/>
      <point x="-255" y="-323" type="line"/>
      <point x="-240" y="-328"/>
      <point x="-163" y="-338"/>
      <point x="-134" y="-338" type="qcurve" smooth="yes"/>
      <point x="-70" y="-338"/>
      <point x="11" y="-258"/>
      <point x="24" y="-201" type="qcurve" smooth="yes"/>
      <point x="301" y="997" type="line"/>
      <point x="410" y="997" type="line"/>
      <point x="138" y="-180" type="line"/>
      <point x="121" y="-257"/>
      <point x="44" y="-374"/>
      <point x="-77" y="-440"/>
    </contour>
  </outline>
</glyph>
<glyph name="l" format="2">
  <advance width="497"/>
  <unicode hex="006C"/>
  <outline>
    <contour>
      <point x="155" y="-20" type="qcurve" smooth="yes"/>
      <point x="41" y="-20"/>
      <point x="41" y="66" type="qcurve" smooth="yes"/>
      <point x="41" y="79"/>
      <point x="43" y="93" type="qcurve" smooth="yes"/>
      <point x="49" y="127"/>
      <point x="345" y="1413" type="qcurve"/>
      <point x="452" y="1413" type="line"/>
      <point x="152" y="107" type="line"/>
      <point x="155" y="94"/>
      <point x="157" y="90" type="qcurve" smooth="yes"/>
      <point x="165" y="72"/>
      <point x="189" y="72" type="qcurve"/>
      <point x="204" y="73"/>
      <point x="218" y="73" type="qcurve" smooth="yes"/>
      <point x="231" y="73"/>
      <point x="283" y="81"/>
      <point x="292" y="84" type="qcurve"/>
      <point x="271" y="-1" type="line"/>
      <point x="220" y="-20"/>
    </contour>
  </outline>
</glyph>
<glyph name="o" format="2">
  <advance width="1118"/>
  <unicode hex="006F"/>
  <outline>
    <contour>
      <point x="101" y="495" type="qcurve" smooth="yes"/>
      <point x="132" y="639"/>
      <point x="301" y="873"/>
      <point x="537" y="1010"/>
      <point x="667" y="1010" type="qcurve" smooth="yes"/>
      <point x="798" y="1010"/>
      <point x="975" y="873"/>
      <point x="1029" y="694"/>
      <point x="1029" y="623" type="qcurve" smooth="yes"/>
      <point x="1029" y="562"/>
      <point x="1015" y="495" type="qcurve" smooth="yes"/>
      <point x="984" y="351"/>
      <point x="815" y="117"/>
      <point x="579" y="-20"/>
      <point x="449" y="-20" type="qcurve" smooth="yes"/>
      <point x="318" y="-20"/>
      <point x="141" y="117"/>
      <point x="87" y="296"/>
      <point x="87" y="367" type="qcurve" smooth="yes"/>
      <point x="87" y="428"/>
    </contour>
    <contour>
      <point x="902" y="495" type="qcurve" smooth="yes"/>
      <point x="921" y="571"/>
      <point x="921" y="635" type="qcurve" smooth="yes"/>
      <point x="921" y="724"/>
      <point x="884" y="789" type="qcurve" smooth="yes"/>
      <point x="816" y="908"/>
      <point x="660" y="908" type="qcurve" smooth="yes"/>
      <point x="514" y="908"/>
      <point x="381" y="788" type="qcurve" smooth="yes"/>
      <point x="260" y="678"/>
      <point x="214" y="495" type="qcurve" smooth="yes"/>
      <point x="196" y="421"/>
      <point x="196" y="360" type="qcurve" smooth="yes"/>
      <point x="196" y="268"/>
      <point x="236" y="202" type="qcurve" smooth="yes"/>
      <point x="310" y="82"/>
      <point x="456" y="82" type="qcurve" smooth="yes"/>
      <point x="612" y="82"/>
      <point x="738" y="201" type="qcurve" smooth="yes"/>
      <point x="856" y="312"/>
    </contour>
  </outline>
</glyph>
<glyph name="v" format="2">
  <advance width="943"/>
  <unicode hex="0076"/>
  <outline>
    <contour>
      <point x="407" y="0" type="line"/>
      <point x="307" y="0" type="line"/>
      <point x="179" y="997" type="line"/>
      <point x="292" y="997" type="line"/>
      <point x="384" y="133" type="line"/>
      <point x="881" y="997" type="line"/>
      <point x="995" y="997" type="line"/>
    </contour>
  </outline>
</glyph>
<glyph name="w" format="2">
  <advance width="1406"/>
  <unicode hex="0077"/>
  <outline>
    <contour>
      <point x="953" y="0" type="line"/>
      <point x="841" y="0" type="line"/>
      <point x="787" y="846" type="line"/>
      <point x="333" y="0" type="line"/>
      <point x="222" y="0" type="line"/>
      <point x="184" y="997" type="line"/>
      <point x="296" y="997" type="line"/>
      <point x="323" y="153" type="line"/>
      <point x="767" y="997" type="line"/>
      <point x="871" y="997" type="line"/>
      <point x="926" y="155" type="line"/>
      <point x="1338" y="997" type="line"/>
      <point x="1451" y="997" type="line"/>
    </contour>
  </outline>
</glyph>
<glyph name="y" format="2">
  <advance width="969"/>
  <unicode hex="0079"/>
  <outline>
    <contour>
      <point x="171" y="-432" type="line"/>
      <point x="62" y="-432" type="line"/>
      <point x="328" y="-7" type="line"/>
      <point x="178" y="997" type="line"/>
      <point x="294" y="997" type="line"/>
      <point x="402" y="121" type="line"/>
      <point x="906" y="997" type="line"/>
      <point x="1021" y="997" type="line"/>
    </contour>
  </outline>
</glyph>
<glyph name="bar" format="2">
  <advance width="633"/>
  <unicode hex="007C"/>
  <outline>
    <contour>
      <point x="120" y="-514" type="line"/>
      <point x="45" y="-514" type="line"/>
      <point x="518" y="1535" type="line"/>
      <point x="594" y="1535" type="line"/>
    </contour>
  </outline>
</glyph>
<glyph name="braceright" format="2">
  <advance width="600"/>
  <unicode hex="007D"/>
  <outline>
    <contour>
      <point x="-40" y="-107" type="qcurve" smooth="yes"/>
      <point x="-48" y="-107" type="line"/>
      <point x="-46" y="-55" type="line"/>
      <point x="-40" y="-57"/>
      <point x="-28" y="-57" type="qcurve" smooth="yes"/>
      <point x="47" y="-57"/>
      <point x="153" y="24"/>
      <point x="173" y="109" type="qcurve" smooth="yes"/>
      <point x="257" y="474" type="line"/>
      <point x="269" y="533"/>
      <point x="324" y="569" type="qcurve" smooth="yes"/>
      <point x="373" y="602"/>
      <point x="494" y="638" type="qcurve"/>
      <point x="404" y="675"/>
      <point x="334" y="748"/>
      <point x="334" y="800" type="qcurve" smooth="yes"/>
      <point x="334" y="824"/>
      <point x="400" y="1096" type="qcurve"/>
      <point x="460" y="1354"/>
      <point x="460" y="1369" type="qcurve" smooth="yes"/>
      <point x="460" y="1422"/>
      <point x="357" y="1422" type="qcurve" smooth="yes"/>
      <point x="316" y="1422"/>
      <point x="304" y="1420" type="qcurve"/>
      <point x="306" y="1474" type="line"/>
      <point x="325" y="1474" type="line"/>
      <point x="331" y="1473"/>
      <point x="390" y="1473" type="qcurve" smooth="yes"/>
      <point x="552" y="1473"/>
      <point x="552" y="1344" type="qcurve" smooth="yes"/>
      <point x="552" y="1312"/>
      <point x="543" y="1275" type="qcurve" smooth="yes"/>
      <point x="443" y="844" type="line" smooth="yes"/>
      <point x="437" y="820"/>
      <point x="437" y="798" type="qcurve" smooth="yes"/>
      <point x="437" y="710"/>
      <point x="533" y="687" type="qcurve"/>
      <point x="521" y="594" type="line"/>
      <point x="460" y="572"/>
      <point x="416" y="541" type="qcurve" smooth="yes"/>
      <point x="365" y="504"/>
      <point x="356" y="461" type="qcurve" smooth="yes"/>
      <point x="335" y="367"/>
      <point x="313" y="275" type="qcurve" smooth="yes"/>
      <point x="290" y="183"/>
      <point x="269" y="89" type="qcurve" smooth="yes"/>
      <point x="250" y="1"/>
      <point x="221" y="-41" type="qcurve"/>
      <point x="176" y="-75"/>
      <point x="144" y="-89" type="qcurve" smooth="yes"/>
      <point x="108" y="-105"/>
      <point x="58" y="-105" type="qcurve" smooth="yes"/>
      <point x="-21" y="-105"/>
      <point x="-27" y="-106" type="qcurve" smooth="yes"/>
      <point x="-33" y="-107"/>
    </contour>
  </outline>
</glyph>
<glyph name="sterling" format="2">
  <advance width="1266"/>
  <unicode hex="00A3"/>
  <outline>
    <contour>
      <point x="1067" y="0" type="line"/>
      <point x="63" y="0" type="line"/>
      <point x="67" y="15"/>
      <point x="71" y="35" type="qcurve" smooth="yes"/>
      <point x="75" y="54"/>
      <point x="80" y="73" type="qcurve"/>
      <point x="173" y="143"/>
      <point x="308" y="268"/>
      <point x="393" y="401"/>
      <point x="433" y="554"/>
      <point x="433" y="657" type="qcurve"/>
      <point x="214" y="657" type="line"/>
      <point x="236" y="749" type="line"/>
      <point x="433" y="749" type="line"/>
      <point x="422" y="812"/>
      <point x="422" y="875" type="qcurve" smooth="yes"/>
      <point x="422" y="978"/>
      <point x="483" y="1176"/>
      <point x="601" y="1331"/>
      <point x="771" y="1428"/>
      <point x="878" y="1428" type="qcurve" smooth="yes"/>
      <point x="1007" y="1428"/>
      <point x="1095" y="1348" type="qcurve" smooth="yes"/>
      <point x="1179" y="1270"/>
      <point x="1199" y="1152" type="qcurve"/>
      <point x="1176" y="1145"/>
      <point x="1151" y="1139" type="qcurve" smooth="yes"/>
      <point x="1126" y="1133"/>
      <point x="1103" y="1127" type="qcurve"/>
      <point x="1091" y="1216"/>
      <point x="965" y="1330"/>
      <point x="875" y="1330" type="qcurve" smooth="yes"/>
      <point x="711" y="1330"/>
      <point x="610" y="1189" type="qcurve" smooth="yes"/>
      <point x="514" y="1055"/>
      <point x="514" y="857" type="qcurve" smooth="yes"/>
      <point x="514" y="801"/>
      <point x="521" y="749" type="qcurve"/>
      <point x="995" y="749" type="line"/>
      <point x="973" y="657" type="line"/>
      <point x="524" y="657" type="line"/>
      <point x="524" y="556"/>
      <point x="494" y="400"/>
      <point x="427" y="268"/>
      <point x="318" y="155"/>
      <point x="232" y="94" type="qcurve"/>
      <point x="1091" y="98" type="line"/>
    </contour>
  </outline>
</glyph>
<glyph name="currency" format="2">
  <advance width="1117"/>
  <unicode hex="00A4"/>
  <outline>
    <contour>
      <point x="862" y="184" type="qcurve"/>
      <point x="782" y="284" type="line"/>
      <point x="648" y="194"/>
      <point x="502" y="194" type="qcurve" smooth="yes"/>
      <point x="343" y="194"/>
      <point x="248" y="292" type="qcurve"/>
      <point x="118" y="184" type="line"/>
      <point x="103" y="202"/>
      <point x="88" y="223" type="qcurve" smooth="yes"/>
      <point x="73" y="244"/>
      <point x="57" y="262" type="qcurve"/>
      <point x="191" y="368" type="line"/>
      <point x="146" y="449"/>
      <point x="146" y="545" type="qcurve" smooth="yes"/>
      <point x="146" y="638"/>
      <point x="227" y="824"/>
      <point x="308" y="900" type="qcurve"/>
      <point x="230" y="996" type="line"/>
      <point x="276" y="1036"/>
      <point x="320" y="1076" type="qcurve"/>
      <point x="397" y="974" type="line"/>
      <point x="536" y="1067"/>
      <point x="682" y="1067" type="qcurve" smooth="yes"/>
      <point x="832" y="1067"/>
      <point x="932" y="969" type="qcurve"/>
      <point x="1060" y="1074" type="line"/>
      <point x="1119" y="1001" type="line"/>
      <point x="993" y="896" type="line"/>
      <point x="1037" y="816"/>
      <point x="1037" y="721" type="qcurve" smooth="yes"/>
      <point x="1037" y="626"/>
      <point x="951" y="436"/>
      <point x="875" y="359" type="qcurve"/>
      <point x="952" y="263" type="line"/>
      <point x="930" y="244"/>
      <point x="907" y="223" type="qcurve" smooth="yes"/>
      <point x="884" y="202"/>
    </contour>
    <contour>
      <point x="492" y="297" type="qcurve" smooth="yes"/>
      <point x="566" y="297"/>
      <point x="722" y="365"/>
      <point x="851" y="480"/>
      <point x="934" y="633"/>
      <point x="934" y="719" type="qcurve" smooth="yes"/>
      <point x="934" y="822"/>
      <point x="868" y="890" type="qcurve"/>
      <point x="797" y="961"/>
      <point x="681" y="961" type="qcurve" smooth="yes"/>
      <point x="580" y="961"/>
      <point x="374" y="839"/>
      <point x="311" y="744" type="qcurve" smooth="yes"/>
      <point x="242" y="642"/>
      <point x="242" y="532" type="qcurve" smooth="yes"/>
      <point x="242" y="432"/>
      <point x="306" y="367" type="qcurve" smooth="yes"/>
      <point x="373" y="297"/>
    </contour>
  </outline>
</glyph>
<glyph name="yen" format="2">
  <advance width="1318"/>
  <unicode hex="00A5"/>
  <outline>
    <contour>
      <point x="601" y="0" type="line"/>
      <point x="490" y="0" type="line"/>
      <point x="567" y="340" type="line"/>
      <point x="267" y="340" type="line"/>
      <point x="285" y="423" type="line"/>
      <point x="586" y="423" type="line"/>
      <point x="616" y="549" type="line"/>
      <point x="316" y="549" type="line"/>
      <point x="335" y="631" type="line"/>
      <point x="597" y="631" type="line"/>
      <point x="299" y="1413" type="line"/>
      <point x="424" y="1413" type="line"/>
      <point x="703" y="694" type="line"/>
      <point x="1317" y="1413" type="line"/>
      <point x="1445" y="1413" type="line"/>
      <point x="788" y="633" type="line"/>
      <point x="1049" y="633" type="line"/>
      <point x="1030" y="549" type="line"/>
      <point x="727" y="549" type="line"/>
      <point x="697" y="423" type="line"/>
      <point x="1000" y="423" type="line"/>
      <point x="981" y="340" type="line"/>
      <point x="678" y="340" type="line"/>
    </contour>
  </outline>
</glyph>
<glyph name="brokenbar" format="2">
  <advance width="620"/>
  <unicode hex="00A6"/>
  <outline>
    <contour>
      <point x="396" y="734" type="line"/>
      <point x="333" y="734" type="line"/>
      <point x="504" y="1475" type="line"/>
      <point x="567" y="1475" type="line"/>
    </contour>
    <contour>
      <point x="155" y="-308" type="line"/>
      <point x="92" y="-308" type="line"/>
      <point x="259" y="416" type="line"/>
      <point x="322" y="416" type="line"/>
    </contour>
  </outline>
</glyph>
<glyph name="ordfeminine" format="2">
  <advance width="1055"/>
  <unicode hex="00AA"/>
  <outline>
    <contour>
      <point x="502" y="712" type="qcurve" smooth="yes"/>
      <point x="418" y="712"/>
      <point x="315" y="803"/>
      <point x="315" y="877" type="qcurve" smooth="yes"/>
      <point x="315" y="996"/>
      <point x="403" y="1061" type="qcurve" smooth="yes"/>
      <point x="481" y="1120"/>
      <point x="614" y="1120" type="qcurve"/>
      <point x="843" y="1126" type="line"/>
      <point x="856" y="1181"/>
      <point x="856" y="1225" type="qcurve" smooth="yes"/>
      <point x="856" y="1358"/>
      <point x="723" y="1358" type="qcurve" smooth="yes"/>
      <point x="663" y="1358"/>
      <point x="600" y="1323" type="qcurve"/>
      <point x="541" y="1292"/>
      <point x="509" y="1253" type="qcurve"/>
      <point x="438" y="1309" type="line"/>
      <point x="500" y="1371"/>
      <point x="637" y="1434"/>
      <point x="724" y="1434" type="qcurve" smooth="yes"/>
      <point x="831" y="1434"/>
      <point x="946" y="1327"/>
      <point x="946" y="1234" type="qcurve" smooth="yes"/>
      <point x="946" y="1191"/>
      <point x="936" y="1151" type="qcurve"/>
      <point x="837" y="726" type="line"/>
      <point x="760" y="726" type="line"/>
      <point x="778" y="811"/>
      <point x="788" y="858" type="qcurve"/>
      <point x="714" y="774"/>
      <point x="590" y="712"/>
    </contour>
    <contour>
      <point x="526" y="792" type="qcurve" smooth="yes"/>
      <point x="619" y="792"/>
      <point x="802" y="947"/>
      <point x="825" y="1049" type="qcurve"/>
      <point x="769" y="1047"/>
      <point x="718" y="1047" type="qcurve"/>
      <point x="667" y="1046"/>
      <point x="615" y="1044" type="qcurve"/>
      <point x="545" y="1044"/>
      <point x="432" y="965"/>
      <point x="420" y="902" type="qcurve"/>
      <point x="418" y="897"/>
      <point x="418" y="882" type="qcurve" smooth="yes"/>
      <point x="418" y="840"/>
      <point x="483" y="792"/>
    </contour>
  </outline>
</glyph>
<glyph name="guillemotleft" format="2">
  <advance width="984"/>
  <unicode hex="00AB"/>
  <outline>
    <contour>
      <point x="368" y="203" type="line"/>
      <point x="98" y="511" type="line"/>
      <point x="507" y="817" type="line"/>
      <point x="480" y="685" type="line"/>
      <point x="237" y="512" type="line"/>
      <point x="395" y="337" type="line"/>
    </contour>
    <contour>
      <point x="734" y="202" type="line"/>
      <point x="463" y="511" type="line"/>
      <point x="874" y="817" type="line"/>
      <point x="846" y="685" type="line"/>
      <point x="601" y="512" type="line"/>
      <point x="763" y="337" type="line"/>
    </contour>
  </outline>
</glyph>
<glyph name="degree" format="2">
  <advance width="1037"/>
  <unicode hex="00B0"/>
  <outline>
    <contour>
      <point x="519" y="847" type="qcurve" smooth="yes"/>
      <point x="395" y="847"/>
      <point x="223" y="1019"/>
      <point x="223" y="1143" type="qcurve" smooth="yes"/>
      <point x="223" y="1263"/>
      <point x="306" y="1348" type="qcurve" smooth="yes"/>
      <point x="393" y="1439"/>
      <point x="519" y="1439" type="qcurve" smooth="yes"/>
      <point x="638" y="1439"/>
      <point x="813" y="1263"/>
      <point x="813" y="1143" type="qcurve" smooth="yes"/>
      <point x="813" y="1021"/>
      <point x="640" y="847"/>
    </contour>
    <contour>
      <point x="519" y="916" type="qcurve" smooth="yes"/>
      <point x="555" y="916"/>
      <point x="634" y="946"/>
      <point x="700" y="1002"/>
      <point x="743" y="1087"/>
      <point x="743" y="1143" type="qcurve" smooth="yes"/>
      <point x="743" y="1232"/>
      <point x="610" y="1370"/>
      <point x="519" y="1370" type="qcurve" smooth="yes"/>
      <point x="428" y="1370"/>
      <point x="292" y="1236"/>
      <point x="292" y="1143" type="qcurve" smooth="yes"/>
      <point x="292" y="1050"/>
      <point x="422" y="916"/>
    </contour>
  </outline>
</glyph>
<glyph name="plusminus" format="2">
  <advance width="1330"/>
  <unicode hex="00B1"/>
  <outline>
    <contour>
      <point x="705" y="107" type="line"/>
      <point x="625" y="107" type="line"/>
      <point x="625" y="587" type="line"/>
      <point x="167" y="587" type="line"/>
      <point x="167" y="666" type="line"/>
      <point x="625" y="666" type="line"/>
      <point x="625" y="1142" type="line"/>
      <point x="705" y="1142" type="line"/>
      <point x="705" y="666" type="line"/>
      <point x="1163" y="666" type="line"/>
      <point x="1163" y="587" type="line"/>
      <point x="705" y="587" type="line"/>
    </contour>
    <contour>
      <point x="1163" y="-85" type="line"/>
      <point x="167" y="-85" type="line"/>
      <point x="167" y="-6" type="line"/>
      <point x="1163" y="-6" type="line"/>
    </contour>
  </outline>
</glyph>
<glyph name="twosuperior" format="2">
  <advance width="827"/>
  <unicode hex="00B2"/>
  <outline>
    <contour>
      <point x="589" y="490" type="line"/>
      <point x="-42" y="490" type="line"/>
      <point x="-23" y="570" type="line"/>
      <point x="125" y="653"/>
      <point x="277" y="764"/>
      <point x="340" y="821" type="qcurve"/>
      <point x="456" y="920"/>
      <point x="600" y="1089"/>
      <point x="623" y="1187" type="qcurve" smooth="yes"/>
      <point x="631" y="1222"/>
      <point x="631" y="1250" type="qcurve" smooth="yes"/>
      <point x="631" y="1275"/>
      <point x="612" y="1339"/>
      <point x="535" y="1383"/>
      <point x="485" y="1383" type="qcurve" smooth="yes"/>
      <point x="397" y="1383"/>
      <point x="260" y="1257"/>
      <point x="232" y="1144" type="qcurve"/>
      <point x="162" y="1153" type="line"/>
      <point x="189" y="1268"/>
      <point x="365" y="1453"/>
      <point x="496" y="1453" type="qcurve" smooth="yes"/>
      <point x="621" y="1453"/>
      <point x="713" y="1333"/>
      <point x="713" y="1263" type="qcurve" smooth="yes"/>
      <point x="713" y="1227"/>
      <point x="704" y="1186" type="qcurve" smooth="yes"/>
      <point x="678" y="1075"/>
      <point x="520" y="885"/>
      <point x="379" y="771" type="qcurve"/>
      <point x="271" y="682"/>
      <point x="150" y="601"/>
      <point x="83" y="565" type="qcurve" smooth="yes"/>
      <point x="73" y="560"/>
      <point x="65" y="554" type="qcurve"/>
      <point x="604" y="554" type="line"/>
    </contour>
  </outline>
</glyph>
<glyph name="mu" format="2">
  <advance width="1315"/>
  <unicode hex="00B5"/>
  <outline>
    <contour>
      <point x="204" y="-267" type="qcurve"/>
      <point x="102" y="-267" type="line"/>
      <point x="393" y="997" type="line"/>
      <point x="515" y="997" type="line"/>
      <point x="376" y="390" type="line"/>
      <point x="358" y="322"/>
      <point x="358" y="257" type="qcurve" smooth="yes"/>
      <point x="358" y="83"/>
      <point x="518" y="83" type="qcurve" smooth="yes"/>
      <point x="582" y="83"/>
      <point x="712" y="140"/>
      <point x="824" y="234"/>
      <point x="907" y="358"/>
      <point x="922" y="425" type="qcurve"/>
      <point x="957" y="570"/>
      <point x="1022" y="855"/>
      <point x="1054" y="997" type="qcurve"/>
      <point x="1178" y="997" type="line"/>
      <point x="948" y="0" type="line"/>
      <point x="826" y="0" type="line"/>
      <point x="875" y="208" type="line"/>
      <point x="818" y="110"/>
      <point x="717" y="46" type="qcurve" smooth="yes"/>
      <point x="610" y="-23"/>
      <point x="501" y="-23" type="qcurve" smooth="yes"/>
      <point x="384" y="-23"/>
      <point x="302" y="42" type="qcurve"/>
      <point x="245" y="-144"/>
    </contour>
  </outline>
</glyph>
<glyph name="periodcentered" format="2">
  <advance width="667"/>
  <unicode hex="00B7"/>
  <outline>
    <contour>
      <point x="395" y="721" type="qcurve" smooth="yes"/>
      <point x="353" y="721"/>
      <point x="298" y="773"/>
      <point x="298" y="814" type="qcurve" smooth="yes"/>
      <point x="298" y="869"/>
      <point x="372" y="946"/>
      <point x="427" y="946" type="qcurve" smooth="yes"/>
      <point x="470" y="946"/>
      <point x="525" y="895"/>
      <point x="525" y="853" type="qcurve" smooth="yes"/>
      <point x="525" y="803"/>
      <point x="448" y="721"/>
    </contour>
  </outline>
</glyph>
<glyph name="ordmasculine" format="2">
  <advance width="997"/>
  <unicode hex="00BA"/>
  <outline>
    <contour>
      <point x="559" y="714" type="qcurve" smooth="yes"/>
      <point x="434" y="714"/>
      <point x="293" y="867"/>
      <point x="293" y="990" type="qcurve" smooth="yes"/>
      <point x="293" y="1075"/>
      <point x="358" y="1235"/>
      <point x="471" y="1359"/>
      <point x="622" y="1434"/>
      <point x="705" y="1434" type="qcurve" smooth="yes"/>
      <point x="823" y="1434"/>
      <point x="969" y="1283"/>
      <point x="969" y="1160" type="qcurve" smooth="yes"/>
      <point x="969" y="1069"/>
      <point x="901" y="908"/>
      <point x="787" y="786"/>
      <point x="638" y="714"/>
    </contour>
    <contour>
      <point x="560" y="803" type="qcurve" smooth="yes"/>
      <point x="669" y="803"/>
      <point x="750" y="885" type="qcurve" smooth="yes"/>
      <point x="826" y="962"/>
      <point x="853" y="1085" type="qcurve" smooth="yes"/>
      <point x="864" y="1138"/>
      <point x="864" y="1178" type="qcurve" smooth="yes"/>
      <point x="864" y="1253"/>
      <point x="789" y="1347"/>
      <point x="706" y="1347" type="qcurve" smooth="yes"/>
      <point x="634" y="1347"/>
      <point x="519" y="1279"/>
      <point x="439" y="1171"/>
      <point x="397" y="1036"/>
      <point x="397" y="969" type="qcurve" smooth="yes"/>
      <point x="397" y="893"/>
      <point x="475" y="803"/>
    </contour>
  </outline>
</glyph>
<glyph name="questiondown" format="2">
  <advance width="1049"/>
  <unicode hex="00BF"/>
  <outline>
    <contour>
      <point x="686" y="838" type="line"/>
      <point x="524" y="838" type="line"/>
      <point x="562" y="997" type="line"/>
      <point x="724" y="997" type="line"/>
    </contour>
    <contour>
      <point x="332" y="-436" type="qcurve" smooth="yes"/>
      <point x="179" y="-436"/>
      <point x="-5" y="-295"/>
      <point x="-5" y="-168" type="qcurve" smooth="yes"/>
      <point x="-5" y="-77"/>
      <point x="80" y="95"/>
      <point x="149" y="141" type="qcurve" smooth="yes"/>
      <point x="168" y="153"/>
      <point x="198" y="169" type="qcurve" smooth="yes"/>
      <point x="336" y="242"/>
      <point x="365" y="261" type="qcurve"/>
      <point x="434" y="309"/>
      <point x="453" y="387" type="qcurve" smooth="yes"/>
      <point x="512" y="639" type="line"/>
      <point x="613" y="639" type="line"/>
      <point x="600" y="576"/>
      <point x="586" y="513" type="qcurve" smooth="yes"/>
      <point x="571" y="449"/>
      <point x="557" y="383" type="qcurve" smooth="yes"/>
      <point x="539" y="297"/>
      <point x="486" y="242" type="qcurve" smooth="yes"/>
      <point x="447" y="202"/>
      <point x="371" y="164" type="qcurve"/>
      <point x="269" y="115"/>
      <point x="236" y="94" type="qcurve"/>
      <point x="182" y="57"/>
      <point x="147" y="-2" type="qcurve" smooth="yes"/>
      <point x="101" y="-78"/>
      <point x="101" y="-166" type="qcurve" smooth="yes"/>
      <point x="101" y="-250"/>
      <point x="224" y="-337"/>
      <point x="328" y="-337" type="qcurve" smooth="yes"/>
      <point x="448" y="-337"/>
      <point x="548" y="-267" type="qcurve" smooth="yes"/>
      <point x="652" y="-194"/>
      <point x="685" y="-73" type="qcurve"/>
      <point x="710" y="-76"/>
      <point x="738" y="-80" type="qcurve" smooth="yes"/>
      <point x="765" y="-83"/>
      <point x="791" y="-85" type="qcurve"/>
      <point x="752" y="-244"/>
      <point x="497" y="-436"/>
    </contour>
  </outline>
</glyph>
<glyph name="AE" format="2">
  <advance width="1821"/>
  <unicode hex="00C6"/>
  <outline>
    <contour>
      <point x="1583" y="0" type="line"/>
      <point x="714" y="0" type="line"/>
      <point x="784" y="308" type="line"/>
      <point x="285" y="308" type="line"/>
      <point x="102" y="0" type="line"/>
      <point x="-21" y="0" type="line"/>
      <point x="818" y="1413" type="line"/>
      <point x="1909" y="1413" type="line"/>
      <point x="1888" y="1324" type="line"/>
      <point x="1138" y="1324" type="line"/>
      <point x="1007" y="755" type="line"/>
      <point x="1668" y="755" type="line"/>
      <point x="1646" y="658" type="line"/>
      <point x="983" y="658" type="line"/>
      <point x="854" y="97" type="line"/>
      <point x="1605" y="97" type="line"/>
    </contour>
    <contour>
      <point x="812" y="421" type="line"/>
      <point x="1020" y="1324" type="line"/>
      <point x="877" y="1324" type="line"/>
      <point x="343" y="421" type="line"/>
    </contour>
  </outline>
</glyph>
<glyph name="multiply" format="2">
  <advance width="1126"/>
  <unicode hex="00D7"/>
  <outline>
    <contour>
      <point x="903" y="229" type="line"/>
      <point x="566" y="569" type="line"/>
      <point x="241" y="243" type="line"/>
      <point x="182" y="299" type="line"/>
      <point x="509" y="625" type="line"/>
      <point x="171" y="961" type="line"/>
      <point x="226" y="1019" type="line"/>
      <point x="566" y="680" type="line"/>
      <point x="889" y="1005" type="line"/>
      <point x="946" y="949" type="line"/>
      <point x="622" y="625" type="line"/>
      <point x="959" y="287" type="line"/>
    </contour>
  </outline>
</glyph>
<glyph name="ae" format="2">
  <advance width="1666"/>
  <unicode hex="00E6"/>
  <outline>
    <contour>
      <point x="748" y="275" type="line"/>
      <point x="689" y="151"/>
      <point x="576" y="67" type="qcurve" smooth="yes"/>
      <point x="458" y="-20"/>
      <point x="285" y="-20" type="qcurve" smooth="yes"/>
      <point x="156" y="-20"/>
      <point x="35" y="117"/>
      <point x="35" y="199" type="qcurve" smooth="yes"/>
      <point x="35" y="229"/>
      <point x="42" y="263" type="qcurve" smooth="yes"/>
      <point x="105" y="557"/>
      <point x="453" y="557" type="qcurve" smooth="yes"/>
      <point x="785" y="557" type="line"/>
      <point x="802" y="638"/>
      <point x="802" y="701" type="qcurve" smooth="yes"/>
      <point x="802" y="925"/>
      <point x="587" y="925" type="qcurve" smooth="yes"/>
      <point x="495" y="925"/>
      <point x="330" y="836"/>
      <point x="278" y="781" type="qcurve"/>
      <point x="203" y="833" type="line"/>
      <point x="296" y="926"/>
      <point x="390" y="969" type="qcurve" smooth="yes"/>
      <point x="491" y="1014"/>
      <point x="613" y="1014" type="qcurve" smooth="yes"/>
      <point x="863" y="1014"/>
      <point x="894" y="807" type="qcurve"/>
      <point x="893" y="804" type="line"/>
      <point x="913" y="829"/>
      <point x="933" y="852" type="qcurve"/>
      <point x="1081" y="1010"/>
      <point x="1275" y="1010" type="qcurve" smooth="yes"/>
      <point x="1498" y="1010"/>
      <point x="1572" y="866" type="qcurve" smooth="yes"/>
      <point x="1607" y="799"/>
      <point x="1607" y="712" type="qcurve" smooth="yes"/>
      <point x="1607" y="659"/>
      <point x="1594" y="599" type="qcurve" smooth="yes"/>
      <point x="1567" y="473"/>
      <point x="1564" y="470" type="qcurve" smooth="yes"/>
      <point x="1560" y="466"/>
      <point x="1560" y="464" type="qcurve"/>
      <point x="862" y="464" type="line"/>
      <point x="857" y="439" type="line" smooth="yes"/>
      <point x="845" y="383"/>
      <point x="845" y="335" type="qcurve" smooth="yes"/>
      <point x="845" y="253"/>
      <point x="879" y="191" type="qcurve"/>
      <point x="943" y="80"/>
      <point x="1092" y="80" type="qcurve" smooth="yes"/>
      <point x="1196" y="80"/>
      <point x="1267" y="103" type="qcurve" smooth="yes"/>
      <point x="1345" y="129"/>
      <point x="1410" y="184" type="qcurve"/>
      <point x="1470" y="131" type="line"/>
      <point x="1369" y="52"/>
      <point x="1284" y="22" type="qcurve"/>
      <point x="1194" y="-12"/>
      <point x="1075" y="-12" type="qcurve" smooth="yes"/>
      <point x="872" y="-12"/>
      <point x="787" y="133" type="qcurve" smooth="yes"/>
      <point x="759" y="179"/>
      <point x="752" y="238" type="qcurve" smooth="yes"/>
    </contour>
    <contour>
      <point x="1481" y="562" type="line"/>
      <point x="1485" y="582" type="line" smooth="yes"/>
      <point x="1496" y="635"/>
      <point x="1496" y="680" type="qcurve" smooth="yes"/>
      <point x="1496" y="757"/>
      <point x="1464" y="813" type="qcurve"/>
      <point x="1405" y="912"/>
      <point x="1254" y="912" type="qcurve" smooth="yes"/>
      <point x="1117" y="912"/>
      <point x="1013" y="809" type="qcurve" smooth="yes"/>
      <point x="918" y="715"/>
      <point x="883" y="562" type="qcurve"/>
    </contour>
    <contour>
      <point x="344" y="73" type="qcurve" smooth="yes"/>
      <point x="413" y="73"/>
      <point x="480" y="102" type="qcurve" smooth="yes"/>
      <point x="621" y="163"/>
      <point x="704" y="297" type="qcurve"/>
      <point x="744" y="359"/>
      <point x="759" y="430" type="qcurve" smooth="yes"/>
      <point x="760" y="437"/>
      <point x="770" y="464" type="qcurve"/>
      <point x="419" y="464" type="line" smooth="yes"/>
      <point x="317" y="464"/>
      <point x="242" y="407" type="qcurve" smooth="yes"/>
      <point x="175" y="357"/>
      <point x="155" y="263" type="qcurve" smooth="yes"/>
      <point x="151" y="245"/>
      <point x="151" y="229" type="qcurve" smooth="yes"/>
      <point x="151" y="177"/>
      <point x="187" y="135" type="qcurve" smooth="yes"/>
      <point x="241" y="73"/>
    </contour>
  </outline>
</glyph>
<glyph name="ccedilla" format="2">
  <advance width="975"/>
  <unicode hex="00E7"/>
  <outline>
    <contour>
      <point x="285" y="-499" type="qcurve" smooth="yes"/>
      <point x="220" y="-499"/>
      <point x="138" y="-425"/>
      <point x="130" y="-376" type="qcurve"/>
      <point x="217" y="-342" type="line"/>
      <point x="217" y="-347" type="line" smooth="yes"/>
      <point x="217" y="-373"/>
      <point x="252" y="-417"/>
      <point x="290" y="-417" type="qcurve" smooth="yes"/>
      <point x="345" y="-417"/>
      <point x="439" y="-330"/>
      <point x="439" y="-278" type="qcurve" smooth="yes"/>
      <point x="439" y="-232"/>
      <point x="359" y="-175"/>
      <point x="277" y="-175" type="qcurve" smooth="yes"/>
      <point x="247" y="-175" type="line"/>
      <point x="357" y="-16" type="line"/>
      <point x="228" y="5"/>
      <point x="161" y="102" type="qcurve"/>
      <point x="95" y="195"/>
      <point x="95" y="343" type="qcurve" smooth="yes"/>
      <point x="95" y="505"/>
      <point x="235" y="818"/>
      <point x="354" y="913" type="qcurve"/>
      <point x="483" y="1014"/>
      <point x="633" y="1014" type="qcurve" smooth="yes"/>
      <point x="761" y="1014"/>
      <point x="845" y="946" type="qcurve" smooth="yes"/>
      <point x="926" y="879"/>
      <point x="954" y="763" type="qcurve"/>
      <point x="929" y="754"/>
      <point x="902" y="746" type="qcurve" smooth="yes"/>
      <point x="875" y="737"/>
      <point x="850" y="728" type="qcurve"/>
      <point x="848" y="820"/>
      <point x="731" y="933"/>
      <point x="635" y="933" type="qcurve" smooth="yes"/>
      <point x="481" y="933"/>
      <point x="363" y="790" type="qcurve"/>
      <point x="258" y="665"/>
      <point x="218" y="486" type="qcurve"/>
      <point x="199" y="392"/>
      <point x="199" y="324" type="qcurve" smooth="yes"/>
      <point x="199" y="202"/>
      <point x="247" y="135" type="qcurve" smooth="yes"/>
      <point x="302" y="60"/>
      <point x="413" y="60" type="qcurve" smooth="yes"/>
      <point x="515" y="60"/>
      <point x="697" y="181"/>
      <point x="742" y="277" type="qcurve"/>
      <point x="820" y="224" type="line"/>
      <point x="690" y="7"/>
      <point x="461" y="-18" type="qcurve"/>
      <point x="368" y="-129" type="line"/>
      <point x="448" y="-129"/>
      <point x="525" y="-206"/>
      <point x="525" y="-266" type="qcurve" smooth="yes"/>
      <point x="525" y="-354"/>
      <point x="456" y="-424" type="qcurve" smooth="yes"/>
      <point x="382" y="-499"/>
    </contour>
  </outline>
</glyph>
<glyph name="eth" format="2">
  <advance width="1161"/>
  <unicode hex="00F0"/>
  <outline>
    <contour>
      <point x="458" y="-16" type="qcurve" smooth="yes"/>
      <point x="289" y="-16"/>
      <point x="191" y="94" type="qcurve" smooth="yes"/>
      <point x="97" y="200"/>
      <point x="97" y="377" type="qcurve" smooth="yes"/>
      <point x="97" y="540"/>
      <point x="248" y="837"/>
      <point x="375" y="926" type="qcurve"/>
      <point x="509" y="1018"/>
      <point x="660" y="1018" type="qcurve" smooth="yes"/>
      <point x="754" y="1018"/>
      <point x="832" y="984" type="qcurve" smooth="yes"/>
      <point x="904" y="953"/>
      <point x="931" y="903" type="qcurve"/>
      <point x="933" y="924"/>
      <point x="934" y="930" type="qcurve" smooth="yes"/>
      <point x="935" y="936"/>
      <point x="936" y="947"/>
      <point x="936" y="953" type="qcurve" smooth="yes"/>
      <point x="936" y="1132"/>
      <point x="758" y="1289" type="qcurve"/>
      <point x="629" y="1146" type="line"/>
      <point x="555" y="1199" type="line"/>
      <point x="686" y="1347" type="line"/>
      <point x="595" y="1406"/>
      <point x="529" y="1436" type="qcurve"/>
      <point x="540" y="1450"/>
      <point x="554" y="1464" type="qcurve" smooth="yes"/>
      <point x="582" y="1494" type="line" smooth="yes"/>
      <point x="591" y="1504"/>
      <point x="599" y="1513" type="qcurve"/>
      <point x="698" y="1468"/>
      <point x="758" y="1429" type="qcurve"/>
      <point x="842" y="1523" type="line"/>
      <point x="919" y="1470" type="line"/>
      <point x="834" y="1375" type="line"/>
      <point x="955" y="1275"/>
      <point x="1073" y="1015"/>
      <point x="1073" y="838" type="qcurve" smooth="yes"/>
      <point x="1073" y="510"/>
      <point x="941" y="285" type="qcurve" smooth="yes"/>
      <point x="855" y="139"/>
      <point x="714" y="55" type="qcurve" smooth="yes"/>
      <point x="597" y="-16"/>
    </contour>
    <contour>
      <point x="466" y="87" type="qcurve" smooth="yes"/>
      <point x="626" y="87"/>
      <point x="749" y="217" type="qcurve" smooth="yes"/>
      <point x="864" y="338"/>
      <point x="908" y="525" type="qcurve"/>
      <point x="927" y="598"/>
      <point x="927" y="667" type="qcurve" smooth="yes"/>
      <point x="927" y="774"/>
      <point x="867" y="846" type="qcurve" smooth="yes"/>
      <point x="802" y="923"/>
      <point x="683" y="923" type="qcurve" smooth="yes"/>
      <point x="552" y="923"/>
      <point x="446" y="847" type="qcurve" smooth="yes"/>
      <point x="340" y="770"/>
      <point x="222" y="503"/>
      <point x="222" y="367" type="qcurve" smooth="yes"/>
      <point x="222" y="238"/>
      <point x="280" y="166" type="qcurve" smooth="yes"/>
      <point x="343" y="87"/>
    </contour>
  </outline>
</glyph>
<glyph name="divide" format="2">
  <advance width="850"/>
  <unicode hex="00F7"/>
  <outline>
    <contour>
      <point x="499" y="935" type="line"/>
      <point x="338" y="935" type="line"/>
      <point x="338" y="1095" type="line"/>
      <point x="499" y="1095" type="line"/>
    </contour>
    <contour>
      <point x="686" y="588" type="line"/>
      <point x="152" y="588" type="line"/>
      <point x="152" y="667" type="line"/>
      <point x="686" y="667" type="line"/>
    </contour>
    <contour>
      <point x="499" y="142" type="line"/>
      <point x="338" y="142" type="line"/>
      <point x="338" y="301" type="line"/>
      <point x="499" y="301" type="line"/>
    </contour>
  </outline>
</glyph>
<glyph name="thorn" format="2">
  <advance width="1145"/>
  <unicode hex="00FE"/>
  <outline>
    <contour>
      <point x="83" y="-440" type="qcurve"/>
      <point x="-20" y="-440" type="line"/>
      <point x="408" y="1413" type="line"/>
      <point x="511" y="1413" type="line"/>
      <point x="458" y="1182"/>
      <point x="371" y="814" type="qcurve"/>
      <point x="522" y="1018"/>
      <point x="756" y="1018" type="qcurve" smooth="yes"/>
      <point x="892" y="1018"/>
      <point x="968" y="924" type="qcurve"/>
      <point x="1039" y="834"/>
      <point x="1039" y="676" type="qcurve" smooth="yes"/>
      <point x="1039" y="496"/>
      <point x="898" y="176"/>
      <point x="785" y="81" type="qcurve"/>
      <point x="668" y="-20"/>
      <point x="537" y="-20" type="qcurve" smooth="yes"/>
      <point x="294" y="-20"/>
      <point x="235" y="194" type="qcurve"/>
      <point x="194" y="26"/>
      <point x="157" y="-130" type="qcurve" smooth="yes"/>
      <point x="120" y="-285"/>
    </contour>
    <contour>
      <point x="496" y="62" type="qcurve" smooth="yes"/>
      <point x="643" y="62"/>
      <point x="873" y="301"/>
      <point x="921" y="507" type="qcurve"/>
      <point x="941" y="607"/>
      <point x="941" y="670" type="qcurve" smooth="yes"/>
      <point x="941" y="793"/>
      <point x="886" y="863" type="qcurve" smooth="yes"/>
      <point x="828" y="936"/>
      <point x="716" y="936" type="qcurve" smooth="yes"/>
      <point x="632" y="936"/>
      <point x="489" y="860"/>
      <point x="379" y="735"/>
      <point x="302" y="573"/>
      <point x="265" y="400"/>
      <point x="265" y="331" type="qcurve" smooth="yes"/>
      <point x="265" y="204"/>
      <point x="320" y="137" type="qcurve" smooth="yes"/>
      <point x="380" y="62"/>
    </contour>
  </outline>
</glyph>
<glyph name="aogonek" format="2">
  <advance width="1027"/>
  <unicode hex="0105"/>
  <outline>
    <contour>
      <point x="528" y="-453" type="qcurve" smooth="yes"/>
      <point x="453" y="-453"/>
      <point x="362" y="-369"/>
      <point x="362" y="-294" type="qcurve" smooth="yes"/>
      <point x="362" y="-184"/>
      <point x="445" y="-109" type="qcurve" smooth="yes"/>
      <point x="515" y="-46"/>
      <point x="649" y="-4" type="qcurve"/>
      <point x="715" y="-5" type="line"/>
      <point x="749" y="147" type="line"/>
      <point x="672" y="62"/>
      <point x="504" y="-20"/>
      <point x="395" y="-20" type="qcurve" smooth="yes"/>
      <point x="252" y="-20"/>
      <point x="174" y="76" type="qcurve" smooth="yes"/>
      <point x="98" y="169"/>
      <point x="98" y="332" type="qcurve" smooth="yes"/>
      <point x="98" y="502"/>
      <point x="239" y="821"/>
      <point x="353" y="916" type="qcurve" smooth="yes"/>
      <point x="476" y="1018"/>
      <point x="613" y="1018" type="qcurve" smooth="yes"/>
      <point x="829" y="1018"/>
      <point x="909" y="836" type="qcurve"/>
      <point x="924" y="903"/>
      <point x="948" y="997" type="qcurve"/>
      <point x="1052" y="997" type="line"/>
      <point x="822" y="0" type="line"/>
      <point x="745" y="0" type="line"/>
      <point x="745" y="-2"/>
      <point x="732" y="-7" type="qcurve" smooth="yes"/>
      <point x="719" y="-12"/>
      <point x="690" y="-25" type="qcurve"/>
      <point x="677" y="-24" type="line"/>
      <point x="598" y="-57"/>
      <point x="530" y="-130" type="qcurve" smooth="yes"/>
      <point x="452" y="-214"/>
      <point x="452" y="-284" type="qcurve" smooth="yes"/>
      <point x="452" y="-317"/>
      <point x="484" y="-359"/>
      <point x="515" y="-359" type="qcurve" smooth="yes"/>
      <point x="605" y="-359"/>
      <point x="669" y="-289" type="qcurve"/>
      <point x="739" y="-350" type="line"/>
      <point x="706" y="-385"/>
      <point x="670" y="-410" type="qcurve" smooth="yes"/>
      <point x="609" y="-453"/>
    </contour>
    <contour>
      <point x="427" y="74" type="qcurve" smooth="yes"/>
      <point x="577" y="74"/>
      <point x="798" y="311"/>
      <point x="844" y="510" type="qcurve" smooth="yes"/>
      <point x="864" y="597"/>
      <point x="864" y="666" type="qcurve" smooth="yes"/>
      <point x="864" y="784"/>
      <point x="810" y="850" type="qcurve" smooth="yes"/>
      <point x="752" y="920"/>
      <point x="642" y="920" type="qcurve" smooth="yes"/>
      <point x="484" y="920"/>
      <point x="370" y="791" type="qcurve" smooth="yes"/>
      <point x="265" y="672"/>
      <point x="225" y="488" type="qcurve"/>
      <point x="205" y="415"/>
      <point x="205" y="333" type="qcurve" smooth="yes"/>
      <point x="205" y="211"/>
      <point x="258" y="146" type="qcurve" smooth="yes"/>
      <point x="315" y="74"/>
    </contour>
  </outline>
</glyph>
<glyph name="dcaron" format="2">
  <advance width="1217"/>
  <unicode hex="010F"/>
  <outline>
    <contour>
      <point x="394" y="-20" type="qcurve" smooth="yes"/>
      <point x="251" y="-20"/>
      <point x="98" y="170"/>
      <point x="98" y="332" type="qcurve" smooth="yes"/>
      <point x="98" y="501"/>
      <point x="238" y="820"/>
      <point x="353" y="916" type="qcurve" smooth="yes"/>
      <point x="476" y="1018"/>
      <point x="613" y="1018" type="qcurve" smooth="yes"/>
      <point x="829" y="1018"/>
      <point x="908" y="836" type="qcurve"/>
      <point x="1044" y="1413" type="line"/>
      <point x="1148" y="1413" type="line"/>
      <point x="822" y="0" type="line"/>
      <point x="719" y="0" type="line"/>
      <point x="725" y="25"/>
      <point x="756" y="155" type="qcurve"/>
      <point x="674" y="65"/>
      <point x="505" y="-20"/>
    </contour>
    <contour>
      <point x="1270" y="1046" type="line"/>
      <point x="1179" y="1046" type="line"/>
      <point x="1270" y="1226"/>
      <point x="1361" y="1413" type="qcurve"/>
      <point x="1553" y="1413" type="line"/>
    </contour>
    <contour>
      <point x="426" y="74" type="qcurve" smooth="yes"/>
      <point x="576" y="74"/>
      <point x="798" y="311"/>
      <point x="844" y="510" type="qcurve"/>
      <point x="863" y="597"/>
      <point x="863" y="666" type="qcurve" smooth="yes"/>
      <point x="863" y="784"/>
      <point x="809" y="850" type="qcurve" smooth="yes"/>
      <point x="752" y="920"/>
      <point x="641" y="920" type="qcurve" smooth="yes"/>
      <point x="484" y="920"/>
      <point x="370" y="791" type="qcurve" smooth="yes"/>
      <point x="265" y="672"/>
      <point x="225" y="488" type="qcurve"/>
      <point x="204" y="415"/>
      <point x="204" y="333" type="qcurve" smooth="yes"/>
      <point x="204" y="211"/>
      <point x="257" y="146" type="qcurve" smooth="yes"/>
      <point x="314" y="74"/>
    </contour>
  </outline>
</glyph>
<glyph name="gcedilla" format="2">
  <advance width="988"/>
  <unicode hex="0123"/>
  <outline>
    <contour>
      <point x="730" y="1131" type="line"/>
      <point x="539" y="1131" type="line"/>
      <point x="829" y="1417" type="line"/>
      <point x="919" y="1417" type="line"/>
    </contour>
    <contour>
      <point x="332" y="-433" type="qcurve" smooth="yes"/>
      <point x="210" y="-433"/>
      <point x="34" y="-334"/>
      <point x="-3" y="-240" type="qcurve"/>
      <point x="43" y="-215"/>
      <point x="88" y="-189" type="qcurve"/>
      <point x="147" y="-343"/>
      <point x="331" y="-343" type="qcurve" smooth="yes"/>
      <point x="473" y="-343"/>
      <point x="580" y="-245" type="qcurve" smooth="yes"/>
      <point x="682" y="-151"/>
      <point x="719" y="1" type="qcurve" smooth="yes"/>
      <point x="727" y="37"/>
      <point x="736" y="72" type="qcurve" smooth="yes"/>
      <point x="745" y="106"/>
      <point x="757" y="153" type="qcurve"/>
      <point x="599" y="-23"/>
      <point x="404" y="-23" type="qcurve" smooth="yes"/>
      <point x="255" y="-23"/>
      <point x="98" y="165"/>
      <point x="98" y="327" type="qcurve" smooth="yes"/>
      <point x="98" y="492"/>
      <point x="164" y="650" type="qcurve" smooth="yes"/>
      <point x="232" y="812"/>
      <point x="348" y="911" type="qcurve" smooth="yes"/>
      <point x="473" y="1018"/>
      <point x="624" y="1018" type="qcurve" smooth="yes"/>
      <point x="829" y="1018"/>
      <point x="909" y="834" type="qcurve"/>
      <point x="949" y="997" type="line"/>
      <point x="1055" y="997" type="line"/>
      <point x="821" y="-8" type="line" smooth="yes"/>
      <point x="775" y="-208"/>
      <point x="521" y="-433"/>
    </contour>
    <contour>
      <point x="426" y="65" type="qcurve" smooth="yes"/>
      <point x="572" y="65"/>
      <point x="796" y="304"/>
      <point x="845" y="508" type="qcurve"/>
      <point x="865" y="604"/>
      <point x="865" y="669" type="qcurve" smooth="yes"/>
      <point x="865" y="788"/>
      <point x="813" y="856" type="qcurve"/>
      <point x="756" y="927"/>
      <point x="647" y="927" type="qcurve" smooth="yes"/>
      <point x="488" y="927"/>
      <point x="372" y="795" type="qcurve" smooth="yes"/>
      <point x="266" y="673"/>
      <point x="225" y="487" type="qcurve"/>
      <point x="204" y="404"/>
      <point x="204" y="326" type="qcurve" smooth="yes"/>
      <point x="204" y="204"/>
      <point x="258" y="138" type="qcurve" smooth="yes"/>
      <point x="316" y="65"/>
    </contour>
  </outline>
</glyph>
<glyph name="Hbar" format="2">
  <advance width="1456"/>
  <unicode hex="0126"/>
  <outline>
    <contour>
      <point x="1109" y="0" type="line"/>
      <point x="995" y="0" type="line"/>
      <point x="1146" y="664" type="line"/>
      <point x="385" y="664" type="line"/>
      <point x="233" y="0" type="line"/>
      <point x="119" y="0" type="line"/>
      <point x="369" y="1086" type="line"/>
      <point x="247" y="1086" type="line"/>
      <point x="260" y="1148" type="line"/>
      <point x="383" y="1148" type="line"/>
      <point x="444" y="1413" type="line"/>
      <point x="558" y="1413" type="line"/>
      <point x="497" y="1148" type="line"/>
      <point x="1260" y="1148" type="line"/>
      <point x="1321" y="1413" type="line"/>
      <point x="1435" y="1413" type="line"/>
      <point x="1374" y="1148" type="line"/>
      <point x="1489" y="1148" type="line"/>
      <point x="1476" y="1086" type="line"/>
      <point x="1359" y="1086" type="line"/>
    </contour>
    <contour>
      <point x="1169" y="751" type="line"/>
      <point x="1246" y="1086" type="line"/>
      <point x="483" y="1086" type="line"/>
      <point x="408" y="751" type="line"/>
    </contour>
  </outline>
</glyph>
<glyph name="Iogonek" format="2">
  <advance width="579"/>
  <unicode hex="012E"/>
  <outline>
    <contour>
      <point x="8" y="-453" type="qcurve" smooth="yes"/>
      <point x="-64" y="-453"/>
      <point x="-154" y="-369"/>
      <point x="-154" y="-294" type="qcurve" smooth="yes"/>
      <point x="-154" y="-186"/>
      <point x="-66" y="-106" type="qcurve" smooth="yes"/>
      <point x="9" y="-38"/>
      <point x="147" y="0" type="qcurve"/>
      <point x="118" y="0" type="line"/>
      <point x="198" y="353"/>
      <point x="280" y="706" type="qcurve" smooth="yes"/>
      <point x="362" y="1059"/>
      <point x="443" y="1413" type="qcurve"/>
      <point x="557" y="1413" type="line"/>
      <point x="476" y="1060"/>
      <point x="395" y="707" type="qcurve" smooth="yes"/>
      <point x="313" y="354"/>
      <point x="232" y="0" type="qcurve"/>
      <point x="227" y="0" type="line" smooth="yes"/>
      <point x="214" y="0"/>
      <point x="170" y="-20" type="qcurve" smooth="yes"/>
      <point x="95" y="-56"/>
      <point x="33" y="-109" type="qcurve" smooth="yes"/>
      <point x="-66" y="-192"/>
      <point x="-66" y="-284" type="qcurve" smooth="yes"/>
      <point x="-66" y="-318"/>
      <point x="-31" y="-359"/>
      <point x="-3" y="-359" type="qcurve" smooth="yes"/>
      <point x="87" y="-359"/>
      <point x="151" y="-289" type="qcurve"/>
      <point x="222" y="-350" type="line"/>
      <point x="176" y="-399"/>
      <point x="76" y="-453"/>
    </contour>
  </outline>
</glyph>
<glyph name="Lslash" format="2">
  <advance width="1058"/>
  <unicode hex="0141"/>
  <outline>
    <contour>
      <point x="864" y="0" type="line"/>
      <point x="143" y="0" type="line"/>
      <point x="258" y="501" type="line"/>
      <point x="29" y="353" type="line"/>
      <point x="59" y="467" type="line"/>
      <point x="285" y="618" type="line"/>
      <point x="468" y="1413" type="line"/>
      <point x="582" y="1413" type="line"/>
      <point x="419" y="707" type="line"/>
      <point x="864" y="1004" type="line"/>
      <point x="827" y="863" type="line"/>
      <point x="391" y="584" type="line"/>
      <point x="279" y="101" type="line"/>
      <point x="886" y="101" type="line"/>
    </contour>
  </outline>
</glyph>
<glyph name="lslash" format="2">
  <advance width="507"/>
  <unicode hex="0142"/>
  <outline>
    <contour>
      <point x="359" y="791" type="line"/>
      <point x="561" y="1006" type="line"/>
      <point x="507" y="847" type="line"/>
      <point x="327" y="651" type="line"/>
      <point x="202" y="107" type="line"/>
      <point x="205" y="94"/>
      <point x="207" y="90" type="qcurve" smooth="yes"/>
      <point x="215" y="72"/>
      <point x="239" y="72" type="qcurve"/>
      <point x="254" y="73"/>
      <point x="268" y="73" type="qcurve" smooth="yes"/>
      <point x="281" y="73"/>
      <point x="333" y="81"/>
      <point x="342" y="84" type="qcurve"/>
      <point x="321" y="-1" type="line"/>
      <point x="270" y="-20"/>
      <point x="205" y="-20" type="qcurve" smooth="yes"/>
      <point x="91" y="-20"/>
      <point x="91" y="66" type="qcurve" smooth="yes"/>
      <point x="91" y="79"/>
      <point x="93" y="93" type="qcurve" smooth="yes"/>
      <point x="96" y="111"/>
      <point x="184" y="492" type="qcurve"/>
      <point x="-11" y="287" type="line"/>
      <point x="41" y="446" type="line"/>
      <point x="216" y="633" type="line"/>
      <point x="395" y="1413" type="line"/>
      <point x="502" y="1413" type="line"/>
    </contour>
  </outline>
</glyph>
<glyph name="eng" format="2">
  <advance width="1116"/>
  <unicode hex="014B"/>
  <outline>
    <contour>
      <point x="509" y="-370" type="qcurve" smooth="yes"/>
      <point x="436" y="-370" type="line"/>
      <point x="459" y="-276" type="line"/>
      <point x="499" y="-276" type="line" smooth="yes"/>
      <point x="593" y="-276"/>
      <point x="649" y="-209" type="qcurve" smooth="yes"/>
      <point x="691" y="-159"/>
      <point x="707" y="-79" type="qcurve"/>
      <point x="867" y="606" type="line"/>
      <point x="883" y="683"/>
      <point x="883" y="733" type="qcurve" smooth="yes"/>
      <point x="883" y="904"/>
      <point x="720" y="904" type="qcurve" smooth="yes"/>
      <point x="653" y="904"/>
      <point x="518" y="850"/>
      <point x="462" y="804" type="qcurve" smooth="yes"/>
      <point x="339" y="704"/>
      <point x="311" y="570" type="qcurve"/>
      <point x="178" y="0" type="line"/>
      <point x="69" y="0" type="line"/>
      <point x="298" y="997" type="line"/>
      <point x="408" y="997" type="line"/>
      <point x="365" y="823" type="line"/>
      <point x="433" y="912"/>
      <point x="632" y="1014"/>
      <point x="728" y="1014" type="qcurve" smooth="yes"/>
      <point x="862" y="1014"/>
      <point x="930" y="941" type="qcurve" smooth="yes"/>
      <point x="994" y="873"/>
      <point x="994" y="745" type="qcurve" smooth="yes"/>
      <point x="994" y="680"/>
      <point x="977" y="603" type="qcurve"/>
      <point x="813" y="-99" type="line"/>
      <point x="783" y="-221"/>
      <point x="728" y="-283" type="qcurve" smooth="yes"/>
      <point x="651" y="-370"/>
    </contour>
  </outline>
</glyph>
<glyph name="OE" format="2">
  <advance width="2344"/>
  <unicode hex="0152"/>
  <outline>
    <contour>
      <point x="1271" y="258" type="line"/>
      <point x="1242" y="221"/>
      <point x="1208" y="187" type="qcurve" smooth="yes"/>
      <point x="1001" y="-20"/>
      <point x="703" y="-20" type="qcurve" smooth="yes"/>
      <point x="406" y="-20"/>
      <point x="287" y="187" type="qcurve" smooth="yes"/>
      <point x="218" y="308"/>
      <point x="218" y="479" type="qcurve" smooth="yes"/>
      <point x="218" y="583"/>
      <point x="244" y="707" type="qcurve" smooth="yes"/>
      <point x="310" y="1018"/>
      <point x="495" y="1213" type="qcurve" smooth="yes"/>
      <point x="707" y="1436"/>
      <point x="1015" y="1436" type="qcurve" smooth="yes"/>
      <point x="1320" y="1436"/>
      <point x="1436" y="1213" type="qcurve" smooth="yes"/>
      <point x="1457" y="1172"/>
      <point x="1471" y="1127" type="qcurve"/>
      <point x="1537" y="1413" type="line"/>
      <point x="2440" y="1413" type="line"/>
      <point x="2419" y="1321" type="line"/>
      <point x="1631" y="1321" type="line"/>
      <point x="1501" y="751" type="line"/>
      <point x="2167" y="751" type="line"/>
      <point x="2146" y="664" type="line"/>
      <point x="1478" y="664" type="line"/>
      <point x="1348" y="101" type="line"/>
      <point x="2137" y="101" type="line"/>
      <point x="2115" y="0" type="line"/>
      <point x="1212" y="0" type="line"/>
    </contour>
    <contour>
      <point x="986" y="1324" type="line" smooth="yes"/>
      <point x="740" y="1324"/>
      <point x="581" y="1151" type="qcurve" smooth="yes"/>
      <point x="426" y="984"/>
      <point x="369" y="717" type="qcurve" smooth="yes"/>
      <point x="345" y="603"/>
      <point x="345" y="499" type="qcurve" smooth="yes"/>
      <point x="345" y="488"/>
      <point x="348" y="363"/>
      <point x="431" y="187"/>
      <point x="511" y="143" type="qcurve"/>
      <point x="595" y="91"/>
      <point x="727" y="91" type="qcurve" smooth="yes"/>
      <point x="860" y="91"/>
      <point x="966" y="143" type="qcurve"/>
      <point x="1064" y="187"/>
      <point x="1223" y="363"/>
      <point x="1325" y="590"/>
      <point x="1352" y="717" type="qcurve" smooth="yes"/>
      <point x="1375" y="824"/>
      <point x="1375" y="915" type="qcurve" smooth="yes"/>
      <point x="1375" y="1051"/>
      <point x="1324" y="1151" type="qcurve"/>
      <point x="1239" y="1324"/>
      <point x="993" y="1324" type="qcurve" smooth="yes"/>
    </contour>
  </outline>
</glyph>
<glyph name="Scedilla" format="2">
  <advance width="1114"/>
  <unicode hex="015E"/>
  <outline>
    <contour>
      <point x="309" y="-499" type="qcurve" smooth="yes"/>
      <point x="245" y="-499"/>
      <point x="202" y="-461" type="qcurve" smooth="yes"/>
      <point x="162" y="-426"/>
      <point x="154" y="-376" type="qcurve"/>
      <point x="241" y="-342" type="line"/>
      <point x="241" y="-347" type="line" smooth="yes"/>
      <point x="241" y="-373"/>
      <point x="277" y="-417"/>
      <point x="314" y="-417" type="qcurve" smooth="yes"/>
      <point x="369" y="-417"/>
      <point x="463" y="-330"/>
      <point x="463" y="-278" type="qcurve" smooth="yes"/>
      <point x="463" y="-232"/>
      <point x="382" y="-175"/>
      <point x="301" y="-175" type="qcurve" smooth="yes"/>
      <point x="270" y="-175" type="line"/>
      <point x="339" y="-80"/>
      <point x="387" y="-9" type="qcurve"/>
      <point x="242" y="17"/>
      <point x="161" y="107" type="qcurve"/>
      <point x="71" y="203"/>
      <point x="71" y="347" type="qcurve"/>
      <point x="179" y="371" type="line"/>
      <point x="179" y="236"/>
      <point x="328" y="84"/>
      <point x="476" y="84" type="qcurve" smooth="yes"/>
      <point x="642" y="84"/>
      <point x="857" y="267"/>
      <point x="857" y="405" type="qcurve" smooth="yes"/>
      <point x="857" y="459"/>
      <point x="822" y="538"/>
      <point x="755" y="602"/>
      <point x="661" y="658"/>
      <point x="603" y="689" type="qcurve"/>
      <point x="538" y="720"/>
      <point x="436" y="780"/>
      <point x="366" y="853"/>
      <point x="328" y="947"/>
      <point x="328" y="1011" type="qcurve" smooth="yes"/>
      <point x="328" y="1083"/>
      <point x="355" y="1151" type="qcurve" smooth="yes"/>
      <point x="411" y="1291"/>
      <point x="545" y="1370" type="qcurve" smooth="yes"/>
      <point x="652" y="1434"/>
      <point x="780" y="1434" type="qcurve" smooth="yes"/>
      <point x="896" y="1434"/>
      <point x="1063" y="1323"/>
      <point x="1100" y="1223" type="qcurve"/>
      <point x="1014" y="1177" type="line"/>
      <point x="992" y="1252"/>
      <point x="859" y="1337"/>
      <point x="777" y="1337" type="qcurve" smooth="yes"/>
      <point x="714" y="1337"/>
      <point x="593" y="1291"/>
      <point x="498" y="1210"/>
      <point x="439" y="1100"/>
      <point x="439" y="1035" type="qcurve" smooth="yes"/>
      <point x="439" y="984"/>
      <point x="455" y="947" type="qcurve" smooth="yes"/>
      <point x="484" y="881"/>
      <point x="565" y="833" type="qcurve" smooth="yes"/>
      <point x="602" y="811"/>
      <point x="646" y="790" type="qcurve"/>
      <point x="689" y="768"/>
      <point x="787" y="718"/>
      <point x="836" y="684" type="qcurve" smooth="yes"/>
      <point x="967" y="591"/>
      <point x="967" y="433" type="qcurve" smooth="yes"/>
      <point x="967" y="346"/>
      <point x="894" y="185"/>
      <point x="765" y="59"/>
      <point x="590" y="-16"/>
      <point x="486" y="-16" type="qcurve"/>
      <point x="461" y="-44"/>
      <point x="440" y="-71" type="qcurve" smooth="yes"/>
      <point x="419" y="-98"/>
      <point x="392" y="-129" type="qcurve"/>
      <point x="473" y="-129"/>
      <point x="549" y="-206"/>
      <point x="549" y="-266" type="qcurve" smooth="yes"/>
      <point x="549" y="-354"/>
      <point x="480" y="-424" type="qcurve" smooth="yes"/>
      <point x="406" y="-499"/>
    </contour>
  </outline>
</glyph>
<glyph name="tcaron" format="2">
  <advance width="644"/>
  <unicode hex="0165"/>
  <outline>
    <contour>
      <point x="632" y="1046" type="line"/>
      <point x="542" y="1046" type="line"/>
      <point x="723" y="1413" type="line"/>
      <point x="914" y="1413" type="line"/>
    </contour>
    <contour>
      <point x="331" y="-22" type="qcurve"/>
      <point x="319" y="-22" type="line" smooth="yes"/>
      <point x="142" y="-22"/>
      <point x="142" y="147" type="qcurve" smooth="yes"/>
      <point x="142" y="193"/>
      <point x="158" y="264" type="qcurve" smooth="yes"/>
      <point x="195" y="426"/>
      <point x="233" y="587" type="qcurve" smooth="yes"/>
      <point x="270" y="748"/>
      <point x="308" y="914" type="qcurve"/>
      <point x="152" y="914" type="line"/>
      <point x="171" y="997" type="line"/>
      <point x="325" y="997" type="line"/>
      <point x="375" y="1216" type="line"/>
      <point x="513" y="1336" type="line"/>
      <point x="437" y="997" type="line"/>
      <point x="690" y="997" type="line"/>
      <point x="672" y="914" type="line"/>
      <point x="418" y="914" type="line"/>
      <point x="377" y="741"/>
      <point x="340" y="573" type="qcurve" smooth="yes"/>
      <point x="302" y="405"/>
      <point x="260" y="235" type="qcurve"/>
      <point x="252" y="207"/>
      <point x="252" y="167" type="qcurve" smooth="yes"/>
      <point x="252" y="60"/>
      <point x="345" y="60" type="qcurve" smooth="yes"/>
      <point x="386" y="60"/>
      <point x="439" y="80" type="qcurve"/>
      <point x="428" y="-6" type="line"/>
      <point x="423" y="-7"/>
      <point x="416" y="-10" type="qcurve"/>
      <point x="388" y="-18"/>
    </contour>
  </outline>
</glyph>
<glyph name="Tbar" format="2">
  <advance width="1279"/>
  <unicode hex="0166"/>
  <outline>
    <contour>
      <point x="584" y="0" type="line"/>
      <point x="467" y="0" type="line"/>
      <point x="618" y="659" type="line"/>
      <point x="366" y="659" type="line"/>
      <point x="388" y="751" type="line"/>
      <point x="641" y="751" type="line"/>
      <point x="773" y="1328" type="line"/>
      <point x="280" y="1328" type="line"/>
      <point x="299" y="1413" type="line"/>
      <point x="1402" y="1413" type="line"/>
      <point x="1382" y="1328" type="line"/>
      <point x="890" y="1328" type="line"/>
      <point x="757" y="751" type="line"/>
      <point x="1019" y="751" type="line"/>
      <point x="998" y="659" type="line"/>
      <point x="735" y="659" type="line"/>
    </contour>
  </outline>
</glyph>
<glyph name="Uogonek" format="2">
  <advance width="1353"/>
  <unicode hex="0172"/>
  <outline>
    <contour>
      <point x="529" y="-450" type="qcurve"/>
      <point x="517" y="-450" type="line" smooth="yes"/>
      <point x="445" y="-450"/>
      <point x="400" y="-408" type="qcurve" smooth="yes"/>
      <point x="351" y="-363"/>
      <point x="351" y="-287" type="qcurve" smooth="yes"/>
      <point x="351" y="-197"/>
      <point x="410" y="-127" type="qcurve" smooth="yes"/>
      <point x="460" y="-68"/>
      <point x="564" y="-20" type="qcurve"/>
      <point x="368" y="-14"/>
      <point x="276" y="89" type="qcurve" smooth="yes"/>
      <point x="189" y="186"/>
      <point x="189" y="353" type="qcurve" smooth="yes"/>
      <point x="189" y="426"/>
      <point x="207" y="509" type="qcurve"/>
      <point x="417" y="1413" type="line"/>
      <point x="531" y="1413" type="line"/>
      <point x="402" y="852"/>
      <point x="331" y="551" type="qcurve"/>
      <point x="306" y="438"/>
      <point x="306" y="358" type="qcurve" smooth="yes"/>
      <point x="306" y="85"/>
      <point x="569" y="85" type="qcurve" smooth="yes"/>
      <point x="756" y="85"/>
      <point x="883" y="218" type="qcurve" smooth="yes"/>
      <point x="998" y="339"/>
      <point x="1049" y="561" type="qcurve" smooth="yes"/>
      <point x="1099" y="776"/>
      <point x="1148" y="989" type="qcurve" smooth="yes"/>
      <point x="1197" y="1201"/>
      <point x="1247" y="1413" type="qcurve"/>
      <point x="1362" y="1413" type="line"/>
      <point x="1265" y="999"/>
      <point x="1154" y="509" type="qcurve"/>
      <point x="1114" y="344"/>
      <point x="1025" y="220" type="qcurve" smooth="yes"/>
      <point x="897" y="42"/>
      <point x="713" y="2" type="qcurve"/>
      <point x="599" y="-48"/>
      <point x="531" y="-107" type="qcurve" smooth="yes"/>
      <point x="440" y="-187"/>
      <point x="440" y="-277" type="qcurve" smooth="yes"/>
      <point x="440" y="-352"/>
      <point x="498" y="-352" type="qcurve" smooth="yes"/>
      <point x="593" y="-352"/>
      <point x="658" y="-282" type="qcurve"/>
      <point x="674" y="-297"/>
      <point x="693" y="-313" type="qcurve" smooth="yes"/>
      <point x="711" y="-328"/>
      <point x="727" y="-343" type="qcurve"/>
      <point x="697" y="-376"/>
      <point x="647" y="-416" type="qcurve"/>
      <point x="600" y="-445"/>
    </contour>
  </outline>
</glyph>
<glyph name="uogonek" format="2">
  <advance width="1108"/>
  <unicode hex="0173"/>
  <outline>
    <contour>
      <point x="591" y="-454" type="qcurve"/>
      <point x="584" y="-454" type="line" smooth="yes"/>
      <point x="512" y="-454"/>
      <point x="423" y="-369"/>
      <point x="423" y="-294" type="qcurve" smooth="yes"/>
      <point x="423" y="-186"/>
      <point x="512" y="-106" type="qcurve" smooth="yes"/>
      <point x="587" y="-38"/>
      <point x="703" y="-6" type="qcurve"/>
      <point x="706" y="-6" type="line"/>
      <point x="756" y="200" type="line"/>
      <point x="700" y="106"/>
      <point x="606" y="46" type="qcurve" smooth="yes"/>
      <point x="498" y="-23"/>
      <point x="386" y="-23" type="qcurve" smooth="yes"/>
      <point x="250" y="-23"/>
      <point x="122" y="124"/>
      <point x="122" y="252" type="qcurve" smooth="yes"/>
      <point x="122" y="327"/>
      <point x="142" y="409" type="qcurve"/>
      <point x="277" y="997" type="line"/>
      <point x="380" y="997" type="line"/>
      <point x="242" y="385" type="line"/>
      <point x="223" y="296"/>
      <point x="223" y="244" type="qcurve" smooth="yes"/>
      <point x="223" y="157"/>
      <point x="258" y="111" type="qcurve" smooth="yes"/>
      <point x="298" y="58"/>
      <point x="379" y="58" type="qcurve" smooth="yes"/>
      <point x="441" y="58"/>
      <point x="577" y="116"/>
      <point x="696" y="214"/>
      <point x="787" y="342"/>
      <point x="804" y="412" type="qcurve"/>
      <point x="938" y="997" type="line"/>
      <point x="1039" y="997" type="line"/>
      <point x="810" y="0" type="line"/>
      <point x="808" y="0" type="line"/>
      <point x="750" y="-25" type="line"/>
      <point x="737" y="-24" type="line"/>
      <point x="658" y="-57"/>
      <point x="590" y="-130" type="qcurve" smooth="yes"/>
      <point x="512" y="-214"/>
      <point x="512" y="-284" type="qcurve" smooth="yes"/>
      <point x="512" y="-317"/>
      <point x="544" y="-359"/>
      <point x="575" y="-359" type="qcurve" smooth="yes"/>
      <point x="665" y="-359"/>
      <point x="729" y="-289" type="qcurve"/>
      <point x="746" y="-305"/>
      <point x="765" y="-320" type="qcurve" smooth="yes"/>
      <point x="783" y="-335"/>
      <point x="799" y="-350" type="qcurve"/>
      <point x="728" y="-426"/>
      <point x="658" y="-445" type="qcurve"/>
      <point x="625" y="-453"/>
    </contour>
  </outline>
</glyph>
<glyph name="longs" format="2">
  <advance width="689"/>
  <unicode hex="017F"/>
  <outline>
    <contour>
      <point x="214" y="0" type="line"/>
      <point x="112" y="0" type="line"/>
      <point x="323" y="914" type="line"/>
      <point x="140" y="914" type="line"/>
      <point x="159" y="995" type="line"/>
      <point x="342" y="995" type="line"/>
      <point x="355" y="1050"/>
      <point x="366" y="1105" type="qcurve" smooth="yes"/>
      <point x="376" y="1159"/>
      <point x="407" y="1261"/>
      <point x="456" y="1347"/>
      <point x="498" y="1377" type="qcurve" smooth="yes"/>
      <point x="578" y="1434"/>
      <point x="681" y="1434" type="qcurve" smooth="yes"/>
      <point x="766" y="1434"/>
      <point x="834" y="1398" type="qcurve"/>
      <point x="803" y="1325" type="line"/>
      <point x="744" y="1350"/>
      <point x="684" y="1350" type="qcurve" smooth="yes"/>
      <point x="610" y="1350"/>
      <point x="506" y="1272"/>
      <point x="489" y="1197" type="qcurve" smooth="yes"/>
    </contour>
  </outline>
</glyph>
<glyph name="oogonek" format="2">
  <advance width="1127"/>
  <unicode hex="01EB"/>
  <outline>
    <contour>
      <point x="334" y="-453" type="qcurve" smooth="yes"/>
      <point x="327" y="-453" type="line" smooth="yes"/>
      <point x="255" y="-453"/>
      <point x="166" y="-368"/>
      <point x="166" y="-294" type="qcurve" smooth="yes"/>
      <point x="166" y="-199"/>
      <point x="236" y="-124" type="qcurve" smooth="yes"/>
      <point x="297" y="-58"/>
      <point x="409" y="-18" type="qcurve"/>
      <point x="253" y="2"/>
      <point x="91" y="205"/>
      <point x="91" y="364" type="qcurve" smooth="yes"/>
      <point x="91" y="513"/>
      <point x="241" y="813"/>
      <point x="370" y="909" type="qcurve" smooth="yes"/>
      <point x="508" y="1010"/>
      <point x="670" y="1010" type="qcurve" smooth="yes"/>
      <point x="834" y="1010"/>
      <point x="1034" y="794"/>
      <point x="1034" y="624" type="qcurve" smooth="yes"/>
      <point x="1034" y="478"/>
      <point x="962" y="333" type="qcurve" smooth="yes"/>
      <point x="892" y="192"/>
      <point x="772" y="98" type="qcurve" smooth="yes"/>
      <point x="645" y="-3"/>
      <point x="504" y="-18" type="qcurve"/>
      <point x="397" y="-66"/>
      <point x="334" y="-125" type="qcurve" smooth="yes"/>
      <point x="255" y="-200"/>
      <point x="255" y="-284" type="qcurve" smooth="yes"/>
      <point x="255" y="-317"/>
      <point x="288" y="-359"/>
      <point x="319" y="-359" type="qcurve" smooth="yes"/>
      <point x="408" y="-359"/>
      <point x="472" y="-289" type="qcurve"/>
      <point x="543" y="-350" type="line"/>
      <point x="510" y="-385"/>
      <point x="438" y="-435"/>
      <point x="366" y="-453"/>
    </contour>
    <contour>
      <point x="456" y="74" type="qcurve" smooth="yes"/>
      <point x="624" y="74"/>
      <point x="743" y="200" type="qcurve" smooth="yes"/>
      <point x="851" y="314"/>
      <point x="896" y="506" type="qcurve"/>
      <point x="916" y="586"/>
      <point x="916" y="654" type="qcurve" smooth="yes"/>
      <point x="916" y="778"/>
      <point x="857" y="844" type="qcurve" smooth="yes"/>
      <point x="792" y="915"/>
      <point x="668" y="915" type="qcurve" smooth="yes"/>
      <point x="500" y="915"/>
      <point x="382" y="788" type="qcurve" smooth="yes"/>
      <point x="274" y="671"/>
      <point x="231" y="484" type="qcurve" smooth="yes"/>
      <point x="212" y="401"/>
      <point x="212" y="337" type="qcurve" smooth="yes"/>
      <point x="212" y="214"/>
      <point x="269" y="146" type="qcurve" smooth="yes"/>
      <point x="331" y="74"/>
    </contour>
  </outline>
</glyph>
<glyph name="aturned" format="2">
  <advance width="1014"/>
  <unicode hex="0250"/>
  <outline>
    <contour>
      <point x="670" y="1014" type="qcurve" smooth="yes"/>
      <point x="806" y="1014"/>
      <point x="919" y="886"/>
      <point x="919" y="807" type="qcurve" smooth="yes"/>
      <point x="919" y="772"/>
      <point x="910" y="731" type="qcurve" smooth="yes"/>
      <point x="842" y="437"/>
      <point x="388" y="437" type="qcurve" smooth="yes"/>
      <point x="167" y="437" type="line"/>
      <point x="146" y="348"/>
      <point x="146" y="278" type="qcurve" smooth="yes"/>
      <point x="146" y="258"/>
      <point x="156" y="157"/>
      <point x="254" y="70"/>
      <point x="352" y="70" type="qcurve" smooth="yes"/>
      <point x="424" y="70"/>
      <point x="546" y="113"/>
      <point x="646" y="181"/>
      <point x="682" y="220" type="qcurve"/>
      <point x="742" y="161" type="line"/>
      <point x="571" y="-20"/>
      <point x="343" y="-20" type="qcurve" smooth="yes"/>
      <point x="162" y="-20"/>
      <point x="47" y="156"/>
      <point x="47" y="253" type="qcurve" smooth="yes"/>
      <point x="47" y="311"/>
      <point x="63" y="379" type="qcurve" smooth="yes"/>
      <point x="205" y="994" type="line"/>
      <point x="295" y="994" type="line"/>
      <point x="271" y="890"/>
      <point x="241" y="768" type="qcurve"/>
      <point x="330" y="899"/>
      <point x="553" y="1014"/>
    </contour>
    <contour>
      <point x="639" y="927" type="qcurve" smooth="yes"/>
      <point x="479" y="927"/>
      <point x="346" y="797" type="qcurve" smooth="yes"/>
      <point x="222" y="676"/>
      <point x="186" y="519" type="qcurve"/>
      <point x="404" y="519" type="line" smooth="yes"/>
      <point x="582" y="519"/>
      <point x="773" y="616"/>
      <point x="800" y="732" type="qcurve" smooth="yes"/>
      <point x="808" y="766"/>
      <point x="808" y="795" type="qcurve" smooth="yes"/>
      <point x="808" y="849"/>
      <point x="731" y="927"/>
    </contour>
  </outline>
</glyph>
<glyph name="oopen" format="2">
  <advance width="965"/>
  <unicode hex="0254"/>
  <outline>
    <contour>
      <point x="356" y="-20" type="qcurve" smooth="yes"/>
      <point x="233" y="-20"/>
      <point x="75" y="107"/>
      <point x="57" y="230" type="qcurve"/>
      <point x="155" y="272" type="line"/>
      <point x="160" y="197"/>
      <point x="282" y="80"/>
      <point x="381" y="80" type="qcurve" smooth="yes"/>
      <point x="542" y="80"/>
      <point x="645" y="208" type="qcurve" smooth="yes"/>
      <point x="741" y="326"/>
      <point x="780" y="497" type="qcurve" smooth="yes"/>
      <point x="799" y="578"/>
      <point x="799" y="648" type="qcurve" smooth="yes"/>
      <point x="799" y="726"/>
      <point x="775" y="788" type="qcurve" smooth="yes"/>
      <point x="728" y="913"/>
      <point x="573" y="913" type="qcurve" smooth="yes"/>
      <point x="479" y="913"/>
      <point x="301" y="799"/>
      <point x="259" y="722" type="qcurve"/>
      <point x="171" y="769" type="line"/>
      <point x="245" y="877"/>
      <point x="463" y="1014"/>
      <point x="596" y="1014" type="qcurve" smooth="yes"/>
      <point x="699" y="1014"/>
      <point x="766" y="972" type="qcurve"/>
      <point x="871" y="900"/>
      <point x="908" y="714"/>
      <point x="908" y="655" type="qcurve" smooth="yes"/>
      <point x="908" y="578"/>
      <point x="889" y="497" type="qcurve" smooth="yes"/>
      <point x="856" y="356"/>
      <point x="707" y="120"/>
      <point x="491" y="-20"/>
    </contour>
  </outline>
</glyph>
<glyph name="colontriangularmod" format="2">
  <advance width="447"/>
  <unicode hex="02D0"/>
  <outline>
    <contour>
      <point x="251" y="690" type="line"/>
      <point x="34" y="998" type="line"/>
      <point x="387" y="1051" type="line"/>
    </contour>
    <contour>
      <point x="61" y="-52" type="line"/>
      <point x="197" y="308" type="line"/>
      <point x="413" y="-1" type="line"/>
    </contour>
  </outline>
</glyph>
<glyph name="circumflexcmb" format="2">
  <unicode hex="0302"/>
  <anchor x="-288" y="999" name="_t.ringcmb_1"/>
  <outline>
    <contour>
      <point x="64" y="1103" type="line"/>
      <point x="-74" y="1103" type="line"/>
      <point x="-209" y="1307" type="line"/>
      <point x="-446" y="1103" type="line"/>
      <point x="-592" y="1103" type="line"/>
      <point x="-184" y="1453" type="line"/>
    </contour>
  </outline>
</glyph>
<glyph name="tildecmb" format="2">
  <advance width="1"/>
  <unicode hex="0303"/>
  <anchor x="-274" y="999" name="_t.ringcmb_1"/>
  <outline>
    <contour>
      <point x="-105" y="1164" type="qcurve" smooth="yes"/>
      <point x="-172" y="1164"/>
      <point x="-213" y="1220" type="qcurve" smooth="yes"/>
      <point x="-242" y="1259" type="line"/>
      <point x="-262" y="1289"/>
      <point x="-277" y="1308" type="qcurve"/>
      <point x="-297" y="1328"/>
      <point x="-323" y="1328" type="qcurve" smooth="yes"/>
      <point x="-363" y="1328"/>
      <point x="-426" y="1245"/>
      <point x="-441" y="1189" type="qcurve"/>
      <point x="-514" y="1189" type="line"/>
      <point x="-488" y="1298"/>
      <point x="-387" y="1420"/>
      <point x="-320" y="1420" type="qcurve" smooth="yes"/>
      <point x="-300" y="1420"/>
      <point x="-282" y="1414" type="qcurve"/>
      <point x="-239" y="1402"/>
      <point x="-195" y="1353"/>
      <point x="-174" y="1317" type="qcurve" smooth="yes"/>
      <point x="-157" y="1287"/>
      <point x="-126" y="1250"/>
      <point x="-99" y="1250" type="qcurve" smooth="yes"/>
      <point x="-16" y="1250"/>
      <point x="28" y="1413" type="qcurve"/>
      <point x="106" y="1413" type="line"/>
      <point x="49" y="1164"/>
    </contour>
  </outline>
</glyph>
<glyph name="dieresiscmb" format="2">
  <unicode hex="0308"/>
  <anchor x="-301" y="999" name="_t.ringcmb_1"/>
  <outline>
    <contour>
      <point x="-337" y="1239" type="line"/>
      <point x="-485" y="1239" type="line"/>
      <point x="-444" y="1413" type="line"/>
      <point x="-296" y="1413" type="line"/>
    </contour>
    <contour>
      <point x="-7" y="1239" type="line"/>
      <point x="-155" y="1239" type="line"/>
      <point x="-114" y="1413" type="line"/>
      <point x="33" y="1413" type="line"/>
    </contour>
  </outline>
</glyph>
<glyph name="hungarumlautcmb" format="2">
  <unicode hex="030B"/>
  <anchor x="-606" y="999" name="_t.ringcmb_1"/>
  <outline>
    <contour>
      <point x="-696" y="1139" type="line"/>
      <point x="-805" y="1139" type="line"/>
      <point x="-530" y="1413" type="line"/>
      <point x="-363" y="1413" type="line"/>
    </contour>
    <contour>
      <point x="-372" y="1139" type="line"/>
      <point x="-481" y="1139" type="line"/>
      <point x="-207" y="1413" type="line"/>
      <point x="-49" y="1413" type="line"/>
    </contour>
  </outline>
</glyph>
<glyph name="caroncmb" format="2">
  <unicode hex="030C"/>
  <anchor x="-283" y="999" name="_t.ringcmb_1"/>
  <outline>
    <contour>
      <point x="-262" y="1087" type="line"/>
      <point x="-516" y="1413" type="line"/>
      <point x="-375" y="1413" type="line"/>
      <point x="-239" y="1212" type="line"/>
      <point x="-5" y="1413" type="line"/>
      <point x="141" y="1413" type="line"/>
    </contour>
  </outline>
</glyph>
<glyph name="horncmb" format="2">
  <unicode hex="031B"/>
  <anchor x="-126" y="999" name="_m.horncmb_3"/>
  <outline>
    <contour>
      <point x="-189" y="1003" type="line"/>
      <point x="-278" y="1003" type="line"/>
      <point x="-69" y="1413" type="line"/>
      <point x="123" y="1413" type="line"/>
    </contour>
  </outline>
</glyph>
<glyph name="uni0326" format="2">
  <unicode hex="0326"/>
  <anchor x="-292" y="0" name="_b.uni0326"/>
  <anchor x="-292" y="0" name="_b.uni0326_2"/>
  <anchor x="-454" y="-442" name="b.uni0326_2"/>
  <outline>
    <contour>
      <point x="-523" y="-442" type="line"/>
      <point x="-613" y="-442" type="line"/>
      <point x="-422" y="-120" type="line"/>
      <point x="-231" y="-120" type="line"/>
    </contour>
  </outline>
</glyph>
<glyph name="ogonekcmb" format="2">
  <unicode hex="0328"/>
  <anchor x="-330" y="0" name="_b.ogonekcmb_2"/>
  <outline>
    <contour>
      <point x="-295" y="-6" type="line"/>
      <point x="-283" y="-2"/>
      <point x="-279" y="-2" type="qcurve"/>
      <point x="-277" y="-3" type="line"/>
      <point x="-278" y="-6" type="line"/>
    </contour>
    <contour>
      <point x="-498" y="-453" type="qcurve" smooth="yes"/>
      <point x="-571" y="-453"/>
      <point x="-661" y="-369"/>
      <point x="-661" y="-294" type="qcurve" smooth="yes"/>
      <point x="-661" y="-197"/>
      <point x="-597" y="-128" type="qcurve"/>
      <point x="-546" y="-75"/>
      <point x="-439" y="-28" type="qcurve"/>
      <point x="-413" y="-15"/>
      <point x="-383" y="-4" type="qcurve"/>
      <point x="-295" y="-6" type="line"/>
      <point x="-311" y="-11"/>
      <point x="-343" y="-23" type="qcurve" smooth="yes"/>
      <point x="-415" y="-52"/>
      <point x="-488" y="-125" type="qcurve" smooth="yes"/>
      <point x="-573" y="-210"/>
      <point x="-573" y="-284" type="qcurve" smooth="yes"/>
      <point x="-573" y="-318"/>
      <point x="-537" y="-359"/>
      <point x="-508" y="-359" type="qcurve" smooth="yes"/>
      <point x="-420" y="-359"/>
      <point x="-356" y="-289" type="qcurve"/>
      <point x="-284" y="-349" type="line"/>
      <point x="-332" y="-401"/>
      <point x="-429" y="-453"/>
    </contour>
  </outline>
</glyph>
<glyph name="pi" format="2">
  <advance width="993"/>
  <unicode hex="03C0"/>
  <outline>
    <contour>
      <point x="721" y="-20" type="qcurve" smooth="yes"/>
      <point x="647" y="-20"/>
      <point x="562" y="80"/>
      <point x="562" y="156" type="qcurve" smooth="yes"/>
      <point x="562" y="188"/>
      <point x="566" y="201" type="qcurve"/>
      <point x="606" y="370"/>
      <point x="644" y="536" type="qcurve" smooth="yes"/>
      <point x="682" y="701"/>
      <point x="723" y="874" type="qcurve"/>
      <point x="412" y="874" type="line"/>
      <point x="313" y="449"/>
      <point x="210" y="0" type="qcurve"/>
      <point x="87" y="0" type="line"/>
      <point x="183" y="413"/>
      <point x="289" y="874" type="qcurve"/>
      <point x="206" y="874" type="line"/>
      <point x="214" y="903"/>
      <point x="221" y="936" type="qcurve" smooth="yes"/>
      <point x="227" y="968"/>
      <point x="233" y="997" type="qcurve"/>
      <point x="956" y="997" type="line"/>
      <point x="928" y="874" type="line"/>
      <point x="846" y="874" type="line"/>
      <point x="766" y="530" type="line" smooth="yes"/>
      <point x="682" y="173"/>
      <point x="682" y="144" type="qcurve" smooth="yes"/>
      <point x="682" y="77"/>
      <point x="740" y="77" type="qcurve" smooth="yes"/>
      <point x="773" y="77"/>
      <point x="805" y="99" type="qcurve"/>
      <point x="807" y="89"/>
      <point x="809" y="77" type="qcurve" smooth="yes"/>
      <point x="815" y="41" type="line" smooth="yes"/>
      <point x="818" y="22"/>
      <point x="822" y="5" type="qcurve"/>
      <point x="774" y="-20"/>
    </contour>
  </outline>
</glyph>
<glyph name="afii10051" format="2">
  <advance width="1646"/>
  <unicode hex="0402"/>
  <outline>
    <contour>
      <point x="1054" y="-16" type="qcurve" smooth="yes"/>
      <point x="941" y="-16"/>
      <point x="797" y="46"/>
      <point x="757" y="112" type="qcurve"/>
      <point x="859" y="179" type="line"/>
      <point x="886" y="128"/>
      <point x="986" y="84"/>
      <point x="1068" y="84" type="qcurve" smooth="yes"/>
      <point x="1115" y="84"/>
      <point x="1216" y="143"/>
      <point x="1262" y="195" type="qcurve" smooth="yes"/>
      <point x="1363" y="311"/>
      <point x="1400" y="481" type="qcurve" smooth="yes"/>
      <point x="1425" y="598"/>
      <point x="1425" y="667" type="qcurve" smooth="yes"/>
      <point x="1425" y="781"/>
      <point x="1296" y="893"/>
      <point x="1147" y="893" type="qcurve" smooth="yes"/>
      <point x="1041" y="893"/>
      <point x="819" y="802"/>
      <point x="745" y="730" type="qcurve"/>
      <point x="575" y="0" type="line"/>
      <point x="460" y="0" type="line"/>
      <point x="765" y="1331" type="line"/>
      <point x="271" y="1331" type="line"/>
      <point x="291" y="1413" type="line"/>
      <point x="1393" y="1413" type="line"/>
      <point x="1374" y="1331" type="line"/>
      <point x="882" y="1331" type="line"/>
      <point x="765" y="850" type="line"/>
      <point x="947" y="999"/>
      <point x="1150" y="999" type="qcurve" smooth="yes"/>
      <point x="1537" y="999"/>
      <point x="1537" y="661" type="qcurve" smooth="yes"/>
      <point x="1537" y="503"/>
      <point x="1470" y="344" type="qcurve" smooth="yes"/>
      <point x="1388" y="151"/>
      <point x="1242" y="49" type="qcurve" smooth="yes"/>
      <point x="1150" y="-16"/>
    </contour>
  </outline>
</glyph>
<glyph name="afii10052" format="2">
  <advance width="1088"/>
  <unicode hex="0403"/>
  <outline>
    <contour>
      <point x="801" y="1545" type="line"/>
      <point x="711" y="1545" type="line"/>
      <point x="984" y="1829" type="line"/>
      <point x="1116" y="1829" type="line"/>
    </contour>
    <contour>
      <point x="232" y="0" type="line"/>
      <point x="119" y="0" type="line"/>
      <point x="444" y="1413" type="line"/>
      <point x="1211" y="1413" type="line"/>
      <point x="1193" y="1325" type="line"/>
      <point x="538" y="1325" type="line"/>
    </contour>
  </outline>
</glyph>
<glyph name="afii10053" format="2">
  <advance width="1426"/>
  <unicode hex="0404"/>
  <outline>
    <contour>
      <point x="651" y="-20" type="qcurve" smooth="yes"/>
      <point x="412" y="-20"/>
      <point x="286" y="117" type="qcurve" smooth="yes"/>
      <point x="167" y="245"/>
      <point x="167" y="477" type="qcurve" smooth="yes"/>
      <point x="167" y="623"/>
      <point x="263" y="954"/>
      <point x="347" y="1084" type="qcurve" smooth="yes"/>
      <point x="455" y="1250"/>
      <point x="608" y="1340" type="qcurve" smooth="yes"/>
      <point x="771" y="1436"/>
      <point x="965" y="1436" type="qcurve" smooth="yes"/>
      <point x="1162" y="1436"/>
      <point x="1407" y="1249"/>
      <point x="1444" y="1070" type="qcurve"/>
      <point x="1418" y="1063"/>
      <point x="1391" y="1054" type="qcurve" smooth="yes"/>
      <point x="1363" y="1044"/>
      <point x="1337" y="1037" type="qcurve"/>
      <point x="1327" y="1187"/>
      <point x="1223" y="1263" type="qcurve" smooth="yes"/>
      <point x="1124" y="1334"/>
      <point x="959" y="1334" type="qcurve" smooth="yes"/>
      <point x="720" y="1334"/>
      <point x="543" y="1160" type="qcurve" smooth="yes"/>
      <point x="383" y="1001"/>
      <point x="318" y="765" type="qcurve"/>
      <point x="978" y="771" type="line"/>
      <point x="960" y="683" type="line"/>
      <point x="297" y="677" type="line"/>
      <point x="278" y="577"/>
      <point x="278" y="484" type="qcurve" smooth="yes"/>
      <point x="278" y="294"/>
      <point x="369" y="191" type="qcurve"/>
      <point x="464" y="81"/>
      <point x="654" y="81" type="qcurve" smooth="yes"/>
      <point x="816" y="81"/>
      <point x="1086" y="233"/>
      <point x="1181" y="392" type="qcurve"/>
      <point x="1281" y="337" type="line"/>
      <point x="1163" y="159"/>
      <point x="840" y="-20"/>
    </contour>
  </outline>
</glyph>
<glyph name="afii10056" format="2">
  <advance width="567"/>
  <unicode hex="0407"/>
  <outline>
    <contour>
      <point x="444" y="1618" type="line"/>
      <point x="313" y="1618" type="line"/>
      <point x="348" y="1767" type="line"/>
      <point x="478" y="1767" type="line"/>
    </contour>
    <contour>
      <point x="767" y="1618" type="line"/>
      <point x="637" y="1618" type="line"/>
      <point x="672" y="1767" type="line"/>
      <point x="802" y="1767" type="line"/>
    </contour>
    <contour>
      <point x="226" y="0" type="line"/>
      <point x="113" y="0" type="line"/>
      <point x="439" y="1413" type="line"/>
      <point x="551" y="1413" type="line"/>
    </contour>
  </outline>
</glyph>
<glyph name="afii10057" format="2">
  <advance width="1118"/>
  <unicode hex="0408"/>
  <outline>
    <contour>
      <point x="390" y="-20" type="qcurve" smooth="yes"/>
      <point x="230" y="-20"/>
      <point x="141" y="73" type="qcurve" smooth="yes"/>
      <point x="59" y="159"/>
      <point x="59" y="304" type="qcurve" smooth="yes"/>
      <point x="59" y="342"/>
      <point x="65" y="379" type="qcurve"/>
      <point x="177" y="386" type="line"/>
      <point x="171" y="350"/>
      <point x="171" y="311" type="qcurve" smooth="yes"/>
      <point x="171" y="205"/>
      <point x="225" y="143" type="qcurve"/>
      <point x="282" y="75"/>
      <point x="391" y="75" type="qcurve" smooth="yes"/>
      <point x="700" y="75"/>
      <point x="792" y="481" type="qcurve" smooth="yes"/>
      <point x="840" y="693"/>
      <point x="889" y="901" type="qcurve" smooth="yes"/>
      <point x="938" y="1109"/>
      <point x="987" y="1325" type="qcurve"/>
      <point x="452" y="1325" type="line"/>
      <point x="456" y="1344"/>
      <point x="462" y="1368" type="qcurve" smooth="yes"/>
      <point x="468" y="1391"/>
      <point x="472" y="1413" type="qcurve"/>
      <point x="1121" y="1413" type="line"/>
      <point x="907" y="485" type="line" smooth="yes"/>
      <point x="850" y="236"/>
      <point x="727" y="111" type="qcurve" smooth="yes"/>
      <point x="598" y="-20"/>
    </contour>
  </outline>
</glyph>
<glyph name="uni040D" format="2">
  <advance width="1454"/>
  <unicode hex="040D"/>
  <outline>
    <contour>
      <point x="1091" y="1557" type="line"/>
      <point x="974" y="1557" type="line"/>
      <point x="826" y="1829" type="line"/>
      <point x="951" y="1829" type="line"/>
    </contour>
    <contour>
      <point x="1107" y="0" type="line"/>
      <point x="995" y="0" type="line"/>
      <point x="1248" y="1102" type="line"/>
      <point x="1267" y="1181"/>
      <point x="1301" y="1268" type="qcurve"/>
      <point x="1290" y="1265"/>
      <point x="1287" y="1264" type="qcurve" smooth="yes"/>
      <point x="1283" y="1262"/>
      <point x="1278" y="1261" type="qcurve"/>
      <point x="525" y="314"/>
      <point x="275" y="0" type="qcurve"/>
      <point x="119" y="0" type="line"/>
      <point x="199" y="353"/>
      <point x="281" y="706" type="qcurve" smooth="yes"/>
      <point x="363" y="1059"/>
      <point x="444" y="1413" type="qcurve"/>
      <point x="556" y="1413" type="line"/>
      <point x="389" y="701"/>
      <point x="300" y="305" type="qcurve"/>
      <point x="282" y="230"/>
      <point x="248" y="140" type="qcurve"/>
      <point x="262" y="146"/>
      <point x="275" y="153" type="qcurve"/>
      <point x="1277" y="1413" type="line"/>
      <point x="1433" y="1413" type="line"/>
    </contour>
  </outline>
</glyph>
<glyph name="afii10062" format="2">
  <advance width="1136"/>
  <unicode hex="040E"/>
  <outline>
    <contour>
      <point x="832" y="1563" type="qcurve" smooth="yes"/>
      <point x="728" y="1563"/>
      <point x="658" y="1617" type="qcurve" smooth="yes"/>
      <point x="582" y="1677"/>
      <point x="582" y="1773" type="qcurve" smooth="yes"/>
      <point x="582" y="1807"/>
      <point x="589" y="1829" type="qcurve"/>
      <point x="684" y="1829" type="line"/>
      <point x="681" y="1815"/>
      <point x="681" y="1792" type="qcurve" smooth="yes"/>
      <point x="681" y="1726"/>
      <point x="764" y="1648"/>
      <point x="831" y="1648" type="qcurve" smooth="yes"/>
      <point x="912" y="1648"/>
      <point x="1062" y="1756"/>
      <point x="1082" y="1829" type="qcurve"/>
      <point x="1178" y="1829" type="line"/>
      <point x="1150" y="1708"/>
      <point x="1049" y="1634" type="qcurve" smooth="yes"/>
      <point x="952" y="1563"/>
    </contour>
    <contour>
      <point x="304" y="0" type="line"/>
      <point x="176" y="0" type="line"/>
      <point x="481" y="455" type="line"/>
      <point x="438" y="699"/>
      <point x="395" y="937" type="qcurve" smooth="yes"/>
      <point x="351" y="1175"/>
      <point x="310" y="1413" type="qcurve"/>
      <point x="434" y="1413" type="line"/>
      <point x="562" y="570" type="line"/>
      <point x="1117" y="1413" type="line"/>
      <point x="1255" y="1413" type="line"/>
    </contour>
  </outline>
</glyph>
<glyph name="Acyrillic" format="2">
  <advance width="1293"/>
  <unicode hex="0410"/>
  <outline>
    <contour>
      <point x="1089" y="0" type="line"/>
      <point x="969" y="0" type="line"/>
      <point x="930" y="308" type="line"/>
      <point x="280" y="308" type="line"/>
      <point x="95" y="0" type="line"/>
      <point x="-28" y="0" type="line"/>
      <point x="812" y="1413" type="line"/>
      <point x="901" y="1413" type="line"/>
    </contour>
    <contour>
      <point x="921" y="419" type="line"/>
      <point x="824" y="1251" type="line"/>
      <point x="337" y="419" type="line"/>
    </contour>
  </outline>
</glyph>
<glyph name="afii10018" format="2">
  <advance width="1247"/>
  <unicode hex="0411"/>
  <outline>
    <contour>
      <point x="549" y="0" type="qcurve" smooth="yes"/>
      <point x="119" y="0" type="line"/>
      <point x="199" y="353"/>
      <point x="281" y="706" type="qcurve" smooth="yes"/>
      <point x="363" y="1059"/>
      <point x="444" y="1413" type="qcurve"/>
      <point x="1156" y="1413" type="line"/>
      <point x="1132" y="1312" type="line"/>
      <point x="532" y="1312" type="line"/>
      <point x="409" y="769" type="line"/>
      <point x="753" y="769" type="line" smooth="yes"/>
      <point x="908" y="769"/>
      <point x="998" y="699" type="qcurve"/>
      <point x="1090" y="624"/>
      <point x="1090" y="488" type="qcurve" smooth="yes"/>
      <point x="1090" y="384"/>
      <point x="1015" y="207"/>
      <point x="875" y="76"/>
      <point x="674" y="0"/>
    </contour>
    <contour>
      <point x="569" y="103" type="line" smooth="yes"/>
      <point x="657" y="103"/>
      <point x="750" y="149" type="qcurve" smooth="yes"/>
      <point x="848" y="198"/>
      <point x="906" y="273" type="qcurve" smooth="yes"/>
      <point x="972" y="360"/>
      <point x="972" y="458" type="qcurve" smooth="yes"/>
      <point x="972" y="555"/>
      <point x="897" y="609" type="qcurve" smooth="yes"/>
      <point x="826" y="659"/>
      <point x="715" y="659" type="qcurve" smooth="yes"/>
      <point x="382" y="659" type="line"/>
      <point x="320" y="393"/>
      <point x="255" y="103" type="qcurve"/>
    </contour>
  </outline>
</glyph>
<glyph name="afii10021" format="2">
  <advance width="1466"/>
  <unicode hex="0414"/>
  <outline>
    <contour>
      <point x="1219" y="-233" type="line"/>
      <point x="1105" y="-233" type="line"/>
      <point x="1160" y="0" type="line"/>
      <point x="80" y="0" type="line"/>
      <point x="28" y="-233" type="line"/>
      <point x="-85" y="-233" type="line"/>
      <point x="-12" y="92" type="line"/>
      <point x="100" y="92" type="line"/>
      <point x="889" y="1413" type="line"/>
      <point x="998" y="1413" type="line"/>
      <point x="1180" y="92" type="line"/>
      <point x="1291" y="92" type="line"/>
    </contour>
    <contour>
      <point x="1073" y="92" type="line"/>
      <point x="925" y="1296" type="line"/>
      <point x="214" y="92" type="line"/>
    </contour>
  </outline>
</glyph>
<glyph name="afii10024" format="2">
  <advance width="1918"/>
  <unicode hex="0416"/>
  <outline>
    <contour>
      <point x="1700" y="0" type="qcurve"/>
      <point x="1569" y="0" type="line"/>
      <point x="1556" y="117"/>
      <point x="1541" y="235" type="qcurve" smooth="yes"/>
      <point x="1526" y="353"/>
      <point x="1512" y="472" type="qcurve" smooth="yes"/>
      <point x="1507" y="513"/>
      <point x="1503" y="557" type="qcurve" smooth="yes"/>
      <point x="1498" y="601"/>
      <point x="1466" y="676"/>
      <point x="1396" y="724"/>
      <point x="1330" y="724" type="qcurve" smooth="yes"/>
      <point x="1067" y="724" type="line"/>
      <point x="903" y="0" type="line"/>
      <point x="789" y="0" type="line"/>
      <point x="831" y="178"/>
      <point x="872" y="359" type="qcurve" smooth="yes"/>
      <point x="912" y="539"/>
      <point x="955" y="724" type="qcurve"/>
      <point x="704" y="724" type="line" smooth="yes"/>
      <point x="631" y="724"/>
      <point x="569" y="689" type="qcurve" smooth="yes"/>
      <point x="511" y="655"/>
      <point x="479" y="596" type="qcurve"/>
      <point x="120" y="0" type="line"/>
      <point x="-14" y="0" type="line"/>
      <point x="115" y="220"/>
      <point x="376" y="671" type="qcurve"/>
      <point x="399" y="714"/>
      <point x="474" y="755" type="qcurve"/>
      <point x="564" y="806"/>
      <point x="657" y="806" type="qcurve"/>
      <point x="570" y="1006"/>
      <point x="396" y="1413" type="qcurve"/>
      <point x="528" y="1413" type="line"/>
      <point x="594" y="1263"/>
      <point x="660" y="1114" type="qcurve" smooth="yes"/>
      <point x="726" y="965"/>
      <point x="794" y="811" type="qcurve"/>
      <point x="975" y="811" type="line"/>
      <point x="1115" y="1413" type="line"/>
      <point x="1228" y="1413" type="line"/>
      <point x="1087" y="811" type="line"/>
      <point x="1266" y="811" type="line"/>
      <point x="1580" y="1161"/>
      <point x="1808" y="1413" type="qcurve"/>
      <point x="1949" y="1413" type="line"/>
      <point x="1813" y="1266"/>
      <point x="1675" y="1115" type="qcurve" smooth="yes"/>
      <point x="1537" y="963"/>
      <point x="1392" y="806" type="qcurve"/>
      <point x="1445" y="806"/>
      <point x="1522" y="776"/>
      <point x="1580" y="731"/>
      <point x="1613" y="680"/>
      <point x="1615" y="660" type="qcurve" smooth="yes"/>
      <point x="1636" y="493"/>
      <point x="1678" y="163"/>
    </contour>
  </outline>
</glyph>
<glyph name="afii10025" format="2">
  <advance width="1109"/>
  <unicode hex="0417"/>
  <outline>
    <contour>
      <point x="413" y="-20" type="qcurve" smooth="yes"/>
      <point x="258" y="-20"/>
      <point x="58" y="104"/>
      <point x="36" y="217" type="qcurve"/>
      <point x="141" y="270" type="line"/>
      <point x="153" y="178"/>
      <point x="230" y="121" type="qcurve" smooth="yes"/>
      <point x="303" y="67"/>
      <point x="412" y="67" type="qcurve" smooth="yes"/>
      <point x="554" y="67"/>
      <point x="674" y="152" type="qcurve" smooth="yes"/>
      <point x="805" y="244"/>
      <point x="843" y="403" type="qcurve"/>
      <point x="852" y="444"/>
      <point x="852" y="478" type="qcurve" smooth="yes"/>
      <point x="852" y="583"/>
      <point x="774" y="643" type="qcurve" smooth="yes"/>
      <point x="699" y="699"/>
      <point x="572" y="699" type="qcurve" smooth="yes"/>
      <point x="387" y="699" type="line"/>
      <point x="413" y="803" type="line"/>
      <point x="592" y="803" type="line" smooth="yes"/>
      <point x="652" y="803"/>
      <point x="777" y="848"/>
      <point x="879" y="935"/>
      <point x="945" y="1063"/>
      <point x="945" y="1145" type="qcurve" smooth="yes"/>
      <point x="945" y="1235"/>
      <point x="825" y="1342"/>
      <point x="731" y="1342" type="qcurve" smooth="yes"/>
      <point x="674" y="1342"/>
      <point x="561" y="1302"/>
      <point x="464" y="1231"/>
      <point x="394" y="1130"/>
      <point x="382" y="1072" type="qcurve"/>
      <point x="276" y="1082" type="line"/>
      <point x="308" y="1238"/>
      <point x="438" y="1338" type="qcurve" smooth="yes"/>
      <point x="563" y="1434"/>
      <point x="730" y="1434" type="qcurve" smooth="yes"/>
      <point x="869" y="1434"/>
      <point x="956" y="1364" type="qcurve" smooth="yes"/>
      <point x="1046" y="1290"/>
      <point x="1046" y="1164" type="qcurve" smooth="yes"/>
      <point x="1046" y="1115"/>
      <point x="1034" y="1068" type="qcurve"/>
      <point x="986" y="862"/>
      <point x="771" y="756" type="qcurve"/>
      <point x="958" y="666"/>
      <point x="958" y="471" type="qcurve" smooth="yes"/>
      <point x="958" y="314"/>
      <point x="874" y="199" type="qcurve" smooth="yes"/>
      <point x="797" y="94"/>
      <point x="668" y="35" type="qcurve" smooth="yes"/>
      <point x="548" y="-20"/>
    </contour>
  </outline>
</glyph>
<glyph name="afii10029" format="2">
  <advance width="1323"/>
  <unicode hex="041B"/>
  <outline>
    <contour>
      <point x="1118" y="0" type="line"/>
      <point x="1009" y="0" type="line"/>
      <point x="851" y="1296" type="line"/>
      <point x="88" y="0" type="line"/>
      <point x="-28" y="0" type="line"/>
      <point x="815" y="1413" type="line"/>
      <point x="925" y="1413" type="line"/>
    </contour>
  </outline>
</glyph>
<glyph name="afii10036" format="2">
  <advance width="1260"/>
  <unicode hex="0422"/>
  <outline>
    <contour>
      <point x="572" y="0" type="line"/>
      <point x="459" y="0" type="line"/>
      <point x="765" y="1331" type="line"/>
      <point x="271" y="1331" type="line"/>
      <point x="290" y="1413" type="line"/>
      <point x="1393" y="1413" type="line"/>
      <point x="1373" y="1331" type="line"/>
      <point x="878" y="1331" type="line"/>
    </contour>
  </outline>
</glyph>
<glyph name="afii10037" format="2">
  <advance width="1136"/>
  <unicode hex="0423"/>
  <outline>
    <contour>
      <point x="304" y="0" type="line"/>
      <point x="176" y="0" type="line"/>
      <point x="481" y="455" type="line"/>
      <point x="310" y="1413" type="line"/>
      <point x="434" y="1413" type="line"/>
      <point x="562" y="570" type="line"/>
      <point x="1117" y="1413" type="line"/>
      <point x="1255" y="1413" type="line"/>
    </contour>
  </outline>
</glyph>
<glyph name="afii10038" format="2">
  <advance width="1673"/>
  <unicode hex="0424"/>
  <outline>
    <contour>
      <point x="780" y="0" type="qcurve"/>
      <point x="665" y="0" type="line"/>
      <point x="698" y="122" type="line"/>
      <point x="431" y="122"/>
      <point x="175" y="312"/>
      <point x="175" y="515" type="qcurve" smooth="yes"/>
      <point x="175" y="717"/>
      <point x="259" y="901" type="qcurve" smooth="yes"/>
      <point x="338" y="1073"/>
      <point x="461" y="1169" type="qcurve" smooth="yes"/>
      <point x="647" y="1313"/>
      <point x="962" y="1313" type="qcurve"/>
      <point x="970" y="1340"/>
      <point x="977" y="1365" type="qcurve" smooth="yes"/>
      <point x="984" y="1390"/>
      <point x="991" y="1413" type="qcurve"/>
      <point x="1105" y="1413" type="line"/>
      <point x="1077" y="1313" type="line"/>
      <point x="1596" y="1313"/>
      <point x="1596" y="906" type="qcurve" smooth="yes"/>
      <point x="1596" y="814"/>
      <point x="1569" y="696" type="qcurve" smooth="yes"/>
      <point x="1499" y="397"/>
      <point x="1138" y="122"/>
      <point x="814" y="122" type="qcurve"/>
      <point x="797" y="64"/>
    </contour>
    <contour>
      <point x="712" y="228" type="qcurve"/>
      <point x="948" y="1206" type="line"/>
      <point x="672" y="1206"/>
      <point x="357" y="953"/>
      <point x="300" y="696" type="qcurve" smooth="yes"/>
      <point x="279" y="603"/>
      <point x="279" y="531" type="qcurve" smooth="yes"/>
      <point x="279" y="372"/>
      <point x="484" y="228"/>
    </contour>
    <contour>
      <point x="826" y="228" type="line"/>
      <point x="1103" y="228"/>
      <point x="1410" y="462"/>
      <point x="1471" y="717" type="qcurve" smooth="yes"/>
      <point x="1492" y="805"/>
      <point x="1492" y="886" type="qcurve" smooth="yes"/>
      <point x="1492" y="1049"/>
      <point x="1284" y="1206"/>
      <point x="1063" y="1206" type="qcurve"/>
    </contour>
  </outline>
</glyph>
<glyph name="afii10041" format="2">
  <advance width="1326"/>
  <unicode hex="0427"/>
  <outline>
    <contour>
      <point x="978" y="0" type="qcurve"/>
      <point x="864" y="0" type="line"/>
      <point x="997" y="565" type="line"/>
      <point x="843" y="414"/>
      <point x="612" y="414" type="qcurve" smooth="yes"/>
      <point x="427" y="414"/>
      <point x="332" y="518" type="qcurve" smooth="yes"/>
      <point x="242" y="616"/>
      <point x="242" y="806" type="qcurve" smooth="yes"/>
      <point x="242" y="869"/>
      <point x="266" y="1017"/>
      <point x="301" y="1175"/>
      <point x="321" y="1257" type="qcurve" smooth="yes"/>
      <point x="341" y="1338"/>
      <point x="358" y="1413" type="qcurve"/>
      <point x="473" y="1413" type="line"/>
      <point x="455" y="1339"/>
      <point x="434" y="1254" type="qcurve" smooth="yes"/>
      <point x="352" y="922"/>
      <point x="352" y="794" type="qcurve" smooth="yes"/>
      <point x="352" y="520"/>
      <point x="615" y="520" type="qcurve" smooth="yes"/>
      <point x="723" y="520"/>
      <point x="943" y="611"/>
      <point x="1020" y="683" type="qcurve"/>
      <point x="1190" y="1413" type="line"/>
      <point x="1305" y="1413" type="line"/>
      <point x="1223" y="1060"/>
      <point x="1142" y="707" type="qcurve" smooth="yes"/>
      <point x="1061" y="354"/>
    </contour>
  </outline>
</glyph>
<glyph name="afii10042" format="2">
  <advance width="1739"/>
  <unicode hex="0428"/>
  <outline>
    <contour>
      <point x="1392" y="0" type="line"/>
      <point x="119" y="0" type="line"/>
      <point x="444" y="1413" type="line"/>
      <point x="556" y="1413" type="line"/>
      <point x="250" y="92" type="line"/>
      <point x="714" y="92" type="line"/>
      <point x="1020" y="1413" type="line"/>
      <point x="1135" y="1413" type="line"/>
      <point x="829" y="92" type="line"/>
      <point x="1299" y="92" type="line"/>
      <point x="1605" y="1413" type="line"/>
      <point x="1717" y="1413" type="line"/>
    </contour>
  </outline>
</glyph>
<glyph name="afii10043" format="2">
  <advance width="1747"/>
  <unicode hex="0429"/>
  <outline>
    <contour>
      <point x="1474" y="-233" type="line"/>
      <point x="1364" y="-233" type="line"/>
      <point x="1416" y="0" type="line"/>
      <point x="112" y="0" type="line"/>
      <point x="439" y="1413" type="line"/>
      <point x="550" y="1413" type="line"/>
      <point x="245" y="92" type="line"/>
      <point x="709" y="92" type="line"/>
      <point x="1015" y="1413" type="line"/>
      <point x="1130" y="1413" type="line"/>
      <point x="823" y="92" type="line"/>
      <point x="1294" y="92" type="line"/>
      <point x="1599" y="1413" type="line"/>
      <point x="1711" y="1413" type="line"/>
      <point x="1406" y="92" type="line"/>
      <point x="1548" y="92" type="line"/>
    </contour>
  </outline>
</glyph>
<glyph name="afii10047" format="2">
  <advance width="1422"/>
  <unicode hex="042D"/>
  <outline>
    <contour>
      <point x="554" y="-20" type="qcurve" smooth="yes"/>
      <point x="359" y="-20"/>
      <point x="111" y="168"/>
      <point x="76" y="347" type="qcurve"/>
      <point x="90" y="351"/>
      <point x="103" y="355" type="qcurve" smooth="yes"/>
      <point x="145" y="368" type="line" smooth="yes"/>
      <point x="166" y="375"/>
      <point x="185" y="380" type="qcurve"/>
      <point x="222" y="81"/>
      <point x="557" y="81" type="qcurve" smooth="yes"/>
      <point x="800" y="81"/>
      <point x="975" y="254" type="qcurve"/>
      <point x="1138" y="413"/>
      <point x="1211" y="688" type="qcurve"/>
      <point x="549" y="683" type="line"/>
      <point x="553" y="696"/>
      <point x="573" y="767" type="qcurve"/>
      <point x="1232" y="772" type="line"/>
      <point x="1241" y="860"/>
      <point x="1241" y="934" type="qcurve" smooth="yes"/>
      <point x="1241" y="1121"/>
      <point x="1151" y="1224" type="qcurve" smooth="yes"/>
      <point x="1055" y="1334"/>
      <point x="869" y="1334" type="qcurve" smooth="yes"/>
      <point x="698" y="1334"/>
      <point x="561" y="1257" type="qcurve" smooth="yes"/>
      <point x="414" y="1174"/>
      <point x="339" y="1026" type="qcurve"/>
      <point x="241" y="1080" type="line"/>
      <point x="358" y="1254"/>
      <point x="679" y="1436"/>
      <point x="871" y="1436" type="qcurve" smooth="yes"/>
      <point x="1107" y="1436"/>
      <point x="1233" y="1300" type="qcurve" smooth="yes"/>
      <point x="1352" y="1170"/>
      <point x="1352" y="939" type="qcurve" smooth="yes"/>
      <point x="1352" y="812"/>
      <point x="1321" y="684" type="qcurve" smooth="yes"/>
      <point x="1257" y="420"/>
      <point x="1095" y="230" type="qcurve" smooth="yes"/>
      <point x="880" y="-20"/>
    </contour>
  </outline>
</glyph>
<glyph name="afii10049" format="2">
  <advance width="1206"/>
  <unicode hex="042F"/>
  <outline>
    <contour>
      <point x="857" y="-2" type="line"/>
      <point x="743" y="-2" type="line"/>
      <point x="891" y="646" type="line"/>
      <point x="625" y="646" type="line"/>
      <point x="496" y="482"/>
      <point x="371" y="321" type="qcurve" smooth="yes"/>
      <point x="246" y="160"/>
      <point x="118" y="-2" type="qcurve"/>
      <point x="-12" y="-2" type="line"/>
      <point x="513" y="662" type="line"/>
      <point x="291" y="749"/>
      <point x="291" y="971" type="qcurve" smooth="yes"/>
      <point x="291" y="1187"/>
      <point x="442" y="1304" type="qcurve" smooth="yes"/>
      <point x="580" y="1411"/>
      <point x="806" y="1411" type="qcurve" smooth="yes"/>
      <point x="1181" y="1411" type="line"/>
    </contour>
    <contour>
      <point x="917" y="762" type="line"/>
      <point x="1042" y="1311" type="line"/>
      <point x="769" y="1311" type="line" smooth="yes"/>
      <point x="614" y="1311"/>
      <point x="508" y="1222" type="qcurve" smooth="yes"/>
      <point x="394" y="1126"/>
      <point x="394" y="971" type="qcurve" smooth="yes"/>
      <point x="394" y="877"/>
      <point x="521" y="766"/>
      <point x="631" y="762" type="qcurve"/>
    </contour>
  </outline>
</glyph>
<glyph name="afii10066" format="2">
  <advance width="1164"/>
  <unicode hex="0431"/>
  <outline>
    <contour>
      <point x="513" y="-20" type="qcurve" smooth="yes"/>
      <point x="359" y="-20"/>
      <point x="268" y="81" type="qcurve" smooth="yes"/>
      <point x="180" y="178"/>
      <point x="180" y="335" type="qcurve" smooth="yes"/>
      <point x="180" y="367"/>
      <point x="186" y="406" type="qcurve" smooth="yes"/>
      <point x="195" y="461"/>
      <point x="220" y="571" type="qcurve" smooth="yes"/>
      <point x="235" y="635"/>
      <point x="265" y="778" type="qcurve"/>
      <point x="295" y="914"/>
      <point x="336" y="1006" type="qcurve" smooth="yes"/>
      <point x="387" y="1118"/>
      <point x="498" y="1197" type="qcurve" smooth="yes"/>
      <point x="600" y="1269"/>
      <point x="768" y="1334" type="qcurve" smooth="yes"/>
      <point x="934" y="1398" type="line"/>
      <point x="1035" y="1435" type="line"/>
      <point x="1020" y="1331" type="line"/>
      <point x="926" y="1290"/>
      <point x="854" y="1260" type="qcurve" smooth="yes"/>
      <point x="624" y="1162"/>
      <point x="558" y="1114" type="qcurve" smooth="yes"/>
      <point x="500" y="1073"/>
      <point x="455" y="1008" type="qcurve" smooth="yes"/>
      <point x="389" y="911"/>
      <point x="370" y="785" type="qcurve"/>
      <point x="448" y="863"/>
      <point x="538" y="907" type="qcurve" smooth="yes"/>
      <point x="640" y="956"/>
      <point x="737" y="956" type="qcurve" smooth="yes"/>
      <point x="890" y="956"/>
      <point x="1064" y="758"/>
      <point x="1064" y="597" type="qcurve" smooth="yes"/>
      <point x="1064" y="440"/>
      <point x="914" y="155"/>
      <point x="790" y="70" type="qcurve" smooth="yes"/>
      <point x="658" y="-20"/>
    </contour>
    <contour>
      <point x="510" y="62" type="qcurve" smooth="yes"/>
      <point x="675" y="62"/>
      <point x="790" y="185" type="qcurve" smooth="yes"/>
      <point x="892" y="293"/>
      <point x="935" y="477" type="qcurve"/>
      <point x="949" y="543"/>
      <point x="951" y="617" type="qcurve"/>
      <point x="951" y="733"/>
      <point x="891" y="794" type="qcurve" smooth="yes"/>
      <point x="835" y="851"/>
      <point x="717" y="851" type="qcurve" smooth="yes"/>
      <point x="554" y="851"/>
      <point x="445" y="745" type="qcurve" smooth="yes"/>
      <point x="336" y="640"/>
      <point x="296" y="457" type="qcurve"/>
      <point x="278" y="368"/>
      <point x="278" y="314" type="qcurve" smooth="yes"/>
      <point x="278" y="197"/>
      <point x="334" y="132" type="qcurve"/>
      <point x="392" y="62"/>
    </contour>
  </outline>
</glyph>
<glyph name="afii10067" format="2">
  <advance width="1131"/>
  <unicode hex="0432"/>
  <outline>
    <contour>
      <point x="463" y="-20" type="qcurve" smooth="yes"/>
      <point x="278" y="-20"/>
      <point x="120" y="111"/>
      <point x="120" y="269" type="qcurve" smooth="yes"/>
      <point x="120" y="376"/>
      <point x="149" y="497" type="qcurve"/>
      <point x="264" y="991" type="line"/>
      <point x="364" y="1434"/>
      <point x="751" y="1434" type="qcurve" smooth="yes"/>
      <point x="914" y="1434"/>
      <point x="1086" y="1309"/>
      <point x="1086" y="1185" type="qcurve"/>
      <point x="1085" y="1160" type="line"/>
      <point x="1072" y="1004"/>
      <point x="931" y="898" type="qcurve" smooth="yes"/>
      <point x="867" y="849"/>
      <point x="757" y="828" type="qcurve"/>
      <point x="793" y="828" type="line" smooth="yes"/>
      <point x="885" y="828"/>
      <point x="940" y="748" type="qcurve" smooth="yes"/>
      <point x="990" y="673"/>
      <point x="990" y="556" type="qcurve" smooth="yes"/>
      <point x="990" y="388"/>
      <point x="897" y="238" type="qcurve" smooth="yes"/>
      <point x="813" y="103"/>
      <point x="691" y="37" type="qcurve" smooth="yes"/>
      <point x="584" y="-20"/>
    </contour>
    <contour>
      <point x="447" y="67" type="qcurve" smooth="yes"/>
      <point x="620" y="67"/>
      <point x="722" y="170" type="qcurve" smooth="yes"/>
      <point x="816" y="264"/>
      <point x="847" y="396" type="qcurve"/>
      <point x="876" y="514"/>
      <point x="876" y="561" type="qcurve" smooth="yes"/>
      <point x="876" y="667"/>
      <point x="814" y="725" type="qcurve" smooth="yes"/>
      <point x="755" y="780"/>
      <point x="658" y="780" type="qcurve" smooth="yes"/>
      <point x="507" y="780"/>
      <point x="427" y="718" type="qcurve"/>
      <point x="438" y="813" type="line"/>
      <point x="532" y="860"/>
      <point x="718" y="865" type="qcurve" smooth="yes"/>
      <point x="792" y="867"/>
      <point x="853" y="928" type="qcurve" smooth="yes"/>
      <point x="903" y="978"/>
      <point x="936" y="1061" type="qcurve" smooth="yes"/>
      <point x="965" y="1131"/>
      <point x="965" y="1188" type="qcurve" smooth="yes"/>
      <point x="965" y="1268"/>
      <point x="857" y="1342"/>
      <point x="749" y="1342" type="qcurve" smooth="yes"/>
      <point x="534" y="1342"/>
      <point x="452" y="1215" type="qcurve" smooth="yes"/>
      <point x="408" y="1146"/>
      <point x="380" y="1030" type="qcurve"/>
      <point x="251" y="479" type="line" smooth="yes"/>
      <point x="219" y="342"/>
      <point x="219" y="255" type="qcurve" smooth="yes"/>
      <point x="219" y="144"/>
      <point x="274" y="103" type="qcurve" smooth="yes"/>
      <point x="322" y="67"/>
    </contour>
  </outline>
</glyph>
<glyph name="afii10068" format="2">
  <advance width="857"/>
  <unicode hex="0433"/>
  <outline>
    <contour>
      <point x="293" y="-20" type="qcurve" smooth="yes"/>
      <point x="145" y="-20"/>
      <point x="74" y="41" type="qcurve" smooth="yes"/>
      <point x="16" y="92"/>
      <point x="16" y="171" type="qcurve" smooth="yes"/>
      <point x="16" y="198"/>
      <point x="23" y="229" type="qcurve" smooth="yes"/>
      <point x="41" y="306"/>
      <point x="114" y="406"/>
      <point x="214" y="476"/>
      <point x="337" y="524"/>
      <point x="467" y="566"/>
      <point x="565" y="605"/>
      <point x="639" y="653"/>
      <point x="685" y="715"/>
      <point x="694" y="758" type="qcurve" smooth="yes"/>
      <point x="700" y="783"/>
      <point x="700" y="804" type="qcurve" smooth="yes"/>
      <point x="700" y="906"/>
      <point x="549" y="906" type="qcurve" smooth="yes"/>
      <point x="392" y="906"/>
      <point x="293" y="777" type="qcurve"/>
      <point x="217" y="828" type="line"/>
      <point x="281" y="912"/>
      <point x="369" y="960" type="qcurve" smooth="yes"/>
      <point x="465" y="1012"/>
      <point x="573" y="1012" type="qcurve" smooth="yes"/>
      <point x="693" y="1012"/>
      <point x="762" y="942" type="qcurve" smooth="yes"/>
      <point x="813" y="891"/>
      <point x="813" y="819" type="qcurve" smooth="yes"/>
      <point x="813" y="786"/>
      <point x="795" y="727" type="qcurve"/>
      <point x="742" y="574"/>
      <point x="584" y="512" type="qcurve" smooth="yes"/>
      <point x="520" y="486"/>
      <point x="392" y="444" type="qcurve" smooth="yes"/>
      <point x="273" y="405"/>
      <point x="194" y="344" type="qcurve"/>
      <point x="145" y="299"/>
      <point x="128" y="228" type="qcurve" smooth="yes"/>
      <point x="123" y="205"/>
      <point x="123" y="185" type="qcurve" smooth="yes"/>
      <point x="123" y="134"/>
      <point x="158" y="108" type="qcurve" smooth="yes"/>
      <point x="199" y="77"/>
      <point x="307" y="77" type="qcurve" smooth="yes"/>
      <point x="394" y="77"/>
      <point x="481" y="132" type="qcurve" smooth="yes"/>
      <point x="572" y="190"/>
      <point x="615" y="267" type="qcurve"/>
      <point x="692" y="209" type="line"/>
      <point x="640" y="113"/>
      <point x="532" y="48" type="qcurve" smooth="yes"/>
      <point x="418" y="-20"/>
    </contour>
  </outline>
</glyph>
<glyph name="afii10073" format="2">
  <advance width="887"/>
  <unicode hex="0437"/>
  <outline>
    <contour>
      <point x="182" y="-465" type="qcurve" smooth="yes"/>
      <point x="104" y="-465"/>
      <point x="6" y="-442"/>
      <point x="-64" y="-399"/>
      <point x="-93" y="-369" type="qcurve" smooth="yes"/>
      <point x="-122" y="-338"/>
      <point x="-158" y="-302" type="qcurve"/>
      <point x="-84" y="-247" type="line"/>
      <point x="-45" y="-309"/>
      <point x="71" y="-370"/>
      <point x="165" y="-370" type="qcurve" smooth="yes"/>
      <point x="321" y="-370"/>
      <point x="428" y="-261" type="qcurve"/>
      <point x="527" y="-154"/>
      <point x="571" y="37" type="qcurve" smooth="yes"/>
      <point x="586" y="102"/>
      <point x="586" y="142" type="qcurve" smooth="yes"/>
      <point x="586" y="245"/>
      <point x="519" y="305" type="qcurve" smooth="yes"/>
      <point x="460" y="357"/>
      <point x="358" y="357" type="qcurve" smooth="yes"/>
      <point x="145" y="357" type="line"/>
      <point x="165" y="449" type="line"/>
      <point x="428" y="451" type="line"/>
      <point x="502" y="470"/>
      <point x="635" y="615"/>
      <point x="657" y="687" type="qcurve"/>
      <point x="672" y="756"/>
      <point x="672" y="783" type="qcurve" smooth="yes"/>
      <point x="672" y="864"/>
      <point x="579" y="918"/>
      <point x="466" y="918" type="qcurve" smooth="yes"/>
      <point x="383" y="918"/>
      <point x="222" y="847"/>
      <point x="176" y="777" type="qcurve"/>
      <point x="118" y="838" type="line"/>
      <point x="179" y="913"/>
      <point x="363" y="1010"/>
      <point x="462" y="1010" type="qcurve" smooth="yes"/>
      <point x="779" y="1010"/>
      <point x="779" y="779" type="qcurve" smooth="yes"/>
      <point x="779" y="728"/>
      <point x="766" y="678" type="qcurve" smooth="yes"/>
      <point x="751" y="618"/>
      <point x="715" y="560" type="qcurve" smooth="yes"/>
      <point x="671" y="489"/>
      <point x="598" y="445" type="qcurve" smooth="yes"/>
      <point x="558" y="422"/>
      <point x="483" y="403" type="qcurve"/>
      <point x="511" y="403" type="line" smooth="yes"/>
      <point x="597" y="403"/>
      <point x="695" y="253"/>
      <point x="695" y="138" type="qcurve" smooth="yes"/>
      <point x="695" y="53"/>
      <point x="671" y="-29" type="qcurve" smooth="yes"/>
      <point x="623" y="-194"/>
      <point x="513" y="-313" type="qcurve" smooth="yes"/>
      <point x="373" y="-465"/>
    </contour>
  </outline>
</glyph>
<glyph name="afii10076" format="2">
  <advance width="947"/>
  <unicode hex="043A"/>
  <outline>
    <contour>
      <point x="767" y="0" type="qcurve"/>
      <point x="646" y="0" type="line"/>
      <point x="620" y="279"/>
      <point x="608" y="378" type="qcurve"/>
      <point x="600" y="456"/>
      <point x="534" y="520"/>
      <point x="470" y="520" type="qcurve" smooth="yes"/>
      <point x="306" y="520" type="line"/>
      <point x="235" y="212"/>
      <point x="188" y="0" type="qcurve"/>
      <point x="81" y="0" type="line"/>
      <point x="161" y="353"/>
      <point x="243" y="706" type="qcurve" smooth="yes"/>
      <point x="325" y="1059"/>
      <point x="406" y="1413" type="qcurve"/>
      <point x="512" y="1413" type="line"/>
      <point x="329" y="620" type="line"/>
      <point x="486" y="620" type="line"/>
      <point x="791" y="997" type="line"/>
      <point x="929" y="997" type="line"/>
      <point x="588" y="586" type="line"/>
      <point x="639" y="586"/>
      <point x="669" y="536" type="qcurve" smooth="yes"/>
      <point x="696" y="489"/>
      <point x="705" y="419" type="qcurve"/>
      <point x="728" y="255"/>
    </contour>
  </outline>
</glyph>
<glyph name="afii10077" format="2">
  <advance width="928"/>
  <unicode hex="043B"/>
  <outline>
    <contour>
      <point x="757" y="0" type="line"/>
      <point x="643" y="0" type="line"/>
      <point x="551" y="865" type="line"/>
      <point x="56" y="0" type="line"/>
      <point x="-58" y="0" type="line"/>
      <point x="529" y="997" type="line"/>
      <point x="632" y="997" type="line"/>
    </contour>
  </outline>
</glyph>
<glyph name="afii10079" format="2">
  <advance width="1151"/>
  <unicode hex="043D"/>
  <outline>
    <contour>
      <point x="842" y="0" type="line"/>
      <point x="739" y="0" type="line"/>
      <point x="855" y="504" type="line"/>
      <point x="303" y="504" type="line"/>
      <point x="187" y="0" type="line"/>
      <point x="81" y="0" type="line"/>
      <point x="309" y="997" type="line"/>
      <point x="416" y="997" type="line"/>
      <point x="322" y="591" type="line"/>
      <point x="873" y="591" type="line"/>
      <point x="966" y="997" type="line"/>
      <point x="1070" y="997" type="line"/>
    </contour>
  </outline>
</glyph>
<glyph name="afii10081" format="2">
  <advance width="1124"/>
  <unicode hex="043F"/>
  <outline>
    <contour>
      <point x="845" y="0" type="line"/>
      <point x="741" y="0" type="line"/>
      <point x="880" y="604" type="line" smooth="yes"/>
      <point x="895" y="672"/>
      <point x="895" y="727" type="qcurve" smooth="yes"/>
      <point x="895" y="912"/>
      <point x="726" y="912" type="qcurve" smooth="yes"/>
      <point x="658" y="912"/>
      <point x="524" y="855"/>
      <point x="412" y="761"/>
      <point x="330" y="636"/>
      <point x="315" y="568" type="qcurve" smooth="yes"/>
      <point x="282" y="425"/>
      <point x="217" y="141"/>
      <point x="185" y="0" type="qcurve"/>
      <point x="81" y="0" type="line"/>
      <point x="137" y="248"/>
      <point x="195" y="498" type="qcurve" smooth="yes"/>
      <point x="253" y="748"/>
      <point x="309" y="997" type="qcurve"/>
      <point x="413" y="997" type="line"/>
      <point x="368" y="816" type="line"/>
      <point x="437" y="909"/>
      <point x="636" y="1014"/>
      <point x="734" y="1014" type="qcurve" smooth="yes"/>
      <point x="868" y="1014"/>
      <point x="936" y="941" type="qcurve" smooth="yes"/>
      <point x="1000" y="873"/>
      <point x="1000" y="746" type="qcurve" smooth="yes"/>
      <point x="1000" y="676"/>
      <point x="984" y="608" type="qcurve" smooth="yes"/>
    </contour>
  </outline>
</glyph>
<glyph name="afii10082" format="2">
  <advance width="1123"/>
  <unicode hex="0440"/>
  <outline>
    <contour>
      <point x="82" y="-440" type="line"/>
      <point x="-22" y="-440" type="line"/>
      <point x="61" y="-81"/>
      <point x="144" y="278" type="qcurve" smooth="yes"/>
      <point x="226" y="637"/>
      <point x="310" y="997" type="qcurve"/>
      <point x="414" y="997" type="line"/>
      <point x="405" y="964"/>
      <point x="397" y="928" type="qcurve" smooth="yes"/>
      <point x="388" y="891"/>
      <point x="374" y="841" type="qcurve"/>
      <point x="526" y="1018"/>
      <point x="734" y="1018" type="qcurve" smooth="yes"/>
      <point x="878" y="1018"/>
      <point x="1036" y="830"/>
      <point x="1036" y="667" type="qcurve" smooth="yes"/>
      <point x="1036" y="574"/>
      <point x="1014" y="481" type="qcurve" smooth="yes"/>
      <point x="969" y="295"/>
      <point x="857" y="157" type="qcurve" smooth="yes"/>
      <point x="714" y="-20"/>
      <point x="515" y="-20" type="qcurve" smooth="yes"/>
      <point x="404" y="-20"/>
      <point x="263" y="68"/>
      <point x="224" y="168" type="qcurve"/>
    </contour>
    <contour>
      <point x="485" y="67" type="qcurve" smooth="yes"/>
      <point x="632" y="67"/>
      <point x="864" y="308"/>
      <point x="911" y="507" type="qcurve"/>
      <point x="930" y="598"/>
      <point x="930" y="664" type="qcurve" smooth="yes"/>
      <point x="930" y="784"/>
      <point x="818" y="926"/>
      <point x="705" y="926" type="qcurve" smooth="yes"/>
      <point x="548" y="926"/>
      <point x="434" y="797" type="qcurve" smooth="yes"/>
      <point x="333" y="681"/>
      <point x="285" y="486" type="qcurve" smooth="yes"/>
      <point x="265" y="407"/>
      <point x="265" y="327" type="qcurve" smooth="yes"/>
      <point x="265" y="206"/>
      <point x="318" y="140" type="qcurve"/>
      <point x="374" y="67"/>
    </contour>
  </outline>
</glyph>
<glyph name="afii10084" format="2">
  <advance width="1706"/>
  <unicode hex="0442"/>
  <outline>
    <contour>
      <point x="1427" y="0" type="line"/>
      <point x="1321" y="0" type="line"/>
      <point x="1461" y="604" type="line"/>
      <point x="1479" y="688"/>
      <point x="1479" y="741" type="qcurve" smooth="yes"/>
      <point x="1479" y="832"/>
      <point x="1440" y="880" type="qcurve" smooth="yes"/>
      <point x="1397" y="934"/>
      <point x="1309" y="934" type="qcurve" smooth="yes"/>
      <point x="1179" y="934"/>
      <point x="1071" y="820" type="qcurve" smooth="yes"/>
      <point x="970" y="714"/>
      <point x="938" y="571" type="qcurve" smooth="yes"/>
      <point x="906" y="427"/>
      <point x="872" y="284" type="qcurve" smooth="yes"/>
      <point x="837" y="141"/>
      <point x="806" y="0" type="qcurve"/>
      <point x="699" y="0" type="line"/>
      <point x="839" y="608" type="line"/>
      <point x="856" y="689"/>
      <point x="856" y="747" type="qcurve" smooth="yes"/>
      <point x="856" y="934"/>
      <point x="690" y="934" type="qcurve" smooth="yes"/>
      <point x="561" y="934"/>
      <point x="452" y="820" type="qcurve" smooth="yes"/>
      <point x="354" y="717"/>
      <point x="319" y="570" type="qcurve"/>
      <point x="287" y="427"/>
      <point x="254" y="284" type="qcurve" smooth="yes"/>
      <point x="220" y="141"/>
      <point x="187" y="0" type="qcurve"/>
      <point x="81" y="0" type="line"/>
      <point x="137" y="248"/>
      <point x="195" y="498" type="qcurve" smooth="yes"/>
      <point x="253" y="748"/>
      <point x="309" y="997" type="qcurve"/>
      <point x="416" y="997" type="line"/>
      <point x="366" y="784" type="line"/>
      <point x="427" y="900"/>
      <point x="598" y="1016"/>
      <point x="695" y="1016" type="qcurve" smooth="yes"/>
      <point x="811" y="1016"/>
      <point x="956" y="899"/>
      <point x="967" y="786" type="qcurve"/>
      <point x="1103" y="1014"/>
      <point x="1314" y="1014" type="qcurve" smooth="yes"/>
      <point x="1449" y="1014"/>
      <point x="1519" y="941" type="qcurve" smooth="yes"/>
      <point x="1583" y="873"/>
      <point x="1583" y="746" type="qcurve" smooth="yes"/>
      <point x="1583" y="676"/>
      <point x="1567" y="608" type="qcurve" smooth="yes"/>
    </contour>
  </outline>
</glyph>
<glyph name="afii10085" format="2">
  <advance width="969"/>
  <unicode hex="0443"/>
  <outline>
    <contour>
      <point x="171" y="-432" type="line"/>
      <point x="67" y="-432" type="line"/>
      <point x="325" y="-5" type="line"/>
      <point x="178" y="997" type="line"/>
      <point x="294" y="997" type="line"/>
      <point x="398" y="121" type="line"/>
      <point x="904" y="997" type="line"/>
      <point x="1021" y="997" type="line"/>
    </contour>
  </outline>
</glyph>
<glyph name="afii10086" format="2">
  <advance width="1362"/>
  <unicode hex="0444"/>
  <outline>
    <contour>
      <point x="519" y="-432" type="line"/>
      <point x="413" y="-432" type="line"/>
      <point x="516" y="-15" type="line"/>
      <point x="485" y="-20"/>
      <point x="446" y="-20" type="qcurve" smooth="yes"/>
      <point x="280" y="-20"/>
      <point x="182" y="88" type="qcurve" smooth="yes"/>
      <point x="87" y="192"/>
      <point x="87" y="363" type="qcurve" smooth="yes"/>
      <point x="87" y="512"/>
      <point x="239" y="816"/>
      <point x="364" y="909" type="qcurve" smooth="yes"/>
      <point x="502" y="1010"/>
      <point x="662" y="1010" type="qcurve" smooth="yes"/>
      <point x="697" y="1010"/>
      <point x="738" y="1002" type="qcurve"/>
      <point x="765" y="1108"/>
      <point x="790" y="1210" type="qcurve" smooth="yes"/>
      <point x="814" y="1312"/>
      <point x="840" y="1413" type="qcurve"/>
      <point x="946" y="1413" type="line"/>
      <point x="844" y="1006" type="line"/>
      <point x="873" y="1010"/>
      <point x="913" y="1010" type="qcurve" smooth="yes"/>
      <point x="1077" y="1010"/>
      <point x="1273" y="795"/>
      <point x="1273" y="627" type="qcurve" smooth="yes"/>
      <point x="1273" y="468"/>
      <point x="1116" y="169"/>
      <point x="987" y="78" type="qcurve" smooth="yes"/>
      <point x="850" y="-20"/>
      <point x="696" y="-20" type="qcurve" smooth="yes"/>
      <point x="665" y="-20"/>
      <point x="622" y="-11" type="qcurve"/>
    </contour>
    <contour>
      <point x="448" y="74" type="qcurve" smooth="yes"/>
      <point x="493" y="74"/>
      <point x="525" y="81" type="qcurve"/>
      <point x="577" y="291"/>
      <point x="626" y="495" type="qcurve" smooth="yes"/>
      <point x="675" y="699"/>
      <point x="727" y="910" type="qcurve"/>
      <point x="704" y="915"/>
      <point x="659" y="915" type="qcurve" smooth="yes"/>
      <point x="491" y="915"/>
      <point x="373" y="788" type="qcurve" smooth="yes"/>
      <point x="265" y="671"/>
      <point x="222" y="484" type="qcurve"/>
      <point x="202" y="410"/>
      <point x="202" y="334" type="qcurve" smooth="yes"/>
      <point x="202" y="74"/>
    </contour>
    <contour>
      <point x="680" y="74" type="qcurve" smooth="yes"/>
      <point x="853" y="74"/>
      <point x="975" y="192" type="qcurve" smooth="yes"/>
      <point x="1091" y="304"/>
      <point x="1138" y="506" type="qcurve"/>
      <point x="1158" y="586"/>
      <point x="1158" y="654" type="qcurve" smooth="yes"/>
      <point x="1158" y="777"/>
      <point x="1100" y="844" type="qcurve"/>
      <point x="1035" y="915"/>
      <point x="911" y="915" type="qcurve" smooth="yes"/>
      <point x="879" y="915"/>
      <point x="835" y="907" type="qcurve"/>
      <point x="632" y="78" type="line"/>
      <point x="640" y="74"/>
    </contour>
  </outline>
</glyph>
<glyph name="afii10088" format="2">
  <advance width="1126"/>
  <unicode hex="0446"/>
  <outline>
    <contour>
      <point x="848" y="-308" type="line"/>
      <point x="777" y="-308" type="line"/>
      <point x="849" y="-23" type="line"/>
      <point x="796" y="-23"/>
      <point x="736" y="58"/>
      <point x="736" y="121" type="qcurve"/>
      <point x="738" y="161"/>
      <point x="758" y="215" type="qcurve"/>
      <point x="721" y="155"/>
      <point x="649" y="81"/>
      <point x="555" y="18"/>
      <point x="441" y="-23"/>
      <point x="380" y="-23" type="qcurve" smooth="yes"/>
      <point x="245" y="-23"/>
      <point x="179" y="51" type="qcurve" smooth="yes"/>
      <point x="115" y="121"/>
      <point x="115" y="252" type="qcurve" smooth="yes"/>
      <point x="115" y="324"/>
      <point x="134" y="406" type="qcurve" smooth="yes"/>
      <point x="269" y="997" type="line"/>
      <point x="375" y="997" type="line"/>
      <point x="237" y="387" type="line"/>
      <point x="217" y="307"/>
      <point x="217" y="244" type="qcurve" smooth="yes"/>
      <point x="217" y="58"/>
      <point x="379" y="58" type="qcurve" smooth="yes"/>
      <point x="441" y="58"/>
      <point x="574" y="115"/>
      <point x="632" y="163" type="qcurve" smooth="yes"/>
      <point x="759" y="270"/>
      <point x="799" y="416" type="qcurve"/>
      <point x="867" y="709"/>
      <point x="932" y="997" type="qcurve"/>
      <point x="1038" y="997" type="line"/>
      <point x="992" y="797"/>
      <point x="946" y="597" type="qcurve" smooth="yes"/>
      <point x="900" y="396"/>
      <point x="852" y="194" type="qcurve" smooth="yes"/>
      <point x="846" y="167"/>
      <point x="846" y="145" type="qcurve" smooth="yes"/>
      <point x="846" y="41"/>
      <point x="956" y="41" type="qcurve"/>
    </contour>
  </outline>
</glyph>
<glyph name="afii10089" format="2">
  <advance width="1078"/>
  <unicode hex="0447"/>
  <outline>
    <contour>
      <point x="767" y="0" type="qcurve"/>
      <point x="662" y="0" type="line"/>
      <point x="770" y="466" type="line"/>
      <point x="718" y="375"/>
      <point x="619" y="314" type="qcurve" smooth="yes"/>
      <point x="508" y="245"/>
      <point x="401" y="245" type="qcurve" smooth="yes"/>
      <point x="266" y="245"/>
      <point x="199" y="318" type="qcurve" smooth="yes"/>
      <point x="135" y="388"/>
      <point x="135" y="519" type="qcurve" smooth="yes"/>
      <point x="135" y="589"/>
      <point x="154" y="673" type="qcurve" smooth="yes"/>
      <point x="173" y="756"/>
      <point x="191" y="837" type="qcurve" smooth="yes"/>
      <point x="209" y="917"/>
      <point x="229" y="997" type="qcurve"/>
      <point x="334" y="997" type="line"/>
      <point x="257" y="655" type="line"/>
      <point x="238" y="565"/>
      <point x="238" y="511" type="qcurve" smooth="yes"/>
      <point x="238" y="325"/>
      <point x="399" y="325" type="qcurve" smooth="yes"/>
      <point x="465" y="325"/>
      <point x="601" y="385"/>
      <point x="717" y="486"/>
      <point x="804" y="618"/>
      <point x="821" y="690" type="qcurve" smooth="yes"/>
      <point x="839" y="769"/>
      <point x="856" y="845" type="qcurve" smooth="yes"/>
      <point x="873" y="921"/>
      <point x="892" y="997" type="qcurve"/>
      <point x="998" y="997" type="line"/>
      <point x="940" y="749"/>
      <point x="826" y="250"/>
    </contour>
  </outline>
</glyph>
<glyph name="afii10091" format="2">
  <advance width="1708"/>
  <unicode hex="0449"/>
  <outline>
    <contour>
      <point x="1429" y="-308" type="line"/>
      <point x="1356" y="-308" type="line"/>
      <point x="1429" y="-23" type="line"/>
      <point x="1378" y="-23"/>
      <point x="1317" y="63"/>
      <point x="1317" y="128" type="qcurve"/>
      <point x="1319" y="165"/>
      <point x="1337" y="222" type="qcurve"/>
      <point x="1210" y="-18"/>
      <point x="1004" y="-18" type="qcurve" smooth="yes"/>
      <point x="885" y="-18"/>
      <point x="740" y="99"/>
      <point x="733" y="213" type="qcurve"/>
      <point x="658" y="90"/>
      <point x="491" y="-16"/>
      <point x="385" y="-16" type="qcurve" smooth="yes"/>
      <point x="116" y="-16"/>
      <point x="116" y="252" type="qcurve" smooth="yes"/>
      <point x="116" y="321"/>
      <point x="132" y="391" type="qcurve" smooth="yes"/>
      <point x="272" y="997" type="line"/>
      <point x="377" y="997" type="line"/>
      <point x="239" y="393" type="line"/>
      <point x="221" y="325"/>
      <point x="221" y="256" type="qcurve" smooth="yes"/>
      <point x="221" y="62"/>
      <point x="388" y="62" type="qcurve" smooth="yes"/>
      <point x="514" y="62"/>
      <point x="622" y="173" type="qcurve" smooth="yes"/>
      <point x="726" y="279"/>
      <point x="762" y="426" type="qcurve"/>
      <point x="862" y="866"/>
      <point x="894" y="997" type="qcurve"/>
      <point x="999" y="997" type="line"/>
      <point x="859" y="389" type="line" smooth="yes"/>
      <point x="841" y="312"/>
      <point x="841" y="250" type="qcurve" smooth="yes"/>
      <point x="841" y="62"/>
      <point x="1008" y="62" type="qcurve" smooth="yes"/>
      <point x="1134" y="62"/>
      <point x="1241" y="172" type="qcurve" smooth="yes"/>
      <point x="1345" y="278"/>
      <point x="1380" y="426" type="qcurve"/>
      <point x="1481" y="866"/>
      <point x="1512" y="997" type="qcurve"/>
      <point x="1619" y="997" type="line"/>
      <point x="1434" y="194" type="line"/>
      <point x="1428" y="164"/>
      <point x="1428" y="144" type="qcurve" smooth="yes"/>
      <point x="1428" y="90"/>
      <point x="1489" y="41"/>
      <point x="1535" y="41" type="qcurve"/>
    </contour>
  </outline>
</glyph>
<glyph name="afii10092" format="2">
  <advance width="1146"/>
  <unicode hex="044A"/>
  <outline>
    <contour>
      <point x="504" y="-20" type="qcurve" smooth="yes"/>
      <point x="365" y="-20"/>
      <point x="278" y="47" type="qcurve" smooth="yes"/>
      <point x="181" y="120"/>
      <point x="181" y="253" type="qcurve" smooth="yes"/>
      <point x="181" y="297"/>
      <point x="192" y="343" type="qcurve" smooth="yes"/>
      <point x="320" y="904" type="line"/>
      <point x="139" y="904" type="line"/>
      <point x="143" y="925"/>
      <point x="150" y="950" type="qcurve" smooth="yes"/>
      <point x="156" y="975"/>
      <point x="161" y="997" type="qcurve"/>
      <point x="453" y="997" type="line"/>
      <point x="433" y="912"/>
      <point x="412" y="824" type="qcurve" smooth="yes"/>
      <point x="390" y="736"/>
      <point x="366" y="633" type="qcurve"/>
      <point x="419" y="704"/>
      <point x="514" y="750" type="qcurve" smooth="yes"/>
      <point x="615" y="800"/>
      <point x="719" y="800" type="qcurve" smooth="yes"/>
      <point x="854" y="800"/>
      <point x="937" y="729" type="qcurve" smooth="yes"/>
      <point x="1027" y="652"/>
      <point x="1027" y="509" type="qcurve" smooth="yes"/>
      <point x="1027" y="420"/>
      <point x="1002" y="342" type="qcurve" smooth="yes"/>
      <point x="952" y="187"/>
      <point x="840" y="93" type="qcurve" smooth="yes"/>
      <point x="704" y="-20"/>
    </contour>
    <contour>
      <point x="532" y="74" type="qcurve" smooth="yes"/>
      <point x="658" y="74"/>
      <point x="857" y="252"/>
      <point x="891" y="401" type="qcurve" smooth="yes"/>
      <point x="902" y="448"/>
      <point x="902" y="488" type="qcurve" smooth="yes"/>
      <point x="902" y="586"/>
      <point x="787" y="704"/>
      <point x="684" y="704" type="qcurve" smooth="yes"/>
      <point x="558" y="704"/>
      <point x="453" y="624" type="qcurve" smooth="yes"/>
      <point x="345" y="542"/>
      <point x="321" y="424" type="qcurve" smooth="yes"/>
      <point x="313" y="384"/>
      <point x="304" y="345" type="qcurve" smooth="yes"/>
      <point x="294" y="306"/>
      <point x="294" y="274" type="qcurve" smooth="yes"/>
      <point x="294" y="181"/>
      <point x="418" y="74"/>
    </contour>
  </outline>
</glyph>
<glyph name="afii10096" format="2">
  <advance width="1403"/>
  <unicode hex="044E"/>
  <outline>
    <contour>
      <point x="736" y="-20" type="qcurve" smooth="yes"/>
      <point x="569" y="-20"/>
      <point x="375" y="190"/>
      <point x="375" y="361" type="qcurve" smooth="yes"/>
      <point x="375" y="435"/>
      <point x="394" y="511" type="qcurve"/>
      <point x="302" y="504" type="line"/>
      <point x="187" y="0" type="line"/>
      <point x="81" y="0" type="line"/>
      <point x="161" y="353"/>
      <point x="243" y="706" type="qcurve" smooth="yes"/>
      <point x="325" y="1059"/>
      <point x="406" y="1413" type="qcurve"/>
      <point x="512" y="1413" type="line"/>
      <point x="322" y="590" type="line"/>
      <point x="420" y="597" type="line"/>
      <point x="489" y="779"/>
      <point x="631" y="891" type="qcurve" smooth="yes"/>
      <point x="782" y="1010"/>
      <point x="953" y="1010" type="qcurve" smooth="yes"/>
      <point x="1114" y="1010"/>
      <point x="1310" y="798"/>
      <point x="1310" y="627" type="qcurve" smooth="yes"/>
      <point x="1310" y="471"/>
      <point x="1154" y="169"/>
      <point x="1026" y="79" type="qcurve" smooth="yes"/>
      <point x="887" y="-20"/>
    </contour>
    <contour>
      <point x="738" y="74" type="qcurve" smooth="yes"/>
      <point x="904" y="74"/>
      <point x="1024" y="201" type="qcurve" smooth="yes"/>
      <point x="1133" y="316"/>
      <point x="1179" y="506" type="qcurve"/>
      <point x="1198" y="595"/>
      <point x="1198" y="654" type="qcurve" smooth="yes"/>
      <point x="1198" y="777"/>
      <point x="1140" y="844" type="qcurve"/>
      <point x="1076" y="915"/>
      <point x="951" y="915" type="qcurve" smooth="yes"/>
      <point x="781" y="915"/>
      <point x="661" y="787" type="qcurve" smooth="yes"/>
      <point x="553" y="670"/>
      <point x="510" y="484" type="qcurve"/>
      <point x="491" y="410"/>
      <point x="491" y="335" type="qcurve" smooth="yes"/>
      <point x="491" y="212"/>
      <point x="550" y="146" type="qcurve"/>
      <point x="612" y="74"/>
    </contour>
  </outline>
</glyph>
<glyph name="afii10097" format="2">
  <advance width="966"/>
  <unicode hex="044F"/>
  <outline>
    <contour>
      <point x="656" y="0" type="qcurve"/>
      <point x="550" y="0" type="line"/>
      <point x="578" y="127"/>
      <point x="660" y="482" type="qcurve"/>
      <point x="499" y="482" type="line" smooth="yes"/>
      <point x="401" y="482"/>
      <point x="329" y="390" type="qcurve" smooth="yes"/>
      <point x="308" y="362"/>
      <point x="189" y="158" type="qcurve" smooth="yes"/>
      <point x="143" y="78"/>
      <point x="97" y="0" type="qcurve"/>
      <point x="-25" y="0" type="line"/>
      <point x="30" y="88"/>
      <point x="86" y="180" type="qcurve" smooth="yes"/>
      <point x="141" y="272"/>
      <point x="198" y="364" type="qcurve" smooth="yes"/>
      <point x="249" y="445"/>
      <point x="339" y="520"/>
      <point x="419" y="520" type="qcurve"/>
      <point x="291" y="542"/>
      <point x="194" y="626"/>
      <point x="194" y="707" type="qcurve" smooth="yes"/>
      <point x="194" y="819"/>
      <point x="263" y="896" type="qcurve" smooth="yes"/>
      <point x="354" y="997"/>
      <point x="536" y="997" type="qcurve" smooth="yes"/>
      <point x="885" y="997" type="line"/>
      <point x="829" y="749"/>
      <point x="771" y="500" type="qcurve" smooth="yes"/>
      <point x="713" y="250"/>
    </contour>
    <contour>
      <point x="684" y="583" type="line"/>
      <point x="761" y="922" type="line"/>
      <point x="520" y="922" type="line" smooth="yes"/>
      <point x="425" y="922"/>
      <point x="301" y="800"/>
      <point x="301" y="705" type="qcurve" smooth="yes"/>
      <point x="301" y="642"/>
      <point x="396" y="583"/>
      <point x="501" y="583" type="qcurve" smooth="yes"/>
    </contour>
  </outline>
</glyph>
<glyph name="afii10101" format="2">
  <advance width="968"/>
  <unicode hex="0454"/>
  <outline>
    <contour>
      <point x="412" y="-20" type="qcurve" smooth="yes"/>
      <point x="252" y="-20"/>
      <point x="170" y="78" type="qcurve"/>
      <point x="89" y="172"/>
      <point x="89" y="339" type="qcurve" smooth="yes"/>
      <point x="89" y="509"/>
      <point x="158" y="662" type="qcurve" smooth="yes"/>
      <point x="228" y="820"/>
      <point x="346" y="914" type="qcurve" smooth="yes"/>
      <point x="473" y="1014"/>
      <point x="627" y="1014" type="qcurve" smooth="yes"/>
      <point x="757" y="1014"/>
      <point x="924" y="880"/>
      <point x="947" y="763" type="qcurve"/>
      <point x="922" y="754"/>
      <point x="895" y="746" type="qcurve" smooth="yes"/>
      <point x="867" y="737"/>
      <point x="843" y="728" type="qcurve"/>
      <point x="839" y="821"/>
      <point x="723" y="933"/>
      <point x="629" y="933" type="qcurve" smooth="yes"/>
      <point x="479" y="933"/>
      <point x="363" y="801" type="qcurve" smooth="yes"/>
      <point x="267" y="692"/>
      <point x="218" y="518" type="qcurve"/>
      <point x="647" y="525" type="line"/>
      <point x="628" y="447" type="line"/>
      <point x="200" y="441" type="line"/>
      <point x="190" y="396"/>
      <point x="190" y="334" type="qcurve" smooth="yes"/>
      <point x="190" y="209"/>
      <point x="237" y="140" type="qcurve" smooth="yes"/>
      <point x="291" y="60"/>
      <point x="407" y="60" type="qcurve" smooth="yes"/>
      <point x="506" y="60"/>
      <point x="688" y="182"/>
      <point x="734" y="277" type="qcurve"/>
      <point x="814" y="224" type="line"/>
      <point x="745" y="104"/>
      <point x="538" y="-20"/>
    </contour>
  </outline>
</glyph>
<glyph name="afii10103" format="2">
  <advance width="481"/>
  <unicode hex="0456"/>
  <outline>
    <contour>
      <point x="481" y="1242" type="line"/>
      <point x="344" y="1242" type="line"/>
      <point x="384" y="1413" type="line"/>
      <point x="521" y="1413" type="line"/>
    </contour>
    <contour>
      <point x="178" y="0" type="line"/>
      <point x="71" y="0" type="line"/>
      <point x="301" y="997" type="line"/>
      <point x="408" y="997" type="line"/>
    </contour>
  </outline>
</glyph>
<glyph name="afii10107" format="2">
  <advance width="1650"/>
  <unicode hex="045A"/>
  <outline>
    <contour>
      <point x="1054" y="0" type="qcurve" smooth="yes"/>
      <point x="740" y="0" type="line"/>
      <point x="857" y="504" type="line"/>
      <point x="300" y="504" type="line"/>
      <point x="185" y="0" type="line"/>
      <point x="81" y="0" type="line"/>
      <point x="137" y="248"/>
      <point x="195" y="498" type="qcurve" smooth="yes"/>
      <point x="253" y="748"/>
      <point x="309" y="997" type="qcurve"/>
      <point x="413" y="997" type="line"/>
      <point x="319" y="591" type="line"/>
      <point x="875" y="591" type="line"/>
      <point x="969" y="997" type="line"/>
      <point x="1070" y="997" type="line"/>
      <point x="977" y="591" type="line"/>
      <point x="1184" y="591" type="line" smooth="yes"/>
      <point x="1335" y="591"/>
      <point x="1408" y="552" type="qcurve" smooth="yes"/>
      <point x="1495" y="504"/>
      <point x="1495" y="389" type="qcurve" smooth="yes"/>
      <point x="1495" y="226"/>
      <point x="1381" y="117" type="qcurve" smooth="yes"/>
      <point x="1260" y="0"/>
    </contour>
    <contour>
      <point x="1064" y="80" type="line" smooth="yes"/>
      <point x="1198" y="80"/>
      <point x="1269" y="135" type="qcurve" smooth="yes"/>
      <point x="1350" y="198"/>
      <point x="1373" y="349" type="qcurve" smooth="yes"/>
      <point x="1376" y="370"/>
      <point x="1376" y="388" type="qcurve" smooth="yes"/>
      <point x="1376" y="433"/>
      <point x="1360" y="458" type="qcurve" smooth="yes"/>
      <point x="1330" y="504"/>
      <point x="1252" y="508" type="qcurve" smooth="yes"/>
      <point x="1215" y="510"/>
      <point x="959" y="510" type="qcurve"/>
      <point x="859" y="80" type="line"/>
    </contour>
  </outline>
</glyph>
<glyph name="afii10110" format="2">
  <advance width="969"/>
  <unicode hex="045E"/>
  <outline>
    <contour>
      <point x="636" y="1148" type="qcurve" smooth="yes"/>
      <point x="530" y="1148"/>
      <point x="461" y="1203" type="qcurve"/>
      <point x="387" y="1260"/>
      <point x="387" y="1356" type="qcurve" smooth="yes"/>
      <point x="387" y="1392"/>
      <point x="393" y="1413" type="qcurve"/>
      <point x="487" y="1413" type="line"/>
      <point x="483" y="1396"/>
      <point x="483" y="1376" type="qcurve" smooth="yes"/>
      <point x="483" y="1309"/>
      <point x="568" y="1232"/>
      <point x="635" y="1232" type="qcurve" smooth="yes"/>
      <point x="716" y="1232"/>
      <point x="867" y="1340"/>
      <point x="887" y="1413" type="qcurve"/>
      <point x="979" y="1413" type="line"/>
      <point x="953" y="1293"/>
      <point x="851" y="1218" type="qcurve" smooth="yes"/>
      <point x="755" y="1148"/>
    </contour>
    <contour>
      <point x="171" y="-432" type="line"/>
      <point x="67" y="-432" type="line"/>
      <point x="325" y="-5" type="line"/>
      <point x="178" y="997" type="line"/>
      <point x="294" y="997" type="line"/>
      <point x="398" y="121" type="line"/>
      <point x="529" y="347"/>
      <point x="654" y="564" type="qcurve" smooth="yes"/>
      <point x="778" y="781"/>
      <point x="904" y="997" type="qcurve"/>
      <point x="1021" y="997" type="line"/>
    </contour>
  </outline>
</glyph>
<glyph name="afii10193" format="2">
  <advance width="1151"/>
  <unicode hex="045F"/>
  <outline>
    <contour>
      <point x="439" y="-308" type="line"/>
      <point x="338" y="-308" type="line"/>
      <point x="409" y="0" type="line"/>
      <point x="81" y="0" type="line"/>
      <point x="309" y="997" type="line"/>
      <point x="414" y="997" type="line"/>
      <point x="203" y="88" type="line"/>
      <point x="760" y="88" type="line"/>
      <point x="969" y="997" type="line"/>
      <point x="1070" y="997" type="line"/>
      <point x="842" y="0" type="line"/>
      <point x="510" y="0" type="line"/>
    </contour>
  </outline>
</glyph>
<glyph name="afii10146" format="2">
  <advance width="1372"/>
  <unicode hex="0462"/>
  <outline>
    <contour>
      <point x="720" y="0" type="qcurve" smooth="yes"/>
      <point x="338" y="0" type="line"/>
      <point x="598" y="1124" type="line"/>
      <point x="229" y="1124" type="line"/>
      <point x="249" y="1214" type="line"/>
      <point x="617" y="1214" type="line"/>
      <point x="630" y="1267"/>
      <point x="654" y="1365"/>
      <point x="664" y="1413" type="qcurve"/>
      <point x="780" y="1413" type="line"/>
      <point x="769" y="1367"/>
      <point x="757" y="1318" type="qcurve" smooth="yes"/>
      <point x="745" y="1268"/>
      <point x="733" y="1214" type="qcurve"/>
      <point x="1106" y="1214" type="line"/>
      <point x="1085" y="1124" type="line"/>
      <point x="712" y="1124" type="line"/>
      <point x="628" y="753" type="line"/>
      <point x="886" y="753" type="line" smooth="yes"/>
      <point x="1058" y="753"/>
      <point x="1245" y="607"/>
      <point x="1245" y="472" type="qcurve" smooth="yes"/>
      <point x="1245" y="327"/>
      <point x="1164" y="211" type="qcurve" smooth="yes"/>
      <point x="1018" y="0"/>
    </contour>
    <contour>
      <point x="734" y="97" type="line" smooth="yes"/>
      <point x="881" y="97"/>
      <point x="1096" y="252"/>
      <point x="1126" y="390" type="qcurve" smooth="yes"/>
      <point x="1135" y="430"/>
      <point x="1135" y="464" type="qcurve" smooth="yes"/>
      <point x="1135" y="559"/>
      <point x="998" y="657"/>
      <point x="873" y="657" type="qcurve" smooth="yes"/>
      <point x="606" y="657" type="line"/>
      <point x="477" y="97" type="line"/>
    </contour>
  </outline>
</glyph>
<glyph name="Eiotifiedcyrillic" format="2">
  <advance width="1775"/>
  <unicode hex="0464"/>
  <outline>
    <contour>
      <point x="1001" y="-20" type="qcurve" smooth="yes"/>
      <point x="759" y="-20"/>
      <point x="634" y="116" type="qcurve"/>
      <point x="513" y="244"/>
      <point x="513" y="477" type="qcurve" smooth="yes"/>
      <point x="513" y="566"/>
      <point x="533" y="667" type="qcurve"/>
      <point x="488" y="665"/>
      <point x="377" y="662" type="qcurve"/>
      <point x="225" y="0" type="line"/>
      <point x="112" y="0" type="line"/>
      <point x="195" y="353"/>
      <point x="276" y="706" type="qcurve" smooth="yes"/>
      <point x="356" y="1059"/>
      <point x="439" y="1413" type="qcurve"/>
      <point x="550" y="1413" type="line"/>
      <point x="400" y="751" type="line"/>
      <point x="551" y="757" type="line"/>
      <point x="635" y="1060"/>
      <point x="823" y="1240" type="qcurve"/>
      <point x="1030" y="1436"/>
      <point x="1314" y="1436" type="qcurve" smooth="yes"/>
      <point x="1509" y="1436"/>
      <point x="1755" y="1250"/>
      <point x="1792" y="1070" type="qcurve"/>
      <point x="1765" y="1063"/>
      <point x="1737" y="1054" type="qcurve" smooth="yes"/>
      <point x="1709" y="1044"/>
      <point x="1684" y="1037" type="qcurve"/>
      <point x="1674" y="1186"/>
      <point x="1571" y="1263" type="qcurve" smooth="yes"/>
      <point x="1475" y="1334"/>
      <point x="1309" y="1334" type="qcurve" smooth="yes"/>
      <point x="1067" y="1334"/>
      <point x="892" y="1162" type="qcurve" smooth="yes"/>
      <point x="733" y="1006"/>
      <point x="664" y="746" type="qcurve"/>
      <point x="834" y="748"/>
      <point x="998" y="749" type="qcurve"/>
      <point x="1162" y="749"/>
      <point x="1324" y="751" type="qcurve"/>
      <point x="1313" y="702"/>
      <point x="1303" y="662" type="qcurve"/>
      <point x="643" y="656" type="line"/>
      <point x="622" y="545"/>
      <point x="622" y="468" type="qcurve" smooth="yes"/>
      <point x="622" y="284"/>
      <point x="716" y="186" type="qcurve"/>
      <point x="813" y="81"/>
      <point x="1004" y="81" type="qcurve" smooth="yes"/>
      <point x="1343" y="81"/>
      <point x="1529" y="392" type="qcurve"/>
      <point x="1629" y="337" type="line"/>
      <point x="1513" y="161"/>
      <point x="1190" y="-20"/>
    </contour>
  </outline>
</glyph>
